<svg width="521" height="554" viewBox="0 0 521 554" fill="none" xmlns="http://www.w3.org/2000/svg">
<path d="M1.24149 412.669C5.20378 420.225 10.3048 427.403 16.928 433.308C23.5512 439.213 31.9638 443.835 41.2014 445.824C50.0149 447.72 59.3222 447.122 67.4675 443.456C74.8053 440.153 80.9056 434.487 83.6072 427.486C86.1519 420.9 85.1236 413.318 81.2253 407.325C77.3269 401.331 70.6746 397.286 62.9302 397.016C55.7376 396.761 48.3069 399.612 43.8972 404.754C39.1041 410.321 38.8136 418.543 43.6242 424.209C44.8026 425.637 46.3017 426.829 48.0255 427.709C49.7493 428.589 51.6598 429.138 53.6345 429.319C57.4186 429.667 61.2036 428.667 64.1676 426.535C65.5795 425.507 66.6818 424.18 67.3748 422.675C68.0677 421.169 68.3293 419.533 68.1357 417.914C67.9614 416.299 67.4007 414.735 66.4915 413.33C65.5824 411.925 64.3459 410.711 62.8662 409.771C61.4232 408.903 59.7455 408.399 58.0093 408.312C57.625 408.314 57.2572 408.452 56.9855 408.695C56.7137 408.938 56.5599 409.266 56.5568 409.61C56.5643 409.952 56.7196 410.279 56.9904 410.521C57.2612 410.763 57.6264 410.902 58.0093 410.908C63.8191 411.261 67.1073 418.351 64.1618 422.656C60.7863 427.579 52.304 428.047 47.6678 424.339C42.468 420.184 41.7011 412.825 45.187 407.636C48.4114 402.853 54.715 399.955 60.8386 399.633C63.9965 399.423 67.1608 399.96 70.0123 401.191C73.0325 402.547 75.628 404.553 77.565 407.029C79.543 409.552 80.9156 412.413 81.5965 415.433C82.2773 418.453 82.2519 421.567 81.5216 424.577C79.8832 430.986 74.9216 436.393 68.74 439.831C61.9212 443.563 53.8514 445.034 45.9423 443.986C37.3438 442.921 29.2041 439.4 22.5925 434.424C15.981 429.449 10.7463 423.191 6.59812 416.439C5.57559 414.767 4.60729 413.069 3.69321 411.345C3.49805 411.048 3.17976 410.832 2.80755 410.745C2.43535 410.657 2.03947 410.705 1.7063 410.877C1.38015 411.056 1.14412 411.341 1.04773 411.672C0.951342 412.003 1.00213 412.355 1.18929 412.653L1.24149 412.669Z" fill="#CC9640"/>
<path d="M71.3316 443.649C80.4721 447.64 86.6057 455.201 88.9255 463.483C91.2453 471.765 89.6189 481.026 83.1513 487.907C79.369 491.909 74.225 495.089 68.2427 496.279C62.5693 497.4 56.2214 496.49 51.5692 493.525C49.3517 492.094 47.635 490.192 46.5982 488.017C45.5614 485.843 45.2425 483.476 45.6751 481.163C46 479.013 47.1643 477.013 48.9876 475.472C50.811 473.931 53.1917 472.936 55.7611 472.639C60.281 471.991 65.6077 473.629 67.3097 477.251C68.892 480.615 67.8456 484.817 64.4857 487.165C63.7239 487.673 62.8531 488.056 61.92 488.292C59.9847 488.776 60.8105 491.319 62.7584 490.83C68.1229 489.482 71.2119 484.88 71.174 480.363C71.1886 478.105 70.3308 475.904 68.7281 474.087C66.8844 472.117 64.2764 470.744 61.3527 470.206C55.4208 469.074 48.9027 470.912 45.2969 475.05C41.4264 479.494 41.5146 485.749 44.4711 490.514C47.623 495.594 54.0529 498.553 60.6781 499.222C67.6123 499.928 74.4142 497.89 79.8544 494.341C89.5937 488.023 94.0946 477.567 92.859 467.447C91.6991 457.928 85.9942 448.746 76.5133 443.228C75.3573 442.555 74.1508 441.945 72.9013 441.401C71.1047 440.617 69.5098 442.886 71.3064 443.67L71.3316 443.649Z" fill="#CC9640"/>
<path d="M30.8311 508.277C39.2782 504.95 49.6353 505.645 57.6285 509.551C65.9117 513.6 70.7718 521.134 71.0618 529.069C71.2654 533.558 69.9339 538.004 67.2229 541.884C66.189 543.348 68.9122 544.675 69.946 543.216C75.3925 535.55 75.5312 525.726 70.8916 517.765C66.252 509.804 56.7143 504.755 46.3068 503.712C40.474 503.123 34.5606 503.917 29.2425 506.003C28.8839 506.181 28.6233 506.469 28.5172 506.806C28.411 507.143 28.4677 507.501 28.6751 507.803C28.8935 508.098 29.239 508.311 29.64 508.399C30.0411 508.487 30.4674 508.444 30.8311 508.277Z" fill="#CC9640"/>
<path d="M11.3242 494.546C13.2137 493.011 15.503 491.862 18.0129 491.189C20.5227 490.516 23.1851 490.337 25.7915 490.666C28.4265 491.033 30.9142 491.932 33.0379 493.286C35.1617 494.64 36.8571 496.406 37.9766 498.432C39.2835 500.709 39.8218 503.242 39.5336 505.756C39.5336 506.105 39.6998 506.44 39.9953 506.686C40.2909 506.933 40.6916 507.072 41.1096 507.072C41.5276 507.072 41.9284 506.933 42.224 506.686C42.5195 506.44 42.6855 506.105 42.6855 505.756C42.9229 503.156 42.4343 500.545 41.2584 498.129C40.0825 495.714 38.2513 493.559 35.909 491.835C32.1155 489.161 27.2634 487.766 22.303 487.924C17.3427 488.082 12.6317 489.78 9.09276 492.688C7.65549 493.883 9.88691 495.747 11.3242 494.546Z" fill="#CC9640"/>
<path d="M65.6145 514.462C71.5237 511.486 78.1073 509.564 84.9501 508.818C91.793 508.072 98.7466 508.519 105.373 510.129C118.018 513.204 128.451 520.765 134.509 530.468C137.865 535.808 139.75 541.706 140.024 547.732C140.094 549.417 143.246 549.428 143.176 547.732C142.592 536.159 136.607 525.236 126.503 517.3C121.258 513.239 115.058 510.135 108.297 508.186C101.537 506.237 94.364 505.486 87.2365 505.98C79.0195 506.49 71.0636 508.618 64.0196 512.188C62.2987 513.078 63.8809 515.347 65.6145 514.462Z" fill="#CC9640"/>
<path d="M83.9028 492.603C97.9864 492.395 111.857 495.496 123.932 501.554C132.841 506.078 140.516 512.111 146.46 519.266C152.405 526.42 156.488 534.536 158.445 543.09C158.559 543.424 158.825 543.709 159.187 543.881C159.549 544.053 159.978 544.1 160.38 544.011C160.78 543.913 161.118 543.689 161.324 543.386C161.53 543.084 161.587 542.726 161.484 542.389C158.834 531.065 152.642 520.529 143.537 511.852C136.084 504.819 126.893 499.22 116.597 495.443C106.301 491.666 95.1461 489.801 83.9028 489.976C81.8793 490.012 81.873 492.645 83.9028 492.608V492.603Z" fill="#CC9640"/>
<path d="M5.09485 449.267C12.3205 456.139 21.9178 460.973 32.5668 463.103C41.0128 464.73 49.8086 464.593 58.176 462.704C66.5433 460.815 74.2241 457.232 80.5386 452.273C82.02 451.104 79.7884 449.246 78.3133 450.409C70.6498 456.418 60.9046 460.244 50.4758 461.34C42.4684 462.128 34.3514 461.271 26.8311 458.842C19.3108 456.413 12.6151 452.486 7.32641 447.403C7.02834 447.159 6.62778 447.023 6.21063 447.023C5.79348 447.023 5.39291 447.159 5.09485 447.403C4.80596 447.653 4.64453 447.987 4.64453 448.335C4.64453 448.682 4.80596 449.017 5.09485 449.267Z" fill="#CC9640"/>
<path d="M7.23241 470.906C11.0299 474.241 15.5813 476.915 20.6234 478.773C25.6654 480.631 31.0983 481.637 36.6081 481.731C39.7133 481.776 42.8143 481.522 45.8494 480.972C47.8351 480.614 46.9968 478.077 45.0175 478.435C40.0486 479.279 34.9289 479.295 29.9527 478.482C24.9764 477.668 20.2416 476.042 16.02 473.696C13.6296 472.367 11.4353 470.806 9.48291 469.047C8.09607 467.805 5.87081 469.668 7.25134 470.911L7.23241 470.906Z" fill="#CC9640"/>
<path d="M515.373 140.434C511.064 134.373 505.516 128.617 498.313 123.881C491.11 119.145 481.961 115.438 471.915 113.843C462.329 112.323 452.207 112.802 443.349 115.742C435.369 118.392 428.734 122.932 425.796 128.546C423.029 133.828 424.147 139.913 428.386 144.72C432.626 149.526 439.861 152.771 448.283 152.987C456.106 153.192 464.187 150.905 468.983 146.781C474.195 142.316 474.512 135.719 469.28 131.179C467.999 130.033 466.369 129.076 464.494 128.37C462.619 127.664 460.541 127.225 458.393 127.08C454.279 126.801 450.163 127.602 446.938 129.308C445.403 130.134 444.205 131.2 443.451 132.407C442.698 133.615 442.413 134.928 442.622 136.227C442.812 137.523 443.422 138.776 444.41 139.903C445.399 141.03 446.744 142.003 448.353 142.758C449.923 143.453 451.747 143.857 453.635 143.928C454.053 143.926 454.453 143.816 454.749 143.621C455.044 143.426 455.212 143.162 455.215 142.887C455.207 142.612 455.038 142.351 454.743 142.156C454.449 141.962 454.052 141.851 453.635 141.846C447.285 141.562 443.74 135.877 446.944 132.424C450.615 128.475 459.84 128.101 464.888 131.074C470.537 134.407 471.371 140.309 467.58 144.465C464.073 148.306 457.218 150.63 450.564 150.888C447.128 151.055 443.686 150.624 440.581 149.639C437.297 148.551 434.474 146.942 432.367 144.957C430.218 142.933 428.727 140.638 427.987 138.216C427.246 135.794 427.273 133.298 428.064 130.883C429.846 125.743 435.242 121.407 441.965 118.65C449.381 115.656 458.157 114.477 466.759 115.318C476.11 116.151 484.962 118.995 492.153 122.986C499.343 126.976 505.036 131.995 509.547 137.41C510.66 138.751 511.713 140.113 512.707 141.496C512.919 141.734 513.265 141.906 513.67 141.977C514.075 142.047 514.505 142.009 514.868 141.871C515.222 141.727 515.479 141.499 515.584 141.233C515.689 140.967 515.633 140.685 515.43 140.446L515.373 140.434Z" fill="#CC9640"/>
<path d="M438.397 117.795C427.764 114.621 420.63 108.607 417.931 102.02C415.233 95.4329 417.132 88.0668 424.648 82.5936C429.048 79.411 435.031 76.8774 441.99 75.9352C448.552 75.0432 455.973 75.7677 461.384 78.1254C463.964 79.2637 465.96 80.7766 467.166 82.5062C468.372 84.2358 468.743 86.1186 468.24 87.9579C467.779 89.734 466.326 91.3776 464.097 92.6439C461.982 93.7615 459.328 94.4909 456.479 94.7378C451.221 95.2528 445.025 93.9505 443.045 91.0694C441.212 88.3935 442.422 85.0517 446.33 83.184C447.216 82.7797 448.229 82.4756 449.315 82.2879C451.566 81.9026 450.605 79.88 448.34 80.2694C442.1 81.3415 438.507 85.0015 438.551 88.5903C438.533 90.3871 439.53 92.1392 441.396 93.5862C443.54 95.1531 446.574 96.2445 449.975 96.6725C456.875 97.5728 464.456 96.1071 468.651 92.8198C473.153 89.2854 473.05 84.3105 469.611 80.5207C465.945 76.4754 458.466 74.1261 450.759 73.5943C442.694 73.0332 434.782 74.6538 428.454 77.4763C417.125 82.5015 411.889 90.8181 413.327 98.8668C414.676 106.438 421.312 113.737 432.347 118.13C433.69 118.667 435.094 119.152 436.549 119.583C438.631 120.207 440.486 118.402 438.397 117.778V117.795Z" fill="#CC9640"/>
<path d="M485.507 66.3924C475.682 69.039 463.635 68.4862 454.337 65.379C444.702 62.1587 439.048 56.1662 438.711 49.8554C438.476 46.2833 440.025 42.7467 443.177 39.6584C444.386 38.4985 441.212 37.4432 440.009 38.6031C433.674 44.7004 433.512 52.5145 438.909 58.8462C444.306 65.178 455.4 69.1939 467.506 70.0231C474.291 70.4917 481.169 69.8604 487.355 68.2015C487.772 68.06 488.075 67.8305 488.199 67.5626C488.322 67.2946 488.256 67.0097 488.015 66.7693C487.761 66.5351 487.359 66.3655 486.893 66.2953C486.426 66.2252 485.93 66.26 485.507 66.3924Z" fill="#CC9640"/>
<path d="M508.205 77.3194C506.003 78.5435 503.334 79.4593 500.408 79.9948C497.482 80.5303 494.378 80.671 491.34 80.4057C488.276 80.1117 485.384 79.3955 482.915 78.3192C480.445 77.2429 478.472 75.8389 477.166 74.2289C475.65 72.4168 475.024 70.4034 475.355 68.4038C475.355 68.1262 475.162 67.8599 474.818 67.6636C474.475 67.4672 474.008 67.3569 473.522 67.3569C473.036 67.3569 472.57 67.4672 472.226 67.6636C471.882 67.8599 471.689 68.1262 471.689 68.4038C471.413 70.4719 471.981 72.5483 473.349 74.4696C474.717 76.3909 476.847 78.1047 479.571 79.476C482.353 80.8448 485.673 81.8086 489.248 82.2848C492.824 82.761 496.548 82.7356 500.103 82.2105C504.141 81.6462 507.836 80.4666 510.794 78.7976C512.465 77.847 509.87 76.3646 508.198 77.3194H508.205Z" fill="#CC9640"/>
<path d="M439.216 54.9055C434.949 56.3263 430.213 57.2275 425.307 57.5525C420.401 57.8775 415.43 57.6193 410.707 56.7941C403.721 55.4909 397.621 52.9746 393.26 49.5963C388.898 46.2181 386.492 42.1465 386.377 37.9497C386.377 36.6055 382.711 36.6013 382.711 37.9497C382.892 43.8535 387.12 49.4813 394.487 53.6241C398.331 55.7518 402.914 57.3951 407.94 58.4475C412.965 59.5 418.322 59.9382 423.663 59.7339C429.8 59.5239 435.762 58.4878 441.063 56.7104C443.095 56.0194 441.254 54.1978 439.216 54.9013V54.9055Z" fill="#CC9640"/>
<path d="M445.096 61.4715C438.222 63.8392 430.564 65.3679 422.605 65.961C414.645 66.5542 406.557 66.199 398.85 64.918C384.14 62.4724 372.005 56.4589 364.959 48.7411C361.054 44.4944 358.862 39.8028 358.543 35.0097C358.462 33.6655 354.796 33.6613 354.876 35.0097C355.556 44.2151 362.518 52.9029 374.271 59.2144C380.372 62.4444 387.584 64.9132 395.448 66.4634C403.312 68.0135 411.655 68.611 419.945 68.2178C429.505 67.8128 438.76 66.1194 446.951 63.2764C448.953 62.5729 447.112 60.7638 445.096 61.4715Z" fill="#CC9640"/>
<path d="M423.769 78.8585C407.387 79.0239 391.253 76.5571 377.207 71.7395C366.847 68.139 357.923 63.3393 351.008 57.6493C344.094 51.9594 339.343 45.5054 337.062 38.7031C336.93 38.4367 336.62 38.2106 336.199 38.0735C335.778 37.9365 335.279 37.8994 334.811 37.9702C334.346 38.0484 333.952 38.2265 333.713 38.4671C333.473 38.7077 333.407 38.992 333.527 39.26C336.608 48.2679 343.813 56.6486 354.411 63.5484C363.076 69.1441 373.766 73.5983 385.741 76.6032C397.716 79.6081 410.691 81.092 423.769 80.9523C426.123 80.923 426.13 78.8292 423.769 78.8585Z" fill="#CC9640"/>
<path d="M515.479 113.311C507.074 107.845 495.911 104.001 483.524 102.306C473.699 101.012 463.468 101.121 453.735 102.624C444.002 104.126 435.068 106.976 427.723 110.92C426.007 111.85 428.603 113.328 430.312 112.402C435.936 109.381 442.571 107.04 449.819 105.52C457.067 103.999 464.778 103.33 472.489 103.554C480.2 103.777 487.754 104.888 494.695 106.819C501.636 108.751 507.823 111.463 512.883 114.794C513.23 114.988 513.696 115.096 514.181 115.096C514.666 115.096 515.132 114.988 515.479 114.794C515.815 114.595 516.003 114.329 516.003 114.052C516.003 113.776 515.815 113.51 515.479 113.311Z" fill="#CC9640"/>
<path d="M512.962 96.1163C508.544 93.4633 503.25 91.3364 497.385 89.8586C491.52 88.3808 485.201 87.5814 478.792 87.5065C475.18 87.4682 471.572 87.6706 468.042 88.1096C465.733 88.3943 466.708 90.4128 469.018 90.128C474.797 89.4562 480.753 89.4433 486.541 90.0901C492.329 90.7369 497.837 92.0306 502.747 93.8969C505.525 94.9546 508.075 96.1957 510.344 97.5946C511.957 98.5829 514.545 97.1005 512.94 96.1122L512.962 96.1163Z" fill="#CC9640"/>
<path d="M52.132 536.66C52.132 539.864 53.9494 542.938 57.1842 545.204C60.4191 547.47 64.8065 548.743 69.3813 548.743H451.81C456.385 548.743 460.772 547.47 464.007 545.204C467.242 542.938 469.059 539.864 469.059 536.66V536.66C469.059 533.455 470.876 530.381 474.111 528.115C477.346 525.849 481.734 524.576 486.308 524.576H498.356C502.931 524.576 507.318 523.303 510.553 521.037C513.788 518.771 515.605 515.697 515.605 512.493V74.9934C515.605 71.7886 513.788 68.7152 510.553 66.4491C507.318 64.183 502.931 62.9099 498.356 62.9099H486.308C481.734 62.9099 477.346 61.6368 474.111 59.3708C470.876 57.1047 469.059 54.0312 469.059 50.8265V50.8265C469.059 47.6218 467.242 44.5483 464.007 42.2822C460.772 40.0161 456.385 38.743 451.81 38.743H69.401C64.8262 38.743 60.4388 40.0161 57.204 42.2822C53.9691 44.5483 52.1518 47.6218 52.1518 50.8265V50.8265C52.1518 54.0312 50.3345 57.1047 47.0996 59.3708C43.8647 61.6368 39.4773 62.9099 34.9026 62.9099H22.8547C18.2799 62.9099 13.8925 64.183 10.6577 66.4491C7.4228 68.7152 5.60547 71.7886 5.60547 74.9934V512.46C5.60547 515.665 7.4228 518.738 10.6577 521.005C13.8925 523.271 18.2799 524.544 22.8547 524.544H34.9026C37.17 524.546 39.4147 524.86 41.5082 525.471C43.6017 526.081 45.5031 526.974 47.1033 528.099C48.7036 529.225 49.9713 530.56 50.8342 532.029C51.697 533.498 52.1381 535.071 52.132 536.66Z" stroke="url(#paint0_linear_276_10692)" stroke-width="10" stroke-miterlimit="10"/>
<g filter="url(#filter0_d_276_10692)">
<ellipse cx="258.767" cy="228.713" rx="45.1892" ry="42.3777" fill="url(#paint1_linear_276_10692)"/>
</g>
<g filter="url(#filter1_d_276_10692)">
<path d="M271.669 54.8164C273.305 48.3134 269.011 41.7975 262.076 40.2627C255.142 38.7279 248.194 42.7553 246.557 49.2583C244.921 55.7612 249.215 62.2771 256.15 63.8119C263.084 65.3467 270.032 61.3193 271.669 54.8164Z" fill="url(#paint2_linear_276_10692)"/>
</g>
<g filter="url(#filter2_d_276_10692)">
<path d="M258.252 412.412C265.102 412.412 270.655 406.731 270.655 399.723C270.655 392.714 265.102 387.033 258.252 387.033C251.401 387.033 245.848 392.714 245.848 399.723C245.848 406.731 251.401 412.412 258.252 412.412Z" fill="url(#paint3_linear_276_10692)"/>
</g>
<g filter="url(#filter3_d_276_10692)">
<path d="M258.246 433.564C263.851 433.564 268.395 429.776 268.395 425.104C268.395 420.432 263.851 416.644 258.246 416.644C252.641 416.644 248.098 420.432 248.098 425.104C248.098 429.776 252.641 433.564 258.246 433.564Z" fill="url(#paint4_linear_276_10692)"/>
</g>
<g filter="url(#filter4_d_276_10692)">
<path d="M258.253 40.183C257.632 40.183 257.125 39.8185 257.125 39.3932V15.5935C257.125 15.153 257.632 14.8037 258.253 14.8037C258.874 14.8037 259.38 15.153 259.38 15.5935V39.4388C259.38 39.864 258.874 40.183 258.253 40.183Z" fill="url(#paint5_linear_276_10692)"/>
</g>
<g filter="url(#filter5_d_276_10692)">
<path d="M259.36 442.024V461.746C259.365 461.783 259.365 461.821 259.36 461.859C260.677 462.128 261.845 462.867 262.639 463.932C263.433 464.997 263.796 466.314 263.658 467.626C263.52 468.939 262.891 470.155 261.892 471.04C260.894 471.924 259.597 472.413 258.252 472.413C256.907 472.413 255.61 471.924 254.611 471.04C253.612 470.155 252.983 468.939 252.846 467.626C252.708 466.314 253.071 464.997 253.865 463.932C254.658 462.867 255.827 462.128 257.143 461.859C257.143 461.859 257.143 461.859 257.143 461.746V442.024C252.263 442.292 247.672 444.383 244.314 447.868C240.955 451.352 239.083 455.967 239.082 460.763V479.631C239.09 481.547 239.823 483.392 241.141 484.806C242.458 486.221 244.264 487.104 246.208 487.284C246.747 490.022 248.24 492.491 250.432 494.266C252.624 496.042 255.377 497.013 258.219 497.013C261.061 497.013 263.814 496.042 266.006 494.266C268.198 492.491 269.691 490.022 270.23 487.284C272.187 487.123 274.011 486.247 275.343 484.83C276.674 483.413 277.416 481.558 277.421 479.631V460.779C277.425 455.98 275.555 451.362 272.196 447.873C268.836 444.385 264.243 442.292 259.36 442.024Z" fill="url(#paint6_linear_276_10692)"/>
</g>
<g filter="url(#filter6_d_276_10692)">
<path d="M97 7.40229C97 3.31412 100.314 0 104.402 0H412.099C416.187 0 419.501 3.31412 419.501 7.40229C419.501 11.4905 416.187 14.8046 412.099 14.8046H104.402C100.314 14.8046 97 11.4905 97 7.40229Z" fill="#956311"/>
</g>
<path d="M259.03 83C230.746 82.994 203.096 91.3757 179.575 107.085C156.055 122.795 137.722 145.126 126.894 171.255C116.066 197.385 113.23 226.138 118.744 253.879C124.258 281.621 137.875 307.104 157.873 327.105C177.871 347.107 203.351 360.73 231.091 366.25C258.831 371.77 287.585 368.94 313.717 358.118C339.848 347.295 362.184 328.967 377.898 305.45C393.612 281.933 402 254.284 402 226C402 188.079 386.938 151.711 360.127 124.894C333.316 98.0776 296.951 83.008 259.03 83ZM216.236 123.797C242.607 112.775 272.214 112.352 298.889 122.616C299.912 123.014 300.847 123.609 301.641 124.368C302.434 125.127 303.07 126.034 303.513 127.039C303.955 128.044 304.196 129.126 304.22 130.223C304.245 131.321 304.053 132.412 303.655 133.436C303.258 134.459 302.663 135.394 301.904 136.188C301.145 136.981 300.238 137.617 299.233 138.06C298.228 138.503 297.146 138.743 296.048 138.767C294.951 138.792 293.859 138.6 292.836 138.203C270.16 129.526 245.02 129.872 222.592 139.171C221.569 139.611 220.467 139.838 219.353 139.837C217.433 139.823 215.575 139.148 214.094 137.925C212.613 136.702 211.599 135.006 211.222 133.122C210.845 131.239 211.129 129.283 212.026 127.584C212.923 125.886 214.378 124.548 216.145 123.797H216.236ZM167.813 273.273C166.784 273.69 165.685 273.906 164.575 273.909C162.933 273.902 161.33 273.414 159.963 272.505C158.597 271.596 157.527 270.305 156.887 268.794C145.879 242.387 145.467 212.754 155.737 186.051C156.601 184.075 158.195 182.509 160.186 181.682C162.177 180.854 164.411 180.829 166.421 181.611C168.43 182.393 170.06 183.921 170.968 185.877C171.876 187.833 171.993 190.064 171.293 192.104C162.577 214.783 162.924 239.947 172.262 262.378C173.086 264.414 173.074 266.693 172.23 268.721C171.386 270.748 169.778 272.362 167.752 273.213L167.813 273.273ZM301.915 328.203C275.518 339.21 245.895 339.622 219.202 329.353C218.137 328.988 217.157 328.412 216.321 327.659C215.484 326.905 214.809 325.991 214.335 324.97C213.861 323.949 213.598 322.843 213.562 321.718C213.526 320.592 213.718 319.472 214.126 318.423C214.534 317.374 215.15 316.418 215.937 315.613C216.724 314.808 217.665 314.17 218.705 313.738C219.744 313.306 220.86 313.089 221.986 313.099C223.112 313.109 224.224 313.347 225.255 313.797C247.935 322.464 273.075 322.107 295.499 312.799C296.517 312.338 297.617 312.086 298.734 312.058C299.85 312.029 300.962 312.225 302.001 312.634C303.041 313.043 303.988 313.656 304.787 314.438C305.585 315.219 306.219 316.153 306.65 317.183C307.082 318.214 307.302 319.321 307.298 320.438C307.294 321.555 307.066 322.66 306.627 323.688C306.188 324.715 305.548 325.644 304.744 326.42C303.94 327.196 302.988 327.802 301.945 328.203H301.915ZM319.045 277.571C319.049 278.669 318.836 279.757 318.417 280.772C317.999 281.787 317.384 282.71 316.607 283.486C315.831 284.263 314.908 284.878 313.893 285.296C312.878 285.714 311.79 285.928 310.692 285.924H207.429C205.214 285.924 203.089 285.044 201.523 283.477C199.956 281.911 199.076 279.786 199.076 277.571V174.399C199.084 172.186 199.967 170.066 201.532 168.501C203.096 166.936 205.216 166.054 207.429 166.046H310.601C312.816 166.046 314.941 166.926 316.508 168.492C318.074 170.059 318.954 172.184 318.954 174.399L319.045 277.571ZM354.697 271.245C353.66 271.252 352.632 271.057 351.67 270.67C350.648 270.278 349.713 269.688 348.919 268.934C348.125 268.18 347.487 267.277 347.043 266.276C346.599 265.275 346.356 264.196 346.33 263.101C346.303 262.007 346.493 260.917 346.888 259.896C355.613 237.216 355.255 212.045 345.89 189.622C345.109 187.593 345.149 185.34 346.003 183.341C346.856 181.342 348.455 179.755 350.46 178.916C352.466 178.077 354.719 178.052 356.742 178.848C358.764 179.643 360.398 181.196 361.294 183.176C372.302 209.583 372.714 239.216 362.444 265.919C361.831 267.496 360.753 268.85 359.353 269.801C357.954 270.753 356.298 271.256 354.606 271.245H354.697Z" fill="url(#paint7_linear_276_10692)"/>
<defs>
<filter id="filter0_d_276_10692" x="209.578" y="186.335" width="98.3789" height="92.7555" filterUnits="userSpaceOnUse" color-interpolation-filters="sRGB">
<feFlood flood-opacity="0" result="BackgroundImageFix"/>
<feColorMatrix in="SourceAlpha" type="matrix" values="0 0 0 0 0 0 0 0 0 0 0 0 0 0 0 0 0 0 127 0" result="hardAlpha"/>
<feOffset dy="4"/>
<feGaussianBlur stdDeviation="2"/>
<feComposite in2="hardAlpha" operator="out"/>
<feColorMatrix type="matrix" values="0 0 0 0 0 0 0 0 0 0 0 0 0 0 0 0 0 0 0.25 0"/>
<feBlend mode="normal" in2="BackgroundImageFix" result="effect1_dropShadow_276_10692"/>
<feBlend mode="normal" in="SourceGraphic" in2="effect1_dropShadow_276_10692" result="shape"/>
</filter>
<filter id="filter1_d_276_10692" x="242.211" y="39.9364" width="33.8047" height="32.2018" filterUnits="userSpaceOnUse" color-interpolation-filters="sRGB">
<feFlood flood-opacity="0" result="BackgroundImageFix"/>
<feColorMatrix in="SourceAlpha" type="matrix" values="0 0 0 0 0 0 0 0 0 0 0 0 0 0 0 0 0 0 127 0" result="hardAlpha"/>
<feOffset dy="4"/>
<feGaussianBlur stdDeviation="2"/>
<feComposite in2="hardAlpha" operator="out"/>
<feColorMatrix type="matrix" values="0 0 0 0 0 0 0 0 0 0 0 0 0 0 0 0 0 0 0.25 0"/>
<feBlend mode="normal" in2="BackgroundImageFix" result="effect1_dropShadow_276_10692"/>
<feBlend mode="normal" in="SourceGraphic" in2="effect1_dropShadow_276_10692" result="shape"/>
</filter>
<filter id="filter2_d_276_10692" x="241.848" y="387.033" width="32.8086" height="33.3793" filterUnits="userSpaceOnUse" color-interpolation-filters="sRGB">
<feFlood flood-opacity="0" result="BackgroundImageFix"/>
<feColorMatrix in="SourceAlpha" type="matrix" values="0 0 0 0 0 0 0 0 0 0 0 0 0 0 0 0 0 0 127 0" result="hardAlpha"/>
<feOffset dy="4"/>
<feGaussianBlur stdDeviation="2"/>
<feComposite in2="hardAlpha" operator="out"/>
<feColorMatrix type="matrix" values="0 0 0 0 0 0 0 0 0 0 0 0 0 0 0 0 0 0 0.25 0"/>
<feBlend mode="normal" in2="BackgroundImageFix" result="effect1_dropShadow_276_10692"/>
<feBlend mode="normal" in="SourceGraphic" in2="effect1_dropShadow_276_10692" result="shape"/>
</filter>
<filter id="filter3_d_276_10692" x="244.098" y="416.644" width="28.2969" height="24.9196" filterUnits="userSpaceOnUse" color-interpolation-filters="sRGB">
<feFlood flood-opacity="0" result="BackgroundImageFix"/>
<feColorMatrix in="SourceAlpha" type="matrix" values="0 0 0 0 0 0 0 0 0 0 0 0 0 0 0 0 0 0 127 0" result="hardAlpha"/>
<feOffset dy="4"/>
<feGaussianBlur stdDeviation="2"/>
<feComposite in2="hardAlpha" operator="out"/>
<feColorMatrix type="matrix" values="0 0 0 0 0 0 0 0 0 0 0 0 0 0 0 0 0 0 0.25 0"/>
<feBlend mode="normal" in2="BackgroundImageFix" result="effect1_dropShadow_276_10692"/>
<feBlend mode="normal" in="SourceGraphic" in2="effect1_dropShadow_276_10692" result="shape"/>
</filter>
<filter id="filter4_d_276_10692" x="253.125" y="14.8037" width="10.2539" height="33.3793" filterUnits="userSpaceOnUse" color-interpolation-filters="sRGB">
<feFlood flood-opacity="0" result="BackgroundImageFix"/>
<feColorMatrix in="SourceAlpha" type="matrix" values="0 0 0 0 0 0 0 0 0 0 0 0 0 0 0 0 0 0 127 0" result="hardAlpha"/>
<feOffset dy="4"/>
<feGaussianBlur stdDeviation="2"/>
<feComposite in2="hardAlpha" operator="out"/>
<feColorMatrix type="matrix" values="0 0 0 0 0 0 0 0 0 0 0 0 0 0 0 0 0 0 0.25 0"/>
<feBlend mode="normal" in2="BackgroundImageFix" result="effect1_dropShadow_276_10692"/>
<feBlend mode="normal" in="SourceGraphic" in2="effect1_dropShadow_276_10692" result="shape"/>
</filter>
<filter id="filter5_d_276_10692" x="235.082" y="442.024" width="46.3398" height="62.9884" filterUnits="userSpaceOnUse" color-interpolation-filters="sRGB">
<feFlood flood-opacity="0" result="BackgroundImageFix"/>
<feColorMatrix in="SourceAlpha" type="matrix" values="0 0 0 0 0 0 0 0 0 0 0 0 0 0 0 0 0 0 127 0" result="hardAlpha"/>
<feOffset dy="4"/>
<feGaussianBlur stdDeviation="2"/>
<feComposite in2="hardAlpha" operator="out"/>
<feColorMatrix type="matrix" values="0 0 0 0 0 0 0 0 0 0 0 0 0 0 0 0 0 0 0.25 0"/>
<feBlend mode="normal" in2="BackgroundImageFix" result="effect1_dropShadow_276_10692"/>
<feBlend mode="normal" in="SourceGraphic" in2="effect1_dropShadow_276_10692" result="shape"/>
</filter>
<filter id="filter6_d_276_10692" x="93" y="0" width="330.5" height="22.8046" filterUnits="userSpaceOnUse" color-interpolation-filters="sRGB">
<feFlood flood-opacity="0" result="BackgroundImageFix"/>
<feColorMatrix in="SourceAlpha" type="matrix" values="0 0 0 0 0 0 0 0 0 0 0 0 0 0 0 0 0 0 127 0" result="hardAlpha"/>
<feOffset dy="4"/>
<feGaussianBlur stdDeviation="2"/>
<feComposite in2="hardAlpha" operator="out"/>
<feColorMatrix type="matrix" values="0 0 0 0 0 0 0 0 0 0 0 0 0 0 0 0 0 0 0.25 0"/>
<feBlend mode="normal" in2="BackgroundImageFix" result="effect1_dropShadow_276_10692"/>
<feBlend mode="normal" in="SourceGraphic" in2="effect1_dropShadow_276_10692" result="shape"/>
</filter>
<linearGradient id="paint0_linear_276_10692" x1="260.605" y1="38.743" x2="260.605" y2="548.743" gradientUnits="userSpaceOnUse">
<stop stop-color="#CC9640"/>
<stop offset="0.546875" stop-color="#FFC76F"/>
<stop offset="1" stop-color="#A4752A"/>
</linearGradient>
<linearGradient id="paint1_linear_276_10692" x1="258.767" y1="186.335" x2="258.767" y2="271.091" gradientUnits="userSpaceOnUse">
<stop stop-color="#FC003C"/>
<stop offset="0.4375" stop-color="#FFC76B"/>
<stop offset="0.765625" stop-color="#745017"/>
<stop offset="1" stop-color="#A86C0A"/>
</linearGradient>
<linearGradient id="paint2_linear_276_10692" x1="246.557" y1="49.2582" x2="271.488" y2="55.5329" gradientUnits="userSpaceOnUse">
<stop stop-color="#967425"/>
<stop offset="0.505208" stop-color="#FFDA86"/>
<stop offset="1" stop-color="#AF872A"/>
</linearGradient>
<linearGradient id="paint3_linear_276_10692" x1="258.252" y1="387.033" x2="258.252" y2="412.412" gradientUnits="userSpaceOnUse">
<stop stop-color="#967425"/>
<stop offset="0.505208" stop-color="#FFDA86"/>
<stop offset="1" stop-color="#AF872A"/>
</linearGradient>
<linearGradient id="paint4_linear_276_10692" x1="258.246" y1="416.644" x2="258.246" y2="433.564" gradientUnits="userSpaceOnUse">
<stop stop-color="#967425"/>
<stop offset="0.505208" stop-color="#FFDA86"/>
<stop offset="1" stop-color="#AF872A"/>
</linearGradient>
<linearGradient id="paint5_linear_276_10692" x1="258.253" y1="14.8037" x2="258.253" y2="40.183" gradientUnits="userSpaceOnUse">
<stop stop-color="#967425"/>
<stop offset="0.505208" stop-color="#FFDA86"/>
<stop offset="1" stop-color="#AF872A"/>
</linearGradient>
<linearGradient id="paint6_linear_276_10692" x1="258.252" y1="442.024" x2="258.252" y2="497.013" gradientUnits="userSpaceOnUse">
<stop stop-color="#967425"/>
<stop offset="0.505208" stop-color="#FFDA86"/>
<stop offset="1" stop-color="#AF872A"/>
</linearGradient>
<linearGradient id="paint7_linear_276_10692" x1="259" y1="83" x2="259" y2="369" gradientUnits="userSpaceOnUse">
<stop stop-color="#985C02"/>
<stop offset="0.494792" stop-color="#FFDB88"/>
<stop offset="1" stop-color="#7D5803"/>
</linearGradient>
</defs>
</svg>
