<svg width="262" height="262" viewBox="0 0 262 262" fill="none" xmlns="http://www.w3.org/2000/svg">
<g filter="url(#filter0_d_283_10256)">
<path d="M179.102 96.3798L64.887 96.3828L64.89 165.444L179.102 165.441L179.102 96.3798ZM126.056 104.266C126.483 104.693 126.774 105.238 126.892 105.831C127.01 106.424 126.949 107.038 126.717 107.596C126.486 108.155 126.094 108.632 125.591 108.967C125.088 109.302 124.497 109.481 123.892 109.48C123.288 109.479 122.697 109.299 122.195 108.962C121.693 108.625 121.302 108.147 121.072 107.588C120.842 107.029 120.783 106.415 120.902 105.822C121.022 105.23 121.314 104.686 121.743 104.26C122.026 103.976 122.362 103.752 122.733 103.599C123.103 103.446 123.5 103.367 123.901 103.368C124.301 103.368 124.698 103.448 125.068 103.602C125.438 103.756 125.773 103.982 126.056 104.266ZM71.2391 107.685C70.8119 107.258 70.521 106.714 70.4032 106.121C70.2853 105.529 70.3457 104.915 70.5769 104.356C70.808 103.798 71.1995 103.321 71.7017 102.986C72.204 102.65 72.7945 102.471 73.3986 102.471C74.0026 102.471 74.5931 102.65 75.0954 102.986C75.5977 103.322 75.9892 103.799 76.2204 104.357C76.4516 104.915 76.5121 105.529 76.3943 106.121C76.2765 106.714 75.9856 107.258 75.5585 107.685C74.983 108.245 74.2104 108.555 73.4078 108.549C72.6051 108.544 71.837 108.222 71.2694 107.655L71.2391 107.685ZM72.1634 158.158C71.7348 157.732 71.4423 157.188 71.3229 156.596C71.2035 156.003 71.2626 155.389 71.4927 154.83C71.7228 154.271 72.1136 153.793 72.6155 153.456C73.1175 153.12 73.7081 152.939 74.3125 152.939C74.9169 152.938 75.5081 153.116 76.011 153.452C76.5139 153.787 76.9061 154.264 77.1378 154.822C77.3695 155.38 77.4304 155.995 77.3128 156.588C77.1951 157.181 76.9041 157.725 76.4767 158.153C75.9024 158.711 75.1315 159.022 74.3303 159.017C73.5292 159.012 72.7618 158.693 72.1938 158.128L72.1634 158.158ZM80.1163 150.206C76.3631 146.452 73.8066 141.671 72.7699 136.466C71.7332 131.26 72.2628 125.864 74.2917 120.96C76.3207 116.056 79.7579 111.863 84.1691 108.912C88.5803 105.961 93.7674 104.384 99.075 104.38C104.383 104.376 109.572 105.945 113.988 108.89C118.405 111.834 121.849 116.021 123.886 120.923C125.923 125.824 126.462 131.219 125.434 136.426C124.406 141.633 121.858 146.418 118.111 150.177C113.074 155.207 106.246 158.033 99.1273 158.034C92.0082 158.035 85.1795 155.211 80.1406 150.181L80.1163 150.206ZM121.812 158.258C121.385 157.831 121.094 157.286 120.976 156.694C120.858 156.101 120.918 155.487 121.15 154.929C121.381 154.371 121.772 153.894 122.274 153.559C122.777 153.223 123.367 153.044 123.971 153.044C124.575 153.044 125.166 153.223 125.668 153.559C126.17 153.894 126.562 154.371 126.793 154.929C127.024 155.488 127.085 156.102 126.967 156.694C126.849 157.287 126.558 157.831 126.131 158.258C125.558 158.815 124.789 159.126 123.989 159.122C123.189 159.119 122.423 158.802 121.854 158.24L121.812 158.258Z" fill="url(#paint0_linear_283_10256)"/>
<path d="M119.977 102.49C119.199 103.265 118.668 104.252 118.451 105.329C118.234 106.406 118.342 107.524 118.761 108.54C119.179 109.557 119.89 110.426 120.803 111.038L122.195 108.962L120.803 111.038C121.715 111.65 122.789 111.978 123.889 111.98L123.892 109.48L123.889 111.98C124.988 111.981 126.063 111.657 126.977 111.047C127.892 110.437 128.605 109.57 129.026 108.555C129.448 107.539 129.558 106.422 129.344 105.344L126.892 105.831L129.344 105.344C129.13 104.267 128.602 103.278 127.826 102.501M119.977 102.49C120.492 101.975 121.104 101.567 121.778 101.288L122.733 103.599L121.778 101.288C122.452 101.01 123.175 100.867 123.904 100.868L123.901 103.368L123.904 100.868C124.634 100.869 125.356 101.014 126.029 101.294C126.702 101.575 127.312 101.985 127.826 102.501M119.977 102.49C119.976 102.491 119.976 102.491 119.975 102.492L121.743 104.26L119.98 102.487C119.979 102.488 119.978 102.489 119.977 102.49ZM127.826 102.501C127.827 102.501 127.828 102.502 127.829 102.503L126.056 104.266L127.824 102.498C127.825 102.499 127.825 102.5 127.826 102.501ZM71.2391 111.221L71.6896 110.77C72.2335 110.949 72.8068 111.045 73.39 111.049C74.8496 111.06 76.2547 110.495 77.3012 109.478L77.3138 109.465L77.3262 109.453C78.103 108.676 78.632 107.686 78.8463 106.609C79.0605 105.532 78.9505 104.415 78.5301 103.4C78.1096 102.385 77.3977 101.518 76.4844 100.907C75.5711 100.297 74.4972 99.9712 73.3987 99.9712C72.3001 99.9711 71.2262 100.297 70.3128 100.907C69.3994 101.517 68.6875 102.385 68.2672 103.4C67.8468 104.415 67.7369 105.532 67.9512 106.609C68.1656 107.686 68.6946 108.676 69.4713 109.453L71.2391 111.221ZM70.4006 159.931L72.1684 161.689L72.617 161.24C73.1607 161.419 73.7334 161.514 74.316 161.517L74.3303 159.017L74.3161 161.517C75.773 161.525 77.1749 160.961 78.2195 159.945L78.2321 159.933L78.2445 159.92C79.0218 159.143 79.5509 158.153 79.7649 157.075L77.3128 156.588L79.7649 157.075C79.9789 155.996 79.8682 154.879 79.4468 153.864C79.0254 152.849 78.3123 151.981 77.3978 151.372C76.4832 150.762 75.4083 150.437 74.3091 150.439C73.2099 150.44 72.1359 150.768 71.223 151.38C70.3101 151.992 69.5994 152.862 69.1809 153.878C68.7625 154.895 68.655 156.012 68.8721 157.09C69.0893 158.167 69.6212 159.156 70.4006 159.931ZM78.3485 151.973L80.1163 153.741L80.2174 153.64C85.4914 158.076 92.1831 160.535 99.1276 160.534C106.909 160.533 114.372 157.444 119.878 151.946L119.882 151.942C123.977 147.833 126.763 142.602 127.887 136.91C129.01 131.218 128.422 125.321 126.195 119.963C123.968 114.606 120.203 110.028 115.375 106.809C110.548 103.591 104.875 101.875 99.0731 101.88C93.2713 101.884 87.601 103.608 82.779 106.834C77.9569 110.06 74.1995 114.643 71.9816 120.004C69.7637 125.365 69.1848 131.264 70.3181 136.954C71.4513 142.644 74.2459 147.871 78.3485 151.973ZM121.241 161.223L121.592 161.072C122.33 161.428 123.144 161.619 123.978 161.622C125.433 161.629 126.831 161.064 127.874 160.05L127.887 160.038L127.899 160.026C128.676 159.249 129.205 158.259 129.419 157.182C129.633 156.104 129.523 154.988 129.103 153.973C128.682 152.958 127.97 152.09 127.057 151.48C126.144 150.87 125.07 150.544 123.971 150.544C122.873 150.544 121.799 150.87 120.886 151.48L122.274 153.559L120.886 151.48C119.972 152.09 119.26 152.958 118.84 153.973C118.42 154.987 118.31 156.104 118.524 157.182C118.738 158.259 119.267 159.249 120.044 160.026L121.241 161.223ZM67.3871 98.8827L176.602 98.8799L176.602 162.941L67.3899 162.944L67.3871 98.8827Z" stroke="url(#paint1_linear_283_10256)" stroke-width="5"/>
</g>
<g filter="url(#filter1_d_283_10256)">
<path d="M212.466 81.5849C192.041 62.873 49.3209 81.5892 49.3209 81.5892L49.3252 180.236C49.3252 180.236 196.125 190.518 212.466 180.232C228.806 169.945 232.89 100.297 212.466 81.5849ZM136.695 92.8495C137.305 93.46 137.721 94.2379 137.889 95.0848C138.057 95.9316 137.97 96.8093 137.639 97.6067C137.308 98.4041 136.748 99.0854 136.03 99.5643C135.312 100.043 134.467 100.298 133.604 100.297C132.741 100.296 131.897 100.038 131.18 99.5573C130.463 99.0763 129.905 98.3934 129.576 97.595C129.247 96.7967 129.163 95.9187 129.333 95.0724C129.504 94.226 129.921 93.4493 130.534 92.8405C130.938 92.4358 131.419 92.115 131.948 91.8964C132.477 91.6777 133.043 91.5656 133.616 91.5664C134.188 91.5673 134.755 91.681 135.283 91.9012C135.811 92.1214 136.291 92.4436 136.695 92.8495ZM58.3943 97.7333C57.7842 97.1231 57.3686 96.3457 57.2003 95.4994C57.0319 94.6532 57.1182 93.776 57.4484 92.9788C57.7786 92.1816 58.3377 91.5003 59.0551 91.021C59.7726 90.5416 60.616 90.2858 61.4789 90.2858C62.3417 90.2859 63.1852 90.5418 63.9027 91.0212C64.6202 91.5006 65.1794 92.182 65.5096 92.9792C65.8398 93.7763 65.9263 94.6535 65.758 95.4998C65.5897 96.3461 65.1742 97.1234 64.5641 97.7335C63.7421 98.5327 62.6385 98.9762 61.492 98.9681C60.3456 98.9599 59.2483 98.5008 58.4377 97.6899L58.3943 97.7333ZM59.7146 169.829C59.1024 169.221 58.6845 168.444 58.514 167.598C58.3434 166.751 58.4278 165.873 58.7565 165.075C59.0852 164.276 59.6434 163.594 60.3604 163.113C61.0774 162.632 61.921 162.375 62.7844 162.373C63.6477 162.372 64.4921 162.627 65.2105 163.106C65.9289 163.585 66.489 164.266 66.82 165.064C67.151 165.861 67.238 166.739 67.0699 167.586C66.9018 168.433 66.4862 169.211 65.8757 169.821C65.0553 170.619 63.9542 171.062 62.8098 171.056C61.6654 171.049 60.5694 170.593 59.7579 169.786L59.7146 169.829ZM71.0745 158.47C65.7134 153.109 62.0618 146.279 60.5809 138.843C59.1001 131.408 59.8565 123.701 62.7547 116.695C65.6528 109.69 70.5626 103.701 76.8635 99.4859C83.1644 95.2704 90.5737 93.0175 98.155 93.0118C105.736 93.0061 113.149 95.2478 119.457 99.4538C125.765 103.66 130.685 109.641 133.595 116.642C136.505 123.643 137.275 131.349 135.806 138.787C134.338 146.224 130.698 153.06 125.346 158.429C118.151 165.614 108.399 169.651 98.2298 169.652C88.0609 169.653 78.3068 165.619 71.1091 158.435L71.0745 158.47ZM130.632 169.971C130.022 169.361 129.607 168.584 129.438 167.737C129.27 166.891 129.356 166.014 129.686 165.217C130.017 164.42 130.576 163.738 131.293 163.259C132.01 162.78 132.854 162.524 133.717 162.524C134.58 162.524 135.423 162.78 136.141 163.259C136.858 163.739 137.417 164.42 137.748 165.217C138.078 166.014 138.164 166.891 137.996 167.738C137.828 168.584 137.412 169.361 136.802 169.971C135.983 170.768 134.885 171.211 133.742 171.206C132.6 171.201 131.505 170.748 130.693 169.945L130.632 169.971Z" fill="url(#paint2_linear_283_10256)"/>
<path d="M138.465 91.0842C137.83 90.4463 137.075 89.9398 136.245 89.5935C135.413 89.2469 134.521 89.0677 133.619 89.0664C132.718 89.0651 131.826 89.2417 130.993 89.586L130.993 89.586C130.161 89.9299 129.404 90.4345 128.768 91.0709M138.465 91.0842C139.424 92.0442 140.077 93.2669 140.341 94.5978C140.606 95.93 140.469 97.3106 139.948 98.565C139.428 99.8194 138.547 100.891 137.417 101.644C136.287 102.398 134.958 102.799 133.6 102.797C132.242 102.795 130.915 102.39 129.787 101.633L131.18 99.5573L129.787 101.633C128.659 100.877 127.781 99.8028 127.264 98.547C126.747 97.2911 126.614 95.9101 126.882 94.5787C127.15 93.2487 127.806 92.0281 128.768 91.0709M138.465 91.0842C138.466 91.085 138.467 91.0859 138.467 91.0867L136.695 92.8495L138.462 91.0817C138.463 91.0825 138.464 91.0834 138.465 91.0842ZM128.768 91.0709C128.767 91.0715 128.766 91.0721 128.766 91.0728L130.534 92.8405L128.771 91.0678C128.77 91.0689 128.769 91.0699 128.768 91.0709ZM56.6266 99.501L58.3943 101.269L58.7709 100.892C59.6158 101.262 60.5345 101.461 61.4743 101.468C63.2777 101.481 65.0138 100.783 66.3069 99.5259L66.3194 99.5137L66.3319 99.5013C67.2916 98.5415 67.9452 97.3187 68.2099 95.9874C68.4747 94.6562 68.3387 93.2764 67.8193 92.0224C67.2998 90.7684 66.4202 89.6966 65.2917 88.9425C64.1631 88.1884 62.8363 87.7859 61.479 87.7858C60.1217 87.7858 58.7948 88.1882 57.6663 88.9423C56.5377 89.6963 55.6581 90.7681 55.1387 92.0222L57.3978 92.9578L55.1387 92.0222C54.6193 93.2762 54.4835 94.6561 54.7483 95.9873C55.0132 97.3185 55.6668 98.5413 56.6266 99.501ZM57.9518 171.602L59.7196 173.36L60.0946 172.985C60.9391 173.353 61.857 173.55 62.7955 173.556L62.8098 171.056L62.7955 173.556C64.5957 173.566 66.3278 172.868 67.6185 171.613L67.6311 171.601L67.6435 171.589C68.6039 170.628 69.2576 169.405 69.522 168.073C69.7865 166.74 69.6497 165.36 69.129 164.105C68.6084 162.851 67.7273 161.779 66.5972 161.026C65.4672 160.273 64.1391 159.872 62.781 159.873C61.4228 159.875 60.0958 160.28 58.9679 161.037C57.84 161.793 56.9618 162.867 56.4448 164.123C55.9277 165.379 55.795 166.76 56.0632 168.091L58.385 167.624L56.0632 168.091C56.3315 169.423 56.9888 170.645 57.9518 171.602ZM69.3067 160.237L71.0745 162.005L71.1648 161.915C78.615 168.494 88.2344 172.153 98.2301 172.152C109.061 172.151 119.449 167.851 127.113 160.198L127.116 160.194C132.817 154.474 136.695 147.193 138.259 139.271C139.823 131.348 139.003 123.14 135.904 115.682C132.804 108.225 127.564 101.854 120.844 97.3737C114.125 92.8936 106.229 90.5057 98.1532 90.5118C90.0776 90.5179 82.1852 92.9177 75.4734 97.408C68.7616 101.898 63.5317 108.278 60.4445 115.74C57.3574 123.202 56.5517 131.411 58.1291 139.332C59.7065 147.252 63.5962 154.527 69.3067 160.237ZM130.062 172.936L130.364 172.806C131.382 173.386 132.54 173.701 133.732 173.706C135.528 173.714 137.257 173.016 138.545 171.764L138.557 171.752L138.57 171.739C139.53 170.779 140.183 169.557 140.448 168.225C140.713 166.894 140.577 165.514 140.057 164.26C139.538 163.006 138.658 161.935 137.53 161.18C136.401 160.426 135.074 160.024 133.717 160.024C132.36 160.024 131.033 160.426 129.904 161.18C128.776 161.934 127.896 163.006 127.377 164.26C126.857 165.514 126.721 166.894 126.986 168.225C127.251 169.556 127.905 170.779 128.865 171.739L130.062 172.936ZM51.8251 177.9L51.821 83.7911C52.8263 83.6652 54.1624 83.5001 55.7925 83.3036C59.7253 82.8295 65.3687 82.1728 72.2054 81.4431C85.8818 79.9832 104.32 78.2324 123.387 77.0654C142.468 75.8976 162.112 75.3188 178.223 76.1879C186.283 76.6226 193.385 77.4164 199.058 78.6552C204.83 79.9157 208.737 81.5596 210.777 83.4283C215.34 87.6083 218.759 94.8915 220.949 104.029C223.122 113.094 224.005 123.653 223.753 134.007C223.502 144.364 222.119 154.402 219.828 162.423C218.682 166.435 217.327 169.879 215.813 172.587C214.285 175.321 212.686 177.139 211.134 178.116C210.45 178.547 209.224 179.033 207.338 179.501C205.495 179.958 203.185 180.36 200.452 180.705C194.987 181.394 188.002 181.833 180.006 182.073C164.024 182.553 144.204 182.235 124.851 181.593C105.506 180.951 86.6668 179.989 72.6611 179.186C65.659 178.785 59.8668 178.424 55.8259 178.163C54.1952 178.058 52.8497 177.969 51.8251 177.9Z" stroke="url(#paint3_linear_283_10256)" stroke-width="5"/>
</g>
<defs>
<filter id="filter0_d_283_10256" x="60.8867" y="96.3799" width="122.215" height="77.0642" filterUnits="userSpaceOnUse" color-interpolation-filters="sRGB">
<feFlood flood-opacity="0" result="BackgroundImageFix"/>
<feColorMatrix in="SourceAlpha" type="matrix" values="0 0 0 0 0 0 0 0 0 0 0 0 0 0 0 0 0 0 127 0" result="hardAlpha"/>
<feOffset dy="4"/>
<feGaussianBlur stdDeviation="2"/>
<feComposite in2="hardAlpha" operator="out"/>
<feColorMatrix type="matrix" values="0 0 0 0 0 0 0 0 0 0 0 0 0 0 0 0 0 0 0.25 0"/>
<feBlend mode="normal" in2="BackgroundImageFix" result="effect1_dropShadow_283_10256"/>
<feBlend mode="normal" in="SourceGraphic" in2="effect1_dropShadow_283_10256" result="shape"/>
</filter>
<filter id="filter1_d_283_10256" x="45.3203" y="73.2695" width="184.977" height="130.535" filterUnits="userSpaceOnUse" color-interpolation-filters="sRGB">
<feFlood flood-opacity="0" result="BackgroundImageFix"/>
<feColorMatrix in="SourceAlpha" type="matrix" values="0 0 0 0 0 0 0 0 0 0 0 0 0 0 0 0 0 0 127 0" result="hardAlpha"/>
<feOffset dy="15"/>
<feGaussianBlur stdDeviation="2"/>
<feComposite in2="hardAlpha" operator="out"/>
<feColorMatrix type="matrix" values="0 0 0 0 0 0 0 0 0 0 0 0 0 0 0 0 0 0 0.6 0"/>
<feBlend mode="normal" in2="BackgroundImageFix" result="effect1_dropShadow_283_10256"/>
<feBlend mode="normal" in="SourceGraphic" in2="effect1_dropShadow_283_10256" result="shape"/>
</filter>
<linearGradient id="paint0_linear_283_10256" x1="133.948" y1="96.3797" x2="64.8901" y2="165.438" gradientUnits="userSpaceOnUse">
<stop offset="0.179213" stop-color="#B8881B"/>
<stop offset="0.494792" stop-color="#FFBD50"/>
<stop offset="0.883158" stop-color="#956311"/>
</linearGradient>
<linearGradient id="paint1_linear_283_10256" x1="167.814" y1="85.092" x2="76.1762" y2="176.73" gradientUnits="userSpaceOnUse">
<stop stop-color="#641818"/>
<stop offset="1" stop-opacity="0"/>
</linearGradient>
<linearGradient id="paint2_linear_283_10256" x1="147.974" y1="81.586" x2="49.3309" y2="180.229" gradientUnits="userSpaceOnUse">
<stop offset="0.179213" stop-color="#B8881B"/>
<stop offset="0.494792" stop-color="#FFBD50"/>
<stop offset="0.883158" stop-color="#956311"/>
</linearGradient>
<linearGradient id="paint3_linear_283_10256" x1="196.455" y1="65.5447" x2="65.5444" y2="196.455" gradientUnits="userSpaceOnUse">
<stop stop-color="#641818"/>
<stop offset="1" stop-opacity="0"/>
</linearGradient>
</defs>
</svg>
