<svg width="54" height="54" viewBox="0 0 54 54" fill="none" xmlns="http://www.w3.org/2000/svg">
<path d="M35.3362 33.1555C35.4057 33.2041 35.4739 33.2584 35.535 33.3223L43.4121 41.1968C43.942 41.7266 43.9503 42.6151 43.408 43.1574C43.2797 43.2871 43.1271 43.3901 42.959 43.4606C42.7908 43.531 42.6103 43.5676 42.428 43.5681C42.2456 43.5686 42.0649 43.5331 41.8964 43.4636C41.7278 43.394 41.5746 43.2919 41.4456 43.163L33.5686 35.2871C33.5076 35.2262 33.4527 35.1596 33.4044 35.0883C30.9196 37.1321 27.8006 38.2471 24.5831 38.242C16.9021 38.242 10.6758 32.0166 10.6758 24.3369C10.6758 16.6571 16.9021 10.4318 24.5831 10.4318C32.2641 10.4318 38.4903 16.6571 38.4903 24.3369C38.4903 27.6838 37.3082 30.7555 35.3362 33.1555ZM24.5831 35.4609C27.5338 35.4609 30.3637 34.2889 32.4502 32.2028C34.5367 30.1166 35.7089 27.2871 35.7089 24.3369C35.7089 21.3866 34.5367 18.5571 32.4502 16.4709C30.3637 14.3848 27.5338 13.2128 24.5831 13.2128C21.6323 13.2128 18.8024 14.3848 16.7159 16.4709C14.6294 18.5571 13.4572 21.3866 13.4572 24.3369C13.4572 27.2871 14.6294 30.1166 16.7159 32.2028C18.8024 34.2889 21.6323 35.4609 24.5831 35.4609Z" fill="url(#paint0_linear_454_9214)"/>
<defs>
<linearGradient id="paint0_linear_454_9214" x1="13.3314" y1="43.6359" x2="42.9023" y2="17.3852" gradientUnits="userSpaceOnUse">
<stop stop-color="#C7A572"/>
<stop offset="0.714613" stop-color="#936D35"/>
</linearGradient>
</defs>
</svg>
