<svg width="40" height="40" viewBox="0 0 40 40" fill="none" xmlns="http://www.w3.org/2000/svg">
<path d="M23.8216 19.9994L38.7396 5.08392C39.7952 4.02977 39.7952 2.31849 38.741 1.26302C37.6855 0.207507 35.9742 0.207507 34.9187 1.26302L20.0007 16.1785L5.08524 1.26039C4.02973 0.204871 2.31986 0.204871 1.26434 1.26039C0.208875 2.31454 0.208874 4.02577 1.26303 5.08129L16.1798 19.9994L1.26039 34.9161C0.20487 35.9703 0.20487 37.6815 1.26039 38.7369C1.78812 39.2648 2.47948 39.5286 3.17079 39.5286C3.86215 39.5286 4.5535 39.2648 5.08124 38.7369L19.9993 23.8215L34.9161 38.7396C35.4439 39.2674 36.1352 39.5312 36.8266 39.5312C37.5179 39.5312 38.2092 39.2674 38.737 38.7396C39.7925 37.6854 39.7925 35.9742 38.7383 34.9187L23.8216 19.9994Z" fill="url(#paint0_linear_298_13466)"/>
<defs>
<linearGradient id="paint0_linear_298_13466" x1="20.0001" y1="0.46875" x2="20.0001" y2="39.5312" gradientUnits="userSpaceOnUse">
<stop stop-color="#936D35"/>
<stop offset="1" stop-color="#B3905B"/>
</linearGradient>
</defs>
</svg>
