<svg width="162" height="56" viewBox="0 0 162 56" fill="none" xmlns="http://www.w3.org/2000/svg">
<path d="M137.144 6.29456H24.1458C18.2663 6.29456 13.5 11.2488 13.5 17.3601V40.0584C13.5 46.1697 18.2663 51.124 24.1458 51.124H137.144C143.024 51.124 147.79 46.1697 147.79 40.0584V17.3601C147.79 11.2488 143.024 6.29456 137.144 6.29456Z" stroke="#591900" stroke-width="8.69956" stroke-linecap="round" stroke-linejoin="round"/>
<path d="M137.144 4.91162H24.1458C18.2663 4.91162 13.5 9.86584 13.5 15.9772V38.6754C13.5 44.7868 18.2663 49.741 24.1458 49.741H137.144C143.024 49.741 147.79 44.7868 147.79 38.6754V15.9772C147.79 9.86584 143.024 4.91162 137.144 4.91162Z" stroke="#591900" stroke-width="8.69956" stroke-linecap="round" stroke-linejoin="round"/>
<path d="M137.144 4.91162H24.1458C18.2663 4.91162 13.5 9.86584 13.5 15.9772V38.6754C13.5 44.7868 18.2663 49.741 24.1458 49.741H137.144C143.024 49.741 147.79 44.7868 147.79 38.6754V15.9772C147.79 9.86584 143.024 4.91162 137.144 4.91162Z" stroke="url(#paint0_linear_77_757)" stroke-width="5.7997" stroke-linecap="round" stroke-linejoin="round"/>
<path d="M150.026 6.48816H11.6309V47.9841H150.026V6.48816Z" stroke="#591900" stroke-width="2.89985" stroke-linecap="round" stroke-linejoin="round"/>
<path d="M150.026 7.18018H11.6309V48.6761H150.026V7.18018Z" stroke="#591900" stroke-width="2.89985" stroke-linecap="round" stroke-linejoin="round"/>
<path d="M150.026 7.18018H11.6309V48.6761H150.026V7.18018Z" fill="#7C2A30"/>
<path style="mix-blend-mode:overlay" opacity="0.5" d="M150.026 7.18018H11.6309V48.6761H150.026V7.18018Z" fill="url(#paint1_radial_77_757)"/>
<path style="mix-blend-mode:overlay" d="M150.026 8.56335H11.6309V29.3113H150.026V8.56335Z" fill="url(#paint2_radial_77_757)"/>
<path style="mix-blend-mode:overlay" d="M134.723 27.9279H27.5996V29.3111H134.723V27.9279Z" fill="url(#paint3_linear_77_757)"/>
<g style="mix-blend-mode:overlay" opacity="0.3">
<path d="M90.8137 27.9279C90.9902 27.9279 91.1595 28.0008 91.2842 28.1305C91.409 28.2602 91.4791 28.436 91.4791 28.6195C91.4791 28.8029 91.409 28.9788 91.2842 29.1085C91.1595 29.2382 90.9902 29.3111 90.8137 29.3111H70.8529C70.6764 29.3111 70.5071 29.2382 70.3823 29.1085C70.2576 28.9788 70.1875 28.8029 70.1875 28.6195C70.1875 28.436 70.2576 28.2602 70.3823 28.1305C70.5071 28.0008 70.6764 27.9279 70.8529 27.9279H90.8137Z" fill="#FFC27A"/>
</g>
<g style="mix-blend-mode:overlay" opacity="0.5">
<g style="mix-blend-mode:overlay" opacity="0.5">
<path d="M80.8262 29.3109C81.9286 29.3109 82.8223 29.0013 82.8223 28.6193C82.8223 28.2374 81.9286 27.9277 80.8262 27.9277C79.7238 27.9277 78.8301 28.2374 78.8301 28.6193C78.8301 29.0013 79.7238 29.3109 80.8262 29.3109Z" fill="white"/>
</g>
</g>
<g style="mix-blend-mode:overlay">
<path style="mix-blend-mode:overlay" d="M128.07 8.56189H32.2578V9.94509H128.07V8.56189Z" fill="url(#paint4_linear_77_757)"/>
</g>
<path style="mix-blend-mode:overlay" opacity="0.5" d="M132.062 47.2927H29.5957V48.6759H132.062V47.2927Z" fill="url(#paint5_linear_77_757)"/>
<g style="mix-blend-mode:overlay">
<g style="mix-blend-mode:overlay">
<path d="M87.4856 9.26875C87.4856 9.64913 84.5847 9.96034 80.1666 9.96034C75.7486 9.96034 72.8477 9.61455 72.8477 9.26875C72.8477 8.92295 75.7686 8.57715 80.1666 8.57715C84.5647 8.57715 87.4856 8.88837 87.4856 9.26875Z" fill="#FFF296"/>
</g>
</g>
<g style="mix-blend-mode:overlay" opacity="0.5">
<g style="mix-blend-mode:overlay" opacity="0.5">
<path d="M80.192 9.93086C81.2941 9.90466 82.1808 9.57387 82.1724 9.19201C82.164 8.81015 81.2637 8.52183 80.1616 8.54803C79.0595 8.57422 78.1728 8.90502 78.1812 9.28688C78.1896 9.66874 79.0899 9.95706 80.192 9.93086Z" fill="#FFF296"/>
</g>
</g>
<path d="M135.489 10.3683H144.718C145.071 10.3683 145.409 10.5141 145.659 10.7735C145.908 11.0329 146.049 11.3847 146.049 11.7515V18.5223C146.004 19.4028 145.686 20.2446 145.144 20.9221L139.96 26.7523C139.716 27.0383 139.582 27.4074 139.582 27.7897C139.582 28.1721 139.716 28.5411 139.96 28.8271L145.17 34.8855C145.707 35.5709 146.02 36.4165 146.062 37.2992V45.8127C146.062 46.1796 145.922 46.5315 145.672 46.7909C145.423 47.0503 145.084 47.1959 144.731 47.1959H138.443C137.598 47.2409 136.79 47.5712 136.141 48.1366L130.772 53.3028C130.233 53.8215 130.393 54.2434 131.124 54.2434H147.759C149.097 53.7945 150.265 52.9161 151.093 51.7344C151.922 50.5527 152.369 49.1284 152.37 47.6663V44.0354C152.369 43.1826 152.479 42.3336 152.696 41.511V37.2992C152.741 36.4227 153.064 35.5863 153.614 34.9201L159.276 28.7925C159.521 28.525 159.658 28.1697 159.658 27.8001C159.658 27.4306 159.521 27.0751 159.276 26.8076L153.647 20.9152C153.084 20.2609 152.753 19.4265 152.709 18.55V15.1888C152.492 14.3663 152.383 13.5173 152.383 12.6645V10.4652C152.383 8.63092 151.682 6.87183 150.434 5.57483C149.186 4.27784 147.494 3.54917 145.729 3.54917H134.598L135.17 3.41089H130.087C129.355 3.41089 129.128 3.90188 129.588 4.48974L133.327 9.33093C133.89 9.95659 134.666 10.3289 135.489 10.3683V10.3683Z" stroke="#591900" stroke-width="2.89985" stroke-linecap="round" stroke-linejoin="round"/>
<path d="M135.489 8.98514H144.718C145.071 8.98514 145.409 9.13089 145.659 9.39029C145.908 9.64969 146.049 10.0015 146.049 10.3683V17.1391C146.004 18.0196 145.686 18.8614 145.144 19.5389L139.96 25.3691C139.716 25.6551 139.582 26.0242 139.582 26.4065C139.582 26.7889 139.716 27.158 139.96 27.4439L145.17 33.5023C145.707 34.1877 146.02 35.0333 146.062 35.916V44.4296C146.062 44.7964 145.922 45.1483 145.672 45.4077C145.423 45.6671 145.084 45.8127 144.731 45.8127H138.443C137.598 45.8577 136.79 46.188 136.141 46.7534L130.772 51.9196C130.233 52.4383 130.393 52.8602 131.124 52.8602H147.759C149.097 52.4113 150.265 51.5329 151.093 50.3512C151.922 49.1695 152.369 47.7452 152.37 46.2831V42.6522C152.369 41.7994 152.479 40.9504 152.696 40.1278V35.916C152.741 35.0395 153.064 34.2031 153.614 33.5369L159.276 27.4093C159.521 27.1418 159.658 26.7865 159.658 26.4169C159.658 26.0474 159.521 25.692 159.276 25.4244L153.647 19.532C153.084 18.8777 152.753 18.0433 152.709 17.1668V13.8056C152.492 12.9831 152.383 12.1341 152.383 11.2813V9.08198C152.383 7.24775 151.682 5.48865 150.434 4.19166C149.186 2.89466 147.494 2.166 145.729 2.166H134.598L135.17 2.02771H130.087C129.355 2.02771 129.128 2.5187 129.588 3.10656L133.327 7.94775C133.89 8.57342 134.666 8.94567 135.489 8.98514V8.98514Z" stroke="#591900" stroke-width="2.89985" stroke-linecap="round" stroke-linejoin="round"/>
<path d="M135.489 8.98514H144.718C145.071 8.98514 145.409 9.13089 145.659 9.39029C145.908 9.64969 146.049 10.0015 146.049 10.3683V17.1391C146.004 18.0196 145.686 18.8614 145.144 19.5389L139.96 25.3691C139.716 25.6551 139.582 26.0242 139.582 26.4065C139.582 26.7889 139.716 27.158 139.96 27.4439L145.17 33.5023C145.707 34.1877 146.02 35.0333 146.062 35.916V44.4296C146.062 44.7964 145.922 45.1483 145.672 45.4077C145.423 45.6671 145.084 45.8127 144.731 45.8127H138.443C137.598 45.8577 136.79 46.188 136.141 46.7534L130.772 51.9196C130.233 52.4383 130.393 52.8602 131.124 52.8602H147.759C149.097 52.4113 150.265 51.5329 151.093 50.3512C151.922 49.1695 152.369 47.7453 152.37 46.2831V42.6522C152.369 41.7994 152.479 40.9504 152.696 40.1278V35.916C152.741 35.0395 153.064 34.2031 153.614 33.5369L159.276 27.4093C159.521 27.1418 159.658 26.7865 159.658 26.4169C159.658 26.0474 159.521 25.692 159.276 25.4244L153.647 19.532C153.084 18.8777 152.753 18.0433 152.709 17.1668V13.8056C152.492 12.9831 152.383 12.1341 152.383 11.2813V9.08198C152.383 7.24775 151.682 5.48865 150.434 4.19166C149.186 2.89466 147.494 2.166 145.729 2.166H134.598L135.17 2.02771H130.087C129.355 2.02771 129.128 2.5187 129.588 3.10656L133.327 7.94775C133.89 8.57341 134.666 8.94567 135.489 8.98514Z" fill="url(#paint6_linear_77_757)"/>
<g style="mix-blend-mode:darken">
<g style="mix-blend-mode:darken">
<path d="M145.75 9.25539L147.241 7.87219H132.756L134.599 9.25539H145.75Z" fill="#B1650C"/>
</g>
<g style="mix-blend-mode:darken" opacity="0.5">
<path d="M145.75 9.25539L147.241 7.87219H132.756L134.599 9.25539H145.75Z" fill="#633103"/>
</g>
</g>
<g style="mix-blend-mode:darken">
<path d="M145.37 8.9644L147.366 7.94775V18.1696L154.572 26.0745L147.366 34.5743V47.2167L146.036 45.9096V34.844L138.391 26.0261L148.804 26.365L152.177 23.0868L147.366 18.1696L145.37 18.2457V8.9644Z" fill="#B1650C"/>
</g>
<path d="M147.245 7.87165L150.678 4.30307C150.678 4.30307 148.409 2.33887 146.353 2.33887H128.781L133.286 7.87165H147.245Z" fill="#F2C671"/>
<g style="mix-blend-mode:overlay" opacity="0.4">
<g style="mix-blend-mode:overlay" opacity="0.4">
<path d="M158.88 26.5446C159.612 26.5446 159.791 26.1021 159.279 25.5557L153.291 19.1584C153.172 19.0285 153.029 18.9249 152.871 18.8542C152.712 18.7835 152.542 18.7471 152.369 18.7471C152.197 18.7471 152.026 18.7835 151.868 18.8542C151.709 18.9249 151.566 19.0285 151.448 19.1584L150.782 19.9053C150.663 20.0344 150.52 20.1371 150.362 20.2072C150.203 20.2774 150.033 20.3136 149.861 20.3136C149.689 20.3136 149.518 20.2774 149.36 20.2072C149.202 20.1371 149.058 20.0344 148.939 19.9053L147.515 18.4114C147.397 18.284 147.254 18.184 147.097 18.1178C146.939 18.0516 146.769 18.0207 146.599 18.0272C146.429 18.0337 146.262 18.0775 146.109 18.1556C145.956 18.2338 145.821 18.3445 145.712 18.4807L139.963 25.445C139.484 26.026 139.697 26.4963 140.429 26.4963L158.88 26.5446Z" fill="white"/>
</g>
</g>
<g style="mix-blend-mode:darken" opacity="0.5">
<g style="mix-blend-mode:darken" opacity="0.5">
<path d="M138.866 27.2365C138.619 26.9529 138.726 26.7178 139.092 26.7178H159.538C159.904 26.7178 160.017 26.9668 159.791 27.2642L153.344 35.7639C153.293 35.8334 153.228 35.8904 153.154 35.9309C153.08 35.9715 152.998 35.9945 152.914 35.9985C152.83 36.0024 152.747 35.9872 152.669 35.9538C152.592 35.9204 152.522 35.8698 152.466 35.8054L149.664 32.7831C149.54 32.6543 149.371 32.582 149.195 32.582C149.02 32.582 148.851 32.6543 148.726 32.7831L146.457 35.1346C146.399 35.1992 146.328 35.2508 146.25 35.286C146.171 35.3213 146.087 35.3395 146.002 35.3395C145.916 35.3395 145.832 35.3213 145.753 35.286C145.675 35.2508 145.604 35.1992 145.546 35.1346L138.866 27.2365Z" fill="#633103"/>
</g>
</g>
<g style="mix-blend-mode:overlay" opacity="0.5">
<g style="mix-blend-mode:overlay" opacity="0.5">
<path d="M145.914 7.87217C146.755 7.82616 147.556 7.48207 148.183 6.89707L149.687 5.33405C150.205 4.79461 150.106 4.6424 149.46 5.01586L147.584 6.08787C146.804 6.49729 145.962 6.76401 145.095 6.8763L136.073 7.74773C135.348 7.81688 135.348 7.87217 136.073 7.87217H145.914Z" fill="white"/>
</g>
</g>
<g style="mix-blend-mode:overlay" opacity="0.5">
<g style="mix-blend-mode:overlay" opacity="0.5">
<path d="M153.246 26.5442C153.978 26.5442 154.171 26.0878 153.678 25.5276L147.477 18.494C146.978 17.9338 146.812 18.0583 147.051 18.7707L149.107 24.3864C149.171 24.5356 149.199 24.6992 149.187 24.8622C149.175 25.0252 149.124 25.1825 149.039 25.3199C148.953 25.4573 148.837 25.5704 148.699 25.6489C148.561 25.7274 148.406 25.7689 148.249 25.7696L140.418 26.4128C139.686 26.4751 139.692 26.5235 140.418 26.5235L153.246 26.5442Z" fill="white"/>
</g>
</g>
<path opacity="0.5" d="M147.363 7.94779L150.737 4.33765L148.435 8.80537L147.363 18.1696V7.94779Z" fill="#BF8138"/>
<g style="mix-blend-mode:overlay" opacity="0.5">
<path d="M145.908 45.9092L147.239 47.2924H135.582L136.966 45.9092H145.908Z" fill="white"/>
</g>
<g style="mix-blend-mode:overlay" opacity="0.3">
<g style="mix-blend-mode:overlay" opacity="0.3">
<path d="M147.35 46.1787C147.397 47.0545 147.728 47.888 148.288 48.544L150.011 50.356C150.523 50.8955 150.676 50.7917 150.291 50.1347L149.086 47.9077C148.684 47.102 148.423 46.2286 148.314 45.3281L147.476 35.9569C147.41 35.1961 147.35 35.2031 147.35 35.9569V46.1787Z" fill="white"/>
</g>
</g>
<g style="mix-blend-mode:darken" opacity="0.4">
<path d="M147.237 47.2174L152.533 52.8263H129.645L135.58 47.2935L147.237 47.2174Z" fill="#633103"/>
</g>
<g style="mix-blend-mode:darken" opacity="0.5">
<path d="M147.239 47.2174L151.478 51.9272L146.574 48.4623L135.582 47.2174H147.239Z" fill="#633103"/>
</g>
<g style="mix-blend-mode:darken">
<path d="M144.039 11.3298H146.035V9.25504H144.039V11.3298Z" fill="#591900"/>
</g>
<g style="mix-blend-mode:darken">
<path d="M143.373 45.9094H146.035V43.8346H144.704V44.5262H143.373V45.9094Z" fill="#591900"/>
</g>
<path d="M128.591 2.20056L133.861 8.56327L132.271 10.23L126.322 2L128.591 2.20056Z" fill="#591900"/>
<path d="M130.166 52.4867L136.274 46.6012H134.484L130.399 50.4119L130.166 52.4867Z" fill="#591900"/>
<path d="M31.8313 3.38257H26.7479L27.3202 3.52094H15.5232C14.1238 3.52203 12.7603 3.98173 11.6267 4.83474C10.493 5.68775 9.64699 6.89064 9.20895 8.27222V18.5217C9.1646 19.3982 8.83367 20.2327 8.27085 20.887L2.64183 26.7794C2.39655 27.0469 2.25977 27.4022 2.25977 27.7718C2.25977 28.1413 2.39655 28.4968 2.64183 28.7643L8.30407 34.8918C8.85396 35.558 9.17675 36.3944 9.22227 37.2709V49.8096C9.55405 50.8395 10.1132 51.7744 10.855 52.5394C11.5967 53.3044 12.5005 53.8782 13.4939 54.215H30.7934C31.5253 54.215 31.685 53.7932 31.146 53.2745L25.7765 48.1083C25.1279 47.5429 24.3197 47.2127 23.4744 47.1677H17.1866C16.8337 47.1677 16.4953 47.0219 16.2457 46.7625C15.9961 46.5031 15.8559 46.1513 15.8559 45.7845V37.2709C15.9004 36.3898 16.21 35.5456 16.7409 34.8572L21.9573 28.7988C22.2028 28.5135 22.3386 28.1442 22.3386 27.7614C22.3386 27.3786 22.2028 27.0093 21.9573 26.724L16.7808 20.8939C16.238 20.2163 15.9206 19.3744 15.8759 18.494V11.7233C15.8759 11.3564 16.0161 11.0046 16.2657 10.7452C16.5152 10.4858 16.8537 10.3401 17.2066 10.3401H26.4352C27.2667 10.2916 28.0463 9.90381 28.6043 9.26115L32.3436 4.41997C32.7894 3.8736 32.5632 3.38257 31.8313 3.38257Z" stroke="#591900" stroke-width="2.89985" stroke-linecap="round" stroke-linejoin="round"/>
<path d="M31.8313 2H26.7479L27.3202 2.13837H15.5232C14.1238 2.13947 12.7603 2.59916 11.6267 3.45217C10.493 4.30518 9.64699 5.50807 9.20895 6.88965V17.1391C9.1646 18.0156 8.83367 18.8501 8.27085 19.5044L2.64183 25.3968C2.39655 25.6643 2.25977 26.0197 2.25977 26.3892C2.25977 26.7588 2.39655 27.1142 2.64183 27.3817L8.30407 33.5093C8.85396 34.1755 9.17675 35.0118 9.22227 35.8883V48.427C9.55405 49.4569 10.1132 50.3918 10.855 51.1568C11.5967 51.9218 12.5005 52.4957 13.4939 52.8325H30.7934C31.5253 52.8325 31.685 52.4106 31.146 51.8919L25.7765 46.7257C25.1279 46.1603 24.3197 45.8301 23.4744 45.7851H17.1866C16.8337 45.7851 16.4953 45.6394 16.2457 45.38C15.9961 45.1206 15.8559 44.7688 15.8559 44.4019V35.8883C15.9004 35.0073 16.21 34.163 16.7409 33.4746L21.9573 27.4162C22.2028 27.1309 22.3386 26.7616 22.3386 26.3788C22.3386 25.9961 22.2028 25.6267 21.9573 25.3414L16.7808 19.5113C16.238 18.8338 15.9206 17.9919 15.8759 17.1114V10.3407C15.8759 9.97387 16.0161 9.62207 16.2657 9.36267C16.5152 9.10327 16.8537 8.95752 17.2066 8.95752H26.4352C27.2667 8.90901 28.0463 8.52124 28.6043 7.87859L32.3436 3.0374C32.7894 2.49103 32.5632 2 31.8313 2Z" stroke="#591900" stroke-width="2.89985" stroke-linecap="round" stroke-linejoin="round"/>
<path d="M31.8313 2H26.7479L27.3202 2.13837H15.5232C14.1238 2.13947 12.7603 2.59916 11.6267 3.45217C10.493 4.30518 9.64699 5.50807 9.20895 6.88965V17.1391C9.1646 18.0156 8.83367 18.8501 8.27085 19.5044L2.64183 25.3968C2.39655 25.6643 2.25977 26.0197 2.25977 26.3892C2.25977 26.7588 2.39655 27.1142 2.64183 27.3817L8.30407 33.5093C8.85396 34.1755 9.17675 35.0118 9.22227 35.8883V48.427C9.55405 49.4569 10.1132 50.3918 10.855 51.1568C11.5967 51.9218 12.5005 52.4957 13.4939 52.8325H30.7934C31.5253 52.8325 31.685 52.4106 31.146 51.8919L25.7765 46.7257C25.1279 46.1603 24.3197 45.8301 23.4744 45.7851H17.1866C16.8337 45.7851 16.4953 45.6394 16.2457 45.38C15.9961 45.1206 15.8559 44.7688 15.8559 44.4019V35.8883C15.9004 35.0073 16.21 34.163 16.7409 33.4746L21.9573 27.4162C22.2028 27.1309 22.3386 26.7616 22.3386 26.3788C22.3386 25.9961 22.2028 25.6267 21.9573 25.3414L16.7808 19.5113C16.238 18.8338 15.9206 17.9919 15.8759 17.1114V10.3407C15.8759 9.97387 16.0161 9.62207 16.2657 9.36267C16.5152 9.10327 16.8537 8.95752 17.2066 8.95752H26.4352C27.2667 8.90901 28.0463 8.52124 28.6043 7.87859L32.3436 3.0374C32.7894 2.49103 32.5632 2 31.8313 2Z" fill="url(#paint7_linear_77_757)"/>
<g style="mix-blend-mode:darken">
<g style="mix-blend-mode:darken">
<path d="M16.1584 9.25429L14.668 7.87109H29.1529L27.3099 9.25429H16.1584Z" fill="#B1650C"/>
</g>
<g style="mix-blend-mode:darken" opacity="0.5">
<path d="M16.1584 9.25429L14.668 7.87109H29.1529L27.3099 9.25429H16.1584Z" fill="#633103"/>
</g>
</g>
<g style="mix-blend-mode:darken">
<path d="M16.2879 8.92291L14.2918 7.94775V18.8612L7.08594 26.0745L14.2918 34.5743V47.2167L15.6225 45.9096V34.844L23.2742 26.5448H12.5086L12.349 20.8668L15.9951 16.7864L16.2879 8.92291Z" fill="#B1650C"/>
</g>
<path d="M14.6364 7.87165L11.2031 4.30307C11.2031 4.30307 13.472 2.33887 15.528 2.33887H33.1002L28.5957 7.87165H14.6364Z" fill="#F2C671"/>
<g style="mix-blend-mode:overlay" opacity="0.4">
<g style="mix-blend-mode:overlay" opacity="0.4">
<path d="M3.03502 26.5446C2.30312 26.5446 2.12341 26.1021 2.63574 25.5557L8.624 19.1584C8.74273 19.0285 8.88565 18.9249 9.04407 18.8542C9.2025 18.7835 9.37312 18.7471 9.54553 18.7471C9.71795 18.7471 9.88857 18.7835 10.047 18.8542C10.2054 18.9249 10.3483 19.0285 10.4671 19.1584L11.1324 19.9053C11.2516 20.0344 11.3947 20.1371 11.5531 20.2072C11.7114 20.2774 11.8818 20.3136 12.054 20.3136C12.2261 20.3136 12.3965 20.2774 12.5549 20.2072C12.7132 20.1371 12.8563 20.0344 12.9755 19.9053L14.3994 18.4114C14.5176 18.284 14.6602 18.184 14.8182 18.1178C14.9761 18.0516 15.1456 18.0207 15.3158 18.0272C15.486 18.0337 15.6529 18.0775 15.8056 18.1556C15.9584 18.2338 16.0937 18.3445 16.2025 18.4807L21.9512 25.445C22.4303 26.026 22.2174 26.4963 21.4855 26.4963L3.03502 26.5446Z" fill="white"/>
</g>
</g>
<g style="mix-blend-mode:darken" opacity="0.5">
<g style="mix-blend-mode:darken" opacity="0.5">
<path d="M23.0422 27.2365C23.2883 26.9529 23.1819 26.7178 22.816 26.7178H2.36938C2.00343 26.7178 1.89031 26.9668 2.11654 27.2642L8.56386 35.7639C8.61458 35.8334 8.67941 35.8904 8.75368 35.9309C8.82795 35.9715 8.90989 35.9945 8.99369 35.9985C9.07748 36.0024 9.16106 35.9872 9.23857 35.9538C9.31607 35.9204 9.38553 35.8698 9.44211 35.8054L12.2433 32.7831C12.368 32.6543 12.5366 32.582 12.7124 32.582C12.8882 32.582 13.0569 32.6543 13.1815 32.7831L15.4504 35.1346C15.5088 35.1992 15.5795 35.2508 15.6579 35.286C15.7363 35.3213 15.8208 35.3395 15.9062 35.3395C15.9916 35.3395 16.0761 35.3213 16.1545 35.286C16.2328 35.2508 16.3034 35.1992 16.3619 35.1346L23.0422 27.2365Z" fill="#633103"/>
</g>
</g>
<g style="mix-blend-mode:overlay" opacity="0.5">
<g style="mix-blend-mode:overlay" opacity="0.5">
<path d="M15.968 7.87217C15.1267 7.82616 14.3259 7.48207 13.699 6.89707L12.1953 5.33405C11.6763 4.79461 11.7762 4.6424 12.4216 5.01586L14.2979 6.08787C15.0777 6.49729 15.9194 6.76401 16.7863 6.8763L25.8087 7.74773C26.5339 7.81688 26.5339 7.87217 25.8087 7.87217H15.968Z" fill="white"/>
</g>
</g>
<g style="mix-blend-mode:overlay" opacity="0.5">
<g style="mix-blend-mode:overlay" opacity="0.5">
<path d="M8.64837 26.5446C7.91647 26.5446 7.7235 26.0881 8.21587 25.5279L14.4171 18.4944C14.9161 17.9342 15.0825 18.0587 14.8429 18.771L12.7869 24.3868C12.7227 24.536 12.6953 24.6996 12.7072 24.8626C12.7192 25.0256 12.7701 25.1829 12.8554 25.3203C12.9406 25.4576 13.0575 25.5707 13.1954 25.6493C13.3334 25.7278 13.488 25.7693 13.6452 25.77L21.4766 26.4132C22.2085 26.4755 22.2018 26.5239 21.4766 26.5239L8.64837 26.5446Z" fill="white"/>
</g>
</g>
<path d="M151.324 32.6377C151.077 32.895 150.783 33.099 150.46 33.2382C150.137 33.3774 149.791 33.4491 149.441 33.4491C149.091 33.4491 148.745 33.3774 148.422 33.2382C148.099 33.099 147.805 32.895 147.558 32.6377L142.98 27.8795C142.735 27.635 142.543 27.3388 142.417 27.0109C142.291 26.683 142.233 26.3309 142.248 25.9781C142.264 25.6253 142.351 25.2799 142.505 24.965C142.658 24.6501 142.875 24.3728 143.14 24.1518L147.398 20.4449C147.989 19.9696 148.712 19.7054 149.459 19.6917C150.206 19.678 150.937 19.9155 151.544 20.3688L155.955 23.9375C156.226 24.1435 156.45 24.4091 156.612 24.7154C156.773 25.0217 156.868 25.3612 156.889 25.7097C156.91 26.0582 156.857 26.4073 156.733 26.7321C156.61 27.0569 156.419 27.3495 156.175 27.589L151.324 32.6377Z" fill="url(#paint8_linear_77_757)"/>
<path d="M149.418 21.5581L144.816 26.3408L149.418 31.1236L154.019 26.3409L149.418 21.5581Z" stroke="#39003B" stroke-width="2.89985" stroke-linecap="round" stroke-linejoin="round"/>
<path d="M149.42 20.8682L144.818 25.6509L149.42 30.4336L154.021 25.6509L149.42 20.8682Z" stroke="#39003B" stroke-width="2.17489" stroke-linecap="round" stroke-linejoin="round"/>
<path d="M149.42 20.8682L144.818 25.6509L149.42 30.4336L154.021 25.6509L149.42 20.8682Z" fill="#1ED6FF"/>
<g style="mix-blend-mode:overlay" opacity="0.6">
<g style="mix-blend-mode:overlay" opacity="0.6">
<path d="M150.751 25.4522C150.398 25.4522 150.059 25.3065 149.81 25.0471C149.56 24.7877 149.42 24.4359 149.42 24.0691V22.1119C149.42 21.3511 149.846 21.1712 150.358 21.7107L153.02 24.4771C153.539 25.0096 153.359 25.4522 152.627 25.4522H150.751Z" fill="#FFCFE3"/>
</g>
</g>
<g style="mix-blend-mode:overlay">
<g style="mix-blend-mode:overlay">
<path d="M150.751 25.4519C150.398 25.4519 150.059 25.3061 149.81 25.0467C149.56 24.7873 149.42 24.4355 149.42 24.0687V22.1115C149.42 21.3507 149.487 21.3507 149.573 22.1115L149.713 23.3079C149.775 23.6988 149.947 24.0618 150.208 24.3511C150.468 24.6403 150.805 24.8428 151.176 24.9332L152.654 25.2098C153.372 25.3481 153.359 25.4588 152.654 25.4588L150.751 25.4519Z" fill="white"/>
</g>
</g>
<g style="mix-blend-mode:darken" opacity="0.5">
<g style="mix-blend-mode:darken" opacity="0.5">
<path d="M149.474 26.6625C149.474 26.2956 149.334 25.9438 149.084 25.6844C148.835 25.425 148.496 25.2793 148.144 25.2793H145.569C144.837 25.2793 144.664 25.715 145.189 26.2406L148.516 29.5879C149.042 30.1205 149.474 29.9268 149.474 29.1661V26.6625Z" fill="#39003B"/>
</g>
</g>
<path d="M149.476 26.6622C149.476 26.2954 149.336 25.9436 149.086 25.6842C148.836 25.4248 148.498 25.2791 148.145 25.2791H145.57C144.838 25.2791 144.818 25.4173 145.57 25.5902L147.566 26.0536C147.941 26.1641 148.28 26.3781 148.547 26.6728C148.814 26.9675 148.999 27.3319 149.083 27.7273L149.316 29.1866C149.436 29.9404 149.536 29.9266 149.536 29.1866L149.476 26.6622Z" fill="url(#paint9_linear_77_757)"/>
<path d="M14.2577 32.6377C14.0105 32.895 13.7169 33.099 13.3938 33.2382C13.0707 33.3774 12.7244 33.4491 12.3747 33.4491C12.0249 33.4491 11.6786 33.3774 11.3555 33.2382C11.0324 33.099 10.7389 32.895 10.4917 32.6377L5.91402 27.8795C5.66893 27.635 5.47681 27.3388 5.35059 27.0109C5.22436 26.683 5.16694 26.3309 5.18205 25.9781C5.19717 25.6253 5.28454 25.2799 5.43831 24.965C5.59207 24.6501 5.80866 24.3728 6.0737 24.1518L10.332 20.4449C10.9228 19.9696 11.6455 19.7054 12.3924 19.6917C13.1394 19.678 13.8707 19.9155 14.4772 20.3688L18.8886 23.9375C19.1598 24.1435 19.3841 24.4091 19.5454 24.7154C19.7068 25.0217 19.8013 25.3612 19.8223 25.7097C19.8433 26.0582 19.7901 26.4073 19.6667 26.7321C19.5433 27.0569 19.3526 27.3495 19.1081 27.589L14.2577 32.6377Z" fill="url(#paint10_linear_77_757)"/>
<path d="M12.3571 21.5614L7.75586 26.3441L12.3572 31.1269L16.9585 26.3442L12.3571 21.5614Z" stroke="#39003B" stroke-width="2.89985" stroke-linecap="round" stroke-linejoin="round"/>
<path d="M12.3532 20.8646L7.75195 25.6473L12.3533 30.4301L16.9546 25.6474L12.3532 20.8646Z" stroke="#39003B" stroke-width="2.17489" stroke-linecap="round" stroke-linejoin="round"/>
<path d="M12.3532 20.8646L7.75195 25.6473L12.3533 30.4301L16.9546 25.6474L12.3532 20.8646Z" fill="#1ED6FF"/>
<g style="mix-blend-mode:overlay" opacity="0.6">
<g style="mix-blend-mode:overlay" opacity="0.6">
<path d="M13.6862 25.4522C13.3333 25.4522 12.9948 25.3065 12.7452 25.0471C12.4957 24.7877 12.3555 24.4359 12.3555 24.0691V22.1119C12.3555 21.3511 12.7813 21.1712 13.2937 21.7107L15.9551 24.4771C16.4741 25.0096 16.2945 25.4522 15.5626 25.4522H13.6862Z" fill="#FFCFE3"/>
</g>
</g>
<g style="mix-blend-mode:overlay">
<g style="mix-blend-mode:overlay">
<path d="M13.6862 25.4521C13.3333 25.4521 12.9948 25.3063 12.7452 25.0469C12.4957 24.7875 12.3555 24.4357 12.3555 24.0689V22.1117C12.3555 21.3509 12.4221 21.3509 12.5086 22.1117L12.6483 23.3082C12.7105 23.6991 12.8828 24.062 13.1433 24.3513C13.4038 24.6405 13.7409 24.8431 14.112 24.9334L15.5892 25.2101C16.3078 25.3484 16.2945 25.459 15.5892 25.459L13.6862 25.4521Z" fill="white"/>
</g>
</g>
<g style="mix-blend-mode:darken" opacity="0.5">
<g style="mix-blend-mode:darken" opacity="0.5">
<path d="M12.4098 26.6632C12.4098 26.2964 12.2696 25.9446 12.02 25.6852C11.7704 25.4258 11.432 25.28 11.0791 25.28H8.5041C7.7722 25.28 7.59916 25.7157 8.1248 26.2414L11.4516 29.5887C11.9772 30.1212 12.4098 29.9276 12.4098 29.1668V26.6632Z" fill="#39003B"/>
</g>
</g>
<path d="M12.4074 26.6622C12.4074 26.2954 12.2672 25.9436 12.0176 25.6842C11.7681 25.4248 11.4296 25.2791 11.0767 25.2791H8.50175C7.76985 25.2791 7.74989 25.4173 8.50175 25.5902L10.4978 26.0536C10.8726 26.1641 11.2115 26.3781 11.4787 26.6728C11.7458 26.9675 11.9311 27.3319 12.0149 27.7273L12.2477 29.1866C12.3675 29.9404 12.4673 29.9266 12.4673 29.1866L12.4074 26.6622Z" fill="url(#paint11_linear_77_757)"/>
<path opacity="0.5" d="M14.2938 7.94779L11.0469 4.33765L13.2891 8.80537L14.2938 18.1696V7.94779Z" fill="#BF8138"/>
<g style="mix-blend-mode:overlay" opacity="0.5">
<path d="M15.9928 45.9092L14.6621 47.2924H26.3193L24.9353 45.9092H15.9928Z" fill="white"/>
</g>
<g style="mix-blend-mode:overlay" opacity="0.3">
<g style="mix-blend-mode:overlay" opacity="0.3">
<path d="M14.551 46.1791C14.5059 47.0541 14.1776 47.8877 13.6195 48.5444L11.8962 50.3564C11.3839 50.8958 11.2308 50.792 11.6167 50.135L12.8211 47.9081C13.223 47.1024 13.4844 46.229 13.5929 45.3285L14.4312 35.9573C14.4977 35.1965 14.551 35.2034 14.551 35.9573V46.1791Z" fill="white"/>
</g>
</g>
<g style="mix-blend-mode:darken" opacity="0.4">
<path d="M14.6654 47.2174L9.36914 52.8263H32.2576L26.3226 47.2935L14.6654 47.2174Z" fill="#633103"/>
</g>
<g style="mix-blend-mode:darken" opacity="0.5">
<path d="M14.6641 47.2174L10.4258 51.9272L15.3295 48.4623L26.3213 47.2174H14.6641Z" fill="#633103"/>
</g>
<g style="mix-blend-mode:darken">
<path d="M18.2825 9.25513H15.6211V11.3299H18.2825V9.25513Z" fill="#591900"/>
</g>
<g style="mix-blend-mode:darken">
<path d="M18.2832 45.9094H16.2871V43.8346H17.6178V44.5262H18.2832V45.9094Z" fill="#591900"/>
</g>
<path d="M33.3232 2.20056L28.0469 8.56327L29.6371 10.23L35.5854 2L33.3232 2.20056Z" fill="#591900"/>
<path d="M31.7389 52.4867L25.6309 46.6012H27.4207L31.506 50.4119L31.7389 52.4867Z" fill="#591900"/>
<path d="M34.225 5.44466C34.225 5.44466 36.5139 2.47773 37.4853 2.18726H31.171C31.171 2.18726 31.4505 4.84988 30.8184 5.44466H34.225Z" fill="url(#paint12_linear_77_757)"/>
<path d="M129.25 2.18726H124.932C125.903 2.47773 128.192 5.44466 128.192 5.44466H131.246L129.25 2.18726Z" fill="url(#paint13_linear_77_757)"/>
<path d="M28.1918 2.33887L27.5996 4.41366H134.058L132.075 2.33887H28.1918Z" fill="#F2C671"/>
<path d="M34.8925 53.1649C34.8925 53.1649 37.1813 50.1979 38.1528 49.9075H31.8385C31.8385 49.9075 31.0733 50.4331 29.7692 51.5327H26.3759C21.9579 51.671 19.7688 52.5494 19.1367 53.1442L34.8925 53.1649Z" fill="url(#paint14_linear_77_757)"/>
<path opacity="0.4" d="M34.8925 53.1649C34.8925 53.1649 37.1813 50.1979 38.1528 49.9075H31.8385C31.8385 49.9075 31.0733 50.4331 29.7692 51.5327H26.3759C21.9579 51.671 19.7688 52.5494 19.1367 53.1442L34.8925 53.1649Z" fill="url(#paint15_linear_77_757)"/>
<path d="M128.856 53.1649C128.856 53.1649 126.567 50.1979 125.596 49.9075H131.91C131.91 49.9075 132.675 50.4331 133.979 51.5327H137.373C141.791 51.671 143.98 52.5494 144.612 53.1442L128.856 53.1649Z" fill="url(#paint16_linear_77_757)"/>
<path opacity="0.4" d="M128.856 53.1649C128.856 53.1649 126.567 50.1979 125.596 49.9075H131.91C131.91 49.9075 132.675 50.4331 133.979 51.5327H137.373C141.791 51.671 143.98 52.5494 144.612 53.1442L128.856 53.1649Z" fill="url(#paint17_linear_77_757)"/>
<path d="M129.781 52.9636H28.0469L33.0171 50.8888H127.499L129.781 52.9636Z" fill="#B1650C"/>
<path opacity="0.4" d="M129.781 52.9636H28.0469L33.0171 50.8888H127.499L129.781 52.9636Z" fill="#633103"/>
<path d="M29.2754 50.0591L30.5662 50.7507H132.054V50.0591H29.2754Z" fill="#BF8138"/>
<defs>
<linearGradient id="paint0_linear_77_757" x1="80.6418" y1="52.5074" x2="80.6418" y2="2.14523" gradientUnits="userSpaceOnUse">
<stop stop-color="#B1650C"/>
<stop offset="1" stop-color="#DE9A51"/>
</linearGradient>
<radialGradient id="paint1_radial_77_757" cx="0" cy="0" r="1" gradientUnits="userSpaceOnUse" gradientTransform="translate(81.7002 47.8012) scale(50.9867 18.549)">
<stop stop-color="#FFF296"/>
<stop offset="1" stop-color="#FFF296" stop-opacity="0"/>
</radialGradient>
<radialGradient id="paint2_radial_77_757" cx="0" cy="0" r="1" gradientUnits="userSpaceOnUse" gradientTransform="translate(163255 11327.5) scale(12332.4 924.425)">
<stop stop-color="#FFF296"/>
<stop offset="1" stop-color="#FFF296" stop-opacity="0"/>
</radialGradient>
<linearGradient id="paint3_linear_77_757" x1="27.5996" y1="28.6195" x2="134.723" y2="28.6195" gradientUnits="userSpaceOnUse">
<stop stop-color="#FFF296" stop-opacity="0"/>
<stop offset="0.5" stop-color="#FFF296"/>
<stop offset="1" stop-color="#FFF296" stop-opacity="0"/>
</linearGradient>
<linearGradient id="paint4_linear_77_757" x1="4545.01" y1="25.838" x2="18342" y2="25.838" gradientUnits="userSpaceOnUse">
<stop stop-color="#FFF296" stop-opacity="0"/>
<stop offset="0.5" stop-color="#FFF296"/>
<stop offset="1" stop-color="#FFF296" stop-opacity="0"/>
</linearGradient>
<linearGradient id="paint5_linear_77_757" x1="4445.87" y1="142.028" x2="20225.6" y2="142.028" gradientUnits="userSpaceOnUse">
<stop stop-color="#FFF296" stop-opacity="0"/>
<stop offset="0.5" stop-color="#FFF296"/>
<stop offset="1" stop-color="#FFF296" stop-opacity="0"/>
</linearGradient>
<linearGradient id="paint6_linear_77_757" x1="144.498" y1="52.8325" x2="144.498" y2="2.00005" gradientUnits="userSpaceOnUse">
<stop stop-color="#B1650C"/>
<stop offset="1" stop-color="#F2C671"/>
</linearGradient>
<linearGradient id="paint7_linear_77_757" x1="84145.2" y1="58463.9" x2="84145.2" y2="54727.7" gradientUnits="userSpaceOnUse">
<stop stop-color="#B1650C"/>
<stop offset="1" stop-color="#F2C671"/>
</linearGradient>
<linearGradient id="paint8_linear_77_757" x1="149.568" y1="33.4469" x2="149.568" y2="19.691" gradientUnits="userSpaceOnUse">
<stop stop-color="#DE9A51"/>
<stop offset="0.09" stop-color="#DE9A51" stop-opacity="0.77"/>
<stop offset="0.24" stop-color="#DE9A51" stop-opacity="0.44"/>
<stop offset="0.36" stop-color="#DE9A51" stop-opacity="0.2"/>
<stop offset="0.45" stop-color="#DE9A51" stop-opacity="0.06"/>
<stop offset="0.5" stop-color="#DE9A51" stop-opacity="0"/>
</linearGradient>
<linearGradient id="paint9_linear_77_757" x1="145.947" y1="24.3876" x2="150.423" y2="28.694" gradientUnits="userSpaceOnUse">
<stop stop-color="#39003B" stop-opacity="0"/>
<stop offset="0.5" stop-color="#39003B"/>
<stop offset="1" stop-color="#39003B" stop-opacity="0"/>
</linearGradient>
<linearGradient id="paint10_linear_77_757" x1="15850.2" y1="15456.9" x2="15850.2" y2="15183.2" gradientUnits="userSpaceOnUse">
<stop stop-color="#DE9A51"/>
<stop offset="0.09" stop-color="#DE9A51" stop-opacity="0.77"/>
<stop offset="0.24" stop-color="#DE9A51" stop-opacity="0.44"/>
<stop offset="0.36" stop-color="#DE9A51" stop-opacity="0.2"/>
<stop offset="0.45" stop-color="#DE9A51" stop-opacity="0.06"/>
<stop offset="0.5" stop-color="#DE9A51" stop-opacity="0"/>
</linearGradient>
<linearGradient id="paint11_linear_77_757" x1="8419.31" y1="9818.96" x2="8460.73" y2="9818.96" gradientUnits="userSpaceOnUse">
<stop stop-color="#39003B" stop-opacity="0"/>
<stop offset="0.5" stop-color="#39003B"/>
<stop offset="1" stop-color="#39003B" stop-opacity="0"/>
</linearGradient>
<linearGradient id="paint12_linear_77_757" x1="20.0528" y1="3.81941" x2="37.4853" y2="3.81941" gradientUnits="userSpaceOnUse">
<stop stop-color="#DE9A51" stop-opacity="0"/>
<stop offset="0.51" stop-color="#DE9A51"/>
</linearGradient>
<linearGradient id="paint13_linear_77_757" x1="-18235.3" y1="3517.64" x2="-18392" y2="3517.64" gradientUnits="userSpaceOnUse">
<stop stop-color="#DE9A51" stop-opacity="0"/>
<stop offset="0.51" stop-color="#DE9A51"/>
</linearGradient>
<linearGradient id="paint14_linear_77_757" x1="19.1367" y1="51.5396" x2="38.1528" y2="51.5396" gradientUnits="userSpaceOnUse">
<stop stop-color="#B1650C" stop-opacity="0"/>
<stop offset="0.03" stop-color="#B1650C" stop-opacity="0"/>
<stop offset="0.51" stop-color="#B1650C"/>
</linearGradient>
<linearGradient id="paint15_linear_77_757" x1="19.1367" y1="51.5396" x2="38.1528" y2="51.5396" gradientUnits="userSpaceOnUse">
<stop stop-color="#7C2B00" stop-opacity="0"/>
<stop offset="0.51" stop-color="#7C2B00"/>
</linearGradient>
<linearGradient id="paint16_linear_77_757" x1="-57594.6" y1="3790.13" x2="-58138.3" y2="3790.13" gradientUnits="userSpaceOnUse">
<stop stop-color="#B1650C" stop-opacity="0"/>
<stop offset="0.03" stop-color="#B1650C" stop-opacity="0"/>
<stop offset="0.51" stop-color="#B1650C"/>
</linearGradient>
<linearGradient id="paint17_linear_77_757" x1="-57594.6" y1="3790.13" x2="-58138.3" y2="3790.13" gradientUnits="userSpaceOnUse">
<stop stop-color="#7C2B00" stop-opacity="0"/>
<stop offset="0.51" stop-color="#7C2B00"/>
</linearGradient>
</defs>
</svg>
