<svg width="44" height="44" viewBox="0 0 44 44" fill="none" xmlns="http://www.w3.org/2000/svg">
<path d="M13.6613 18.3673L22.0038 10.0282L30.3498 18.3741L35.2013 13.5192L22.0038 0.318359L8.80638 13.5158L13.6613 18.3673Z" fill="#F3BA2F"/>
<path d="M0.521484 21.7973L5.373 16.9424L10.2279 21.7973L5.373 26.6488L0.521484 21.7973Z" fill="#F3BA2F"/>
<path d="M13.6613 25.2239L22.0038 33.5665L30.3498 25.2205L35.2047 30.0687L22.0072 43.2695L8.80638 30.0788L13.6613 25.2239Z" fill="#F3BA2F"/>
<path d="M33.7696 21.7973L38.6211 16.9424L43.476 21.7939L38.6211 26.6522L33.7696 21.7973Z" fill="#F3BA2F"/>
<path d="M26.9266 21.7939L22.0038 16.8678L18.3635 20.5081L17.9428 20.9254L17.0811 21.7871L22.0038 26.7065L26.9266 21.7973V21.7939Z" fill="#F3BA2F"/>
</svg>
