<svg width="430" height="435" viewBox="0 0 430 435" fill="none" xmlns="http://www.w3.org/2000/svg">
<g opacity="0.5">
<path d="M218.4 299.004C221.213 294.71 220.473 290.12 220.473 285.382C220.325 274.129 210.848 265.689 206.703 255.917C205.222 252.067 203.741 248.069 203.741 243.775C203.741 241.998 203.889 240.369 203.149 238.593C200.78 240.221 200.188 246.884 200.188 249.698C200.188 267.91 216.179 277.386 215.883 292.489C215.883 296.931 212.477 300.189 212.329 304.187C215.142 303.594 216.919 301.077 218.4 299.004ZM212.329 275.165C207.591 267.022 202.705 262.431 202.705 252.215C204.185 253.547 206.258 259.026 207.443 260.951L211.293 266.429C214.106 270.871 218.992 281.088 218.992 286.27C219.14 288.343 219.584 291.009 218.104 292.489C217.363 286.863 215.142 279.755 212.329 275.165Z" fill="#FFBC85"/>
<path d="M212.923 411.536L208.185 413.017L202.262 416.274L196.043 419.236L197.524 419.828C199.893 419.828 201.077 418.792 203.002 418.347L205.519 417.903C210.554 417.311 219.142 415.978 223.732 418.495C220.474 420.42 218.401 426.343 217.365 429.749C216.921 430.341 215.736 434.487 217.217 434.487C218.697 434.487 222.251 423.234 231.875 424.122C236.169 424.566 240.76 433.006 241.648 433.006C243.573 433.006 242.684 429.749 242.536 428.712C241.648 424.862 239.279 422.049 245.35 422.049C251.124 422.049 256.455 423.086 261.933 423.53C260.897 419.68 254.234 418.644 250.828 417.755L246.09 416.719L242.092 415.83C246.978 411.536 253.938 410.056 260.008 408.131L265.487 405.169C264.599 404.281 264.154 404.281 262.97 404.281C258.232 404.133 253.345 404.873 248.755 406.206C246.682 406.798 244.461 408.131 242.24 407.686C243.129 406.206 243.721 404.429 243.721 402.652C243.869 400.579 242.388 391.843 240.908 390.066L239.575 389.474C239.131 391.399 239.575 391.843 239.575 393.472L239.131 397.026L238.983 399.099C238.539 402.652 236.466 406.354 235.133 409.759L231.579 405.317L220.918 397.914C216.476 394.805 212.034 391.547 206.26 391.547C206.408 392.584 206.112 392.139 207.148 392.584C206.556 395.101 209.961 395.989 211.886 397.026C217.365 399.987 222.103 404.725 225.509 409.759L216.328 411.092L212.923 411.536ZM255.418 406.946L240.315 413.609C242.536 410.352 251.42 407.242 255.418 406.946ZM227.581 413.017C228.026 412.129 227.433 410.648 227.137 410.056L225.657 406.502L217.957 399.543L214.7 397.026C219.142 398.062 223.436 402.06 226.989 404.873L230.839 408.131L233.948 414.35C237.206 411.98 236.318 410.796 237.798 407.686L239.131 405.169L240.611 398.95H241.648C241.648 403.689 241.056 405.91 239.279 410.204L237.206 413.165C237.058 414.498 237.206 418.644 238.539 419.088L245.35 418.94L250.828 419.828C248.311 421.605 240.463 418.495 238.242 421.605C237.206 423.086 239.279 423.974 238.39 425.455L232.912 421.901L229.951 422.049L226.989 422.938L222.251 425.01C222.695 423.086 224.62 420.716 226.249 419.68L229.506 418.792C227.581 416.274 224.028 415.238 220.77 415.386L215.736 415.83H210.258C211.886 413.461 219.438 412.869 222.399 412.869C224.028 412.573 227.137 414.053 227.581 413.017Z" fill="#FFBC85"/>
<path d="M7.69954 231.633C10.0686 232.521 18.0643 237.111 19.3969 239.036C13.4742 239.184 7.25534 241.554 3.84977 246.736C2.96136 248.069 0.888409 253.547 2.81329 254.435C3.2575 254.88 6.66307 251.622 7.69954 251.03C10.6609 249.549 18.0643 247.772 21.3218 248.957C11.9935 259.322 10.2167 271.908 10.2167 285.53C11.5493 285.086 11.9935 284.641 12.5858 283.457L14.9549 276.794L18.9527 268.058L22.5064 263.171C24.2832 260.654 25.7639 258.729 28.4291 257.397L27.8368 275.609C27.9849 276.498 27.8368 282.42 29.7617 281.384C30.7982 280.94 30.7982 275.905 31.0943 274.573C31.5385 271.019 34.3518 260.95 36.1286 257.989L41.9033 269.094C42.4956 270.575 44.2724 278.423 44.8647 278.867C46.9376 280.199 47.2337 275.017 47.2337 274.129C47.3818 268.206 46.6415 260.358 44.2724 254.732C47.6779 254.287 55.6736 259.766 56.562 259.47C57.8946 258.878 56.562 256.064 55.9698 255.472L47.2337 248.661L41.311 246.144C38.4977 244.071 37.3132 240.369 34.0557 238C28.5772 234.002 6.36693 223.933 0 226.599L2.81329 229.856L7.69954 231.633ZM34.6479 241.109C36.5728 242.738 38.6458 248.365 39.6823 248.809L42.6436 248.957C45.4569 249.549 49.0106 251.918 50.4912 254.287C48.8625 253.695 43.6801 251.326 42.1994 252.659C41.1629 253.695 42.3475 256.064 42.7917 257.397L44.7166 266.133L45.605 271.611L44.2724 270.575L42.3475 265.541L38.4977 258.137C38.0535 257.101 36.4248 254.139 35.0922 254.88L33.0192 259.914L31.6866 264.652L29.7617 271.167C28.4291 269.242 29.6136 260.062 30.2059 257.989L31.8347 253.251C26.8003 253.399 23.3948 258.285 20.5815 261.987L17.6201 265.985C16.5836 268.058 14.2145 274.277 11.8455 275.165C13.1781 267.762 15.251 260.654 19.2489 254.287C19.8411 252.955 24.7274 248.513 24.5793 247.624C23.987 245.107 14.3626 246.292 12.4377 246.736L3.99784 249.549C4.88625 243.775 15.251 240.813 20.4334 241.109C22.9506 241.109 23.3948 241.998 25.4677 242.738C26.5042 243.33 27.3926 242.738 26.8003 241.405L22.9506 238.444L17.1759 234.15C14.8068 232.521 9.47636 230.745 7.99568 228.82C14.6587 229.856 29.7617 236.815 34.6479 241.109Z" fill="#FFBC85"/>
<path d="M107.941 251.326C105.868 251.77 103.203 254.732 102.018 256.361C95.5032 264.356 98.4645 269.687 100.537 278.719C100.982 280.644 101.574 282.717 101.13 284.642C100.982 286.566 99.6491 289.824 98.1684 291.305C96.5396 292.933 95.207 291.897 95.207 294.858C99.6491 294.858 102.166 294.266 104.831 290.12C110.606 281.236 105.276 270.575 105.424 260.803C105.424 257.249 108.829 254.732 107.941 251.326ZM102.166 288.787L102.759 284.79L101.426 275.609C100.982 273.24 99.7971 270.575 99.7971 267.91C99.7971 265.541 101.278 262.875 101.722 260.506H102.759L103.647 265.985C104.831 271.463 107.793 284.938 102.166 288.787Z" fill="#FFBC85"/>
<path d="M90.1753 266.429C89.1388 266.873 87.8062 268.946 86.9178 269.983C83.3642 274.869 81.8835 277.386 82.0316 283.605C82.0316 289.528 83.9565 306.111 74.332 306.556C74.4801 311.294 80.5509 308.184 82.4758 306.556C86.7698 302.706 90.1753 296.931 90.1753 291.305C90.3234 285.974 88.3985 280.94 88.6946 275.609C88.6946 273.388 94.3212 264.504 90.1753 266.429ZM88.2504 290.268C87.8062 293.23 87.362 295.747 86.1775 298.56L83.6603 301.966H82.6238C83.9565 298.56 84.6968 295.599 84.6968 292.045C84.6968 288.491 82.6238 277.534 86.6217 276.35L88.5466 287.899L88.2504 290.268Z" fill="#FFBC85"/>
<path d="M55.229 288.787C55.6732 287.899 55.3771 287.158 55.0809 286.27C51.5273 287.603 48.8621 289.379 46.1968 292.045L43.3835 294.562C41.9028 296.487 39.978 301.373 38.0531 302.558C37.4608 300.04 35.9801 298.56 34.0552 296.783C29.169 292.489 22.8021 290.12 16.4351 290.12C14.3622 290.268 13.918 290.712 13.918 292.637L16.8793 293.229C18.9523 294.118 31.0939 300.929 29.169 303.594C28.5767 304.63 20.7291 303.742 19.8407 310.405L23.8385 309.073L27.8364 309.961C28.8729 310.109 31.2419 310.849 31.6861 311.442L30.0574 322.103C30.0574 323.879 31.0939 325.656 32.8707 324.027C34.9436 322.103 36.2763 312.182 40.5702 318.549L41.6067 320.622L43.2355 323.583C46.0488 322.695 45.1604 320.178 44.7161 318.105L44.2719 313.07C47.6775 313.07 48.714 314.551 51.6754 312.034C49.7505 307.74 46.641 308.184 45.9007 305.815C45.3084 303.446 48.8621 295.598 50.6389 293.673L55.229 288.787ZM45.4565 300.04L43.8277 305.075C43.6797 306.111 42.7913 307.444 43.3835 308.48C44.2719 309.813 45.9007 309.369 47.2333 310.997C45.7526 310.553 41.7548 309.665 41.9028 312.478L42.4951 314.551L42.6432 317.068L39.8299 314.107C37.4608 312.034 34.0552 316.92 33.463 318.549H32.5746C32.5746 311.738 35.9801 313.663 36.5724 309.961L32.5746 308.628L24.4308 307.296V306.259L26.948 305.815L30.9458 306.259C32.8707 305.371 31.5381 302.409 30.9458 301.077C29.4651 299.004 25.0231 296.339 22.8021 294.858L19.5446 292.341C24.875 292.489 30.2055 295.746 33.7591 299.596L35.684 302.113C36.2763 303.15 36.2763 305.667 37.7569 305.667L39.0896 305.075L40.5702 302.113C42.0509 299.004 44.42 294.858 47.5294 293.377C47.3814 296.191 46.3449 297.819 45.4565 300.04Z" fill="#FFBC85"/>
<path d="M118.305 409.167C117.268 410.796 119.934 411.536 121.118 411.536C126.152 411.98 133.852 415.83 137.702 419.236C139.627 421.012 141.255 423.678 143.476 424.714C147.03 426.787 148.363 424.566 149.991 425.158C151.324 425.751 152.064 427.972 153.545 428.12L166.723 424.27L178.865 424.862L185.38 426.195C184.491 420.716 167.76 418.495 167.315 417.903C166.723 416.57 171.165 413.609 172.202 412.869C178.569 408.427 184.935 407.982 192.339 407.982C191.895 405.021 188.341 404.577 185.824 404.577C178.42 404.429 171.165 406.65 164.502 409.907L159.024 413.165C160.948 408.278 162.133 402.504 166.279 398.654C167.315 397.618 172.942 392.879 172.942 391.843C172.942 387.993 166.575 392.435 165.687 393.176C162.281 395.545 156.951 399.839 154.582 402.948L151.028 409.463C150.139 400.727 142.588 389.77 136.221 384.143C134.74 382.811 134.296 381.774 132.223 381.626C132.371 385.18 135.777 389.326 137.702 392.287L140.663 398.506L143.476 406.205C137.554 403.836 133.26 398.506 126.745 398.506C125.708 398.506 120.822 398.358 122.451 400.875L132.815 406.354L135.333 409.167C132.815 409.019 119.193 408.13 118.305 409.167ZM138.294 412.572L142.292 415.09L141.848 413.017C140.959 411.092 134.148 405.169 132.075 403.688L128.67 400.875C132.223 401.319 140.367 406.354 142.736 409.315L144.661 413.313L145.253 413.905C147.77 414.349 146.142 408.575 145.845 407.686L144.513 403.244L138.59 390.066C143.032 392.583 147.474 402.208 148.215 407.242L149.251 414.942C149.843 416.274 150.88 416.422 152.509 416.422L153.397 412.424C154.878 406.502 155.47 405.613 159.616 401.171C161.097 399.542 161.689 398.21 164.354 397.618C163.021 400.135 152.509 415.682 158.135 417.014C158.727 417.163 164.058 412.72 165.094 412.128C169.092 410.055 175.459 406.798 179.901 406.798L178.865 408.13L175.607 409.167L172.646 410.796L170.129 412.128L163.614 417.014L159.616 418.051L160.652 419.087L163.614 419.68C166.427 420.124 173.534 421.012 175.311 422.493H166.871L160.06 423.381L154.582 425.158C152.064 425.158 152.064 422.641 150.584 422.197C149.103 421.605 146.586 424.566 143.624 422.345L140.367 418.791C137.109 415.682 132.667 412.276 128.225 411.536C130.002 410.055 136.221 411.536 138.294 412.572Z" fill="#FFBC85"/>
<path d="M276.443 263.912C274.074 260.951 266.819 256.657 263.117 259.47C265.93 263.468 270.521 263.764 272.445 268.65L274.074 276.35C274.074 279.607 272.149 282.569 272.149 285.974C272.149 289.38 272.001 292.785 273.186 296.191C274.667 300.633 277.924 303.446 280.145 307.296C281.626 309.813 281.774 312.775 283.403 314.996C289.177 312.182 282.514 301.67 281.478 297.82C280.441 293.378 282.07 289.676 282.958 285.678C284.291 278.571 280.589 269.243 276.443 263.912ZM281.33 305.075C277.036 300.337 274.074 294.71 274.37 288.343C274.37 284.494 276.295 281.384 276.295 277.683C276.295 275.313 276.147 271.019 275.259 268.947L272.297 263.468C278.96 266.281 280.441 276.054 281.181 282.125C281.626 286.122 278.368 291.009 278.812 295.303C278.96 297.672 282.218 303.594 281.33 305.075Z" fill="#FFBC85"/>
<path d="M354.476 388.881L353.883 387.252C351.07 384.883 332.413 385.179 328.564 385.92C323.677 387.252 318.939 389.918 314.349 391.843C319.087 385.031 324.122 381.478 331.525 378.516L337.3 376.592C334.931 370.225 317.31 377.48 313.313 379.553C311.98 380.441 309.463 382.958 308.278 382.958C306.946 382.958 303.836 378.516 302.356 377.48L297.321 374.667C290.954 372.298 285.624 373.334 279.109 373.63C277.776 373.63 274.223 373.186 273.334 374.222C271.854 376.295 278.22 376.147 279.109 376.295C284.884 377.332 295.1 379.109 298.506 384.587C294.656 384.735 290.362 385.476 286.808 386.216C281.922 387.697 267.115 394.36 266.375 399.394C269.781 398.802 272.298 396.433 275.555 395.396L279.553 394.36L287.845 392.879H293.323C290.214 395.692 286.068 396.729 282.662 399.098C274.519 404.576 269.929 414.645 269.929 424.418L272.002 423.825C272.002 425.454 271.557 427.231 272.89 428.563C272.89 425.158 273.482 420.272 275.259 417.31C278.22 411.536 290.51 404.132 296.877 402.651C295.841 405.169 294.804 407.39 294.804 410.351L294.952 417.014L295.989 420.568C296.581 422.048 296.433 422.937 298.358 423.529L297.914 417.31C298.358 413.016 302.208 407.686 306.057 405.761C308.426 404.724 308.426 408.722 308.426 410.203C308.574 415.533 308.426 417.606 302.948 419.383C304.577 424.269 316.718 416.866 316.718 407.686C316.718 406.205 316.126 402.207 316.718 401.171C319.976 393.915 346.628 388.881 354.476 388.881ZM312.572 413.016C311.684 414.349 311.24 415.089 309.759 415.533L309.907 411.091C309.907 409.167 309.315 400.875 306.057 402.207L299.838 407.094C298.802 408.426 298.062 410.499 296.433 411.091C296.581 407.686 297.321 405.613 299.246 402.8C299.838 401.911 301.763 399.986 301.615 398.95C300.727 396.877 295.248 399.986 293.916 400.43C289.178 402.503 283.551 405.909 279.701 409.166L273.186 415.533C273.334 412.276 274.519 411.536 276.148 408.87C281.182 401.171 288.437 397.173 297.025 394.36C297.914 393.915 300.283 393.323 300.579 392.435C300.727 391.546 298.654 390.658 298.062 390.51C294.656 389.177 291.25 390.362 287.845 390.954L278.665 391.991L283.403 389.918C288.141 387.993 292.287 386.956 297.469 386.956C302.207 386.956 301.319 388.437 304.725 389.029C304.28 386.068 303.096 386.66 301.319 385.031C299.69 382.958 298.506 380.737 295.989 379.553L290.066 377.184L286.808 376.295L285.772 375.407C291.547 375.407 297.617 376.295 302.208 380.145C304.132 381.774 305.465 383.699 305.761 386.364C305.761 386.808 305.761 388.141 306.798 388.141L312.276 383.107C316.57 379.849 324.122 377.332 329.452 376.74C327.675 378.516 325.158 378.813 323.233 379.997C319.976 382.07 315.089 386.364 313.016 389.622C312.128 390.658 309.167 395.988 311.536 396.581C313.016 397.025 316.866 393.027 318.791 392.287C326.639 389.325 330.489 387.993 338.928 387.993C337.448 389.473 328.564 391.546 325.75 392.731C322.197 394.212 319.383 395.692 316.126 398.061L312.72 399.838C311.536 401.319 317.903 405.169 312.572 413.016Z" fill="#FFBC85"/>
<path d="M301.169 116.584C299.837 117.473 299.689 120.582 300.133 121.915L299.689 122.359C297.616 119.398 299.541 113.919 301.614 111.254C301.021 109.773 299.689 109.181 298.356 110.81C297.32 112.29 294.951 122.211 296.727 123.543C297.616 123.988 298.8 123.543 299.689 123.395C299.837 124.876 299.689 128.726 301.021 129.614L302.65 130.058V126.061L302.206 122.507L303.094 117.621C302.798 116.584 302.058 116.436 301.169 116.584Z" fill="#FFBC85"/>
<path d="M361.139 307C359.806 307 358.178 308.036 359.066 309.517C360.695 312.922 373.725 312.478 376.982 310.998C379.055 313.959 382.461 314.255 385.422 314.847L393.122 316.18C398.452 316.18 403.486 314.847 408.373 313.367L411.778 312.33C412.667 311.738 412.815 309.961 411.778 309.517C410.742 309.073 409.409 310.405 408.373 310.405L399.637 309.517C400.673 308.036 404.967 306.111 406.892 305.075L412.371 300.337C419.626 293.674 424.216 281.68 424.512 271.908C424.512 269.835 424.956 265.985 424.068 263.764C422.587 265.244 422.587 268.502 421.995 270.427L419.478 276.942L417.109 281.68L415.184 285.678L411.778 290.712L411.334 288.195L413.259 279.015L413.851 267.317C413.851 262.283 411.926 257.101 411.778 252.066H410.89C410.89 263.912 410.298 273.684 404.967 284.641C403.338 287.899 402.894 289.824 400.229 292.341C400.229 288.491 398.304 269.242 395.343 267.317C393.714 266.429 392.974 268.798 393.27 270.131L394.602 277.09C394.75 281.828 394.602 292.637 390.605 295.302C390.605 289.38 388.235 283.457 384.682 278.719L382.905 276.35C382.313 276.202 381.424 276.35 381.276 277.238C381.128 278.126 384.534 286.418 384.682 289.824L384.09 297.819L380.832 294.414L378.019 291.601C375.502 289.232 373.725 286.714 369.727 286.714C370.319 292.045 378.907 298.264 376.686 304.334C374.909 309.813 364.693 307.148 361.139 307ZM367.654 310.109L372.688 309.073C371.208 310.405 369.283 310.109 367.654 310.109ZM376.834 296.783L375.354 292.341L377.871 294.266C381.128 297.079 383.349 299.596 383.349 304.038L384.978 302.558L385.422 298.56C385.57 295.598 386.459 292.785 386.311 289.824L384.83 283.605C388.383 286.418 388.828 293.822 388.828 297.819L389.272 301.373C393.714 298.56 395.787 287.159 395.787 281.976L396.379 277.534L397.712 281.532L398.304 289.232L396.823 298.412C401.265 295.598 407.929 283.605 409.409 278.719L409.853 276.202L411.186 268.946H412.222C412.222 275.313 411.334 282.568 409.853 288.639L406.448 296.783C407.336 299.152 410.742 293.97 411.334 293.377C415.628 288.343 418.589 283.013 421.255 277.09C422.291 278.719 421.107 281.532 420.366 283.309C416.961 291.749 411.926 300.04 404.079 304.927C401.117 306.704 398.6 307.444 395.343 308.184C394.75 308.332 393.714 308.777 393.862 309.665C394.306 310.998 402.006 311.738 403.486 312.182C399.637 315.292 386.014 314.255 381.868 312.034L377.871 308.628C379.203 305.075 377.871 300.485 376.834 296.783Z" fill="#FFBC85"/>
<path d="M7.70017 166.928L7.25596 173.146L8.73664 176.7C8.73664 178.033 6.21949 180.698 6.21949 183.215C6.21949 186.473 9.47699 186.621 9.18085 189.73C9.03278 194.764 12.1422 196.985 12.1422 201.872C12.2903 205.277 13.6229 205.425 14.9555 208.091L15.992 211.496C18.0649 215.346 20.7302 218.159 23.2473 221.269L25.7645 225.711L29.3181 228.82C30.2065 230.153 30.2065 231.337 31.6872 232.67L35.0928 234.595C36.5735 235.927 36.4254 237.112 38.6464 238.148L42.6443 239.629C44.1249 240.666 44.5691 243.035 46.0498 244.367L50.9361 246.44C54.4897 248.365 60.2644 253.399 64.1141 252.807C67.5197 252.363 67.9639 253.696 70.6291 254.14C73.5905 254.288 88.8415 254.14 91.0625 253.103C83.8072 265.245 63.6699 259.026 64.1141 280.94L65.1506 290.12C65.1506 302.262 57.303 301.67 54.7858 310.109C53.8974 312.923 56.7107 318.401 55.6742 320.03C55.082 321.067 48.8631 322.991 46.9382 326.249C43.6807 330.691 47.0863 333.948 46.7902 337.946C46.7902 339.279 43.2365 340.463 43.2365 348.607C45.6056 348.311 45.3095 347.571 46.7902 346.238L50.1957 344.609L52.2687 351.124C56.1185 358.528 62.4854 356.011 64.5583 358.824C65.4467 359.86 65.4467 362.822 66.039 364.302L69.0004 371.262C69.8888 372.594 72.2579 373.631 71.3695 375.259C69.8888 378.813 66.6313 376.888 64.7064 378.813C67.0755 380.738 72.554 381.774 75.3673 380.146L78.3287 377.184L81.5862 376.148C82.1784 375.704 83.0669 374.667 83.9553 374.815L86.0282 376.148C89.5819 379.553 82.4746 383.847 79.3652 383.995C80.2536 386.513 82.6227 385.032 84.3995 384.588C86.0282 384.44 87.5089 385.476 89.4338 384.736C93.2836 383.255 92.6913 379.85 94.32 377.332L98.614 372.89C99.9466 372.298 102.464 374.223 104.093 374.371C104.093 375.704 104.093 376.74 103.204 377.777C102.612 378.665 100.391 379.702 100.835 380.738C101.872 382.811 106.61 381.774 107.794 380.294C110.163 377.332 109.127 376 109.867 374.371C110.756 372.742 112.236 372.298 113.421 371.114C115.79 368.744 115.494 364.302 114.457 361.489C116.086 361.489 117.271 361.933 118.011 363.562C119.047 365.931 118.159 368.596 116.678 370.521C115.642 371.854 114.309 372.15 113.865 374.075L117.863 373.038C125.71 370.225 122.601 365.635 122.749 359.416C122.897 354.678 125.266 353.493 121.861 348.607C115.494 339.427 103.796 346.682 96.9853 333.948C93.7278 327.73 98.0218 316.773 103.648 312.923C108.683 309.369 114.309 308.629 119.788 306.26L125.562 302.706L138.74 307.592C137.408 309.665 135.335 311.442 134.447 313.811C131.929 320.326 139.777 325.064 139.481 330.987C139.333 349.051 151.178 340.908 160.358 349.644C162.431 351.717 163.172 352.161 162.876 355.122C162.728 360.453 160.062 361.785 163.912 366.82C164.949 368.152 166.873 369.633 167.318 370.817C167.91 372.89 167.318 375.259 168.206 377.332C169.835 381.626 174.573 380.738 177.534 382.367C180.496 383.699 182.421 386.809 185.826 384.44C185.382 386.365 184.79 387.253 182.569 387.401C182.717 392.88 188.343 387.401 190.268 386.068L193.822 384.736C196.191 384.736 197.227 388.586 201.521 386.809L201.966 387.253L200.189 391.695C201.077 393.028 202.706 391.547 203.446 390.807L206.704 387.549L209.665 386.216L212.182 384.292L217.217 384.884L220.178 384.44L219.734 387.993C221.363 388.438 221.214 387.845 222.251 386.513L223.584 384.884L224.472 382.515L225.064 380.442L225.508 377.925L226.397 376C228.766 376.888 230.839 376.888 231.283 373.927C233.8 375.408 235.281 376 235.577 378.961C241.352 378.073 236.021 371.262 236.021 368.744C235.873 365.487 234.541 362.97 232.023 360.601C225.656 355.122 216.328 361.489 209.073 360.008C207 359.416 200.633 354.974 198.412 353.197C197.375 352.309 193.378 349.348 193.081 347.867C192.933 346.978 193.674 345.794 193.97 344.905L195.303 340.463L199.597 337.206C203.89 333.652 206.556 330.247 207.296 324.62H210.257L209.813 323.584V322.991C212.33 323.88 213.367 325.805 216.476 326.101C216.032 322.695 211.738 320.622 208.777 320.326V322.103C206.852 320.77 205.519 319.142 203.298 320.03C203.89 321.511 205.223 322.399 205.223 324.028C205.667 328.766 200.781 333.356 197.079 335.873L193.526 337.946L193.081 341.204C192.933 346.534 185.678 346.238 196.635 354.826L204.779 360.157C203.002 361.193 202.262 360.749 200.041 360.157L195.154 358.084C193.526 357.047 190.12 353.049 188.639 352.753C187.011 352.605 186.27 354.382 185.086 355.122L181.532 356.159L184.79 352.605C185.678 351.272 186.863 346.386 185.826 345.202C185.234 344.313 182.865 345.054 181.532 344.313C178.127 342.833 176.054 336.169 176.054 332.764C178.571 336.021 178.127 339.723 183.753 339.427C187.011 339.279 186.27 336.614 188.195 335.577L192.933 335.133C196.931 333.8 203.298 328.618 204.039 324.028C204.187 321.955 197.82 314.7 195.895 318.549C197.227 319.586 200.633 322.103 200.929 323.732L200.041 326.249C198.116 329.506 196.783 330.099 193.674 332.024L190.712 333.356C189.084 333.356 187.307 331.431 185.678 330.839C184.79 332.912 187.011 337.354 182.717 337.354C179.755 337.354 177.979 332.616 177.238 330.395C177.09 329.803 176.646 326.989 175.313 327.582C172.944 328.914 174.425 347.275 184.197 347.571C184.197 350.088 181.68 353.938 179.163 354.53C178.127 354.974 172.944 352.605 175.609 356.011C179.015 360.749 188.343 356.011 188.936 356.159C190.416 356.307 194.71 361.045 197.375 362.081C205.075 364.895 215.588 362.229 223.287 360.749C226.693 360.157 234.096 362.378 233.948 366.672C233.948 368.3 231.579 367.708 230.543 368.744C229.062 370.373 230.987 372.742 229.21 373.779C227.285 374.815 219.29 366.82 216.624 372.002L217.661 373.038L220.178 372.15C222.547 372.15 223.435 374.075 224.028 376L224.176 377.925C223.584 379.257 221.363 377.036 220.622 376.888L218.697 377.332C216.624 378.813 218.105 380.886 218.549 382.663L216.032 382.811C210.702 382.367 213.663 376 208.629 374.519L209.073 376.444C209.961 378.221 211.442 379.702 210.702 381.478C210.554 382.811 208.777 384.292 207.444 383.551C205.963 382.959 206.111 379.553 203.89 379.702L201.373 380.294L201.225 383.255C200.189 385.032 197.375 383.255 196.931 381.923L197.375 378.665V376.148H196.339C196.339 379.405 194.71 381.034 191.897 382.367L191.453 379.405C190.564 377.777 187.455 375.556 186.122 377.925L185.678 382.367C184.345 382.219 180.792 381.034 181.384 379.405L183.753 376.888C181.384 374.371 175.461 382.219 170.131 374.371C168.65 371.854 170.131 370.077 169.687 368.152C169.094 365.783 163.468 364.747 163.912 357.936C164.06 352.605 166.429 350.532 161.395 345.794C155.176 340.463 140.517 342.684 140.962 331.135C141.11 328.766 141.998 327.285 141.11 324.916C139.777 321.511 135.631 320.03 136.816 315.292C137.852 310.998 140.813 306.556 145.552 306.556C149.401 306.556 153.251 306.704 157.249 305.964C158.878 305.519 163.468 303.446 164.652 304.039C167.022 304.927 171.167 311.738 173.388 313.811C175.313 313.367 176.202 315.144 177.83 315.736C178.719 313.959 176.498 310.702 174.869 309.517L172.352 308.925C171.315 308.333 167.318 303.15 167.614 302.114L175.906 294.858L181.236 287.455C187.455 275.165 182.865 252.659 175.017 241.702C173.685 239.925 171.167 236.223 169.243 235.483C167.318 234.595 166.725 236.52 167.762 237.852C169.835 240.369 172.5 242.146 174.425 245.256C178.275 251.919 181.088 264.653 174.425 270.279C166.725 277.09 161.247 264.949 161.099 264.801C160.21 264.356 159.766 265.393 159.766 265.837C159.174 270.575 169.391 277.534 169.539 284.049C169.687 293.23 158.73 294.414 152.955 289.528C151.474 288.195 148.069 284.494 147.18 282.569L145.552 278.127C143.775 278.719 143.627 279.459 143.183 281.088C141.554 288.047 150.586 293.674 147.921 297.228C147.032 298.264 145.552 298.56 144.515 298.708C136.668 300.041 129.708 290.416 127.043 284.049C126.155 282.125 125.118 277.831 123.193 277.386C123.193 281.828 123.193 288.492 120.38 292.045C113.865 300.485 96.9853 293.526 91.951 314.552C89.878 322.843 94.9123 337.058 102.76 341.056C106.314 342.981 110.459 342.536 114.013 344.017C117.567 345.498 124.23 350.532 121.268 355.566C119.64 358.084 116.234 356.011 114.457 358.084L111.94 355.122L104.241 349.792L100.835 346.83C100.835 352.161 107.794 354.086 110.756 358.084C116.086 365.487 109.127 372.594 101.575 369.189L99.0582 367.264L98.9102 364.006C98.3179 360.157 94.172 350.384 90.0261 349.94L93.4316 355.418C94.9123 357.491 97.2814 363.118 96.8372 365.635L95.8007 367.56C96.393 371.114 93.4316 372.298 90.7664 372.298C89.2857 372.298 87.5089 372.298 86.0282 371.41L84.9917 370.077V367.116C84.8437 363.118 82.9188 354.086 78.6248 352.901L81.142 357.343L83.0669 365.635C83.5111 374.519 74.9231 371.854 71.2214 367.56C67.6678 363.562 67.2236 355.27 66.1871 353.938C65.2987 352.605 58.7837 351.865 56.8588 350.532C49.6035 345.794 56.2665 336.91 45.7537 341.204C47.2344 338.094 49.7515 338.391 49.7515 337.206C49.8996 335.577 45.4576 330.987 47.8266 326.545C50.3438 322.103 56.1185 322.251 58.0433 319.734C59.376 318.105 56.2665 311.59 57.4511 308.629C59.9682 301.818 69.5927 307.74 69.5927 285.234C69.5927 274.869 79.3652 270.723 86.1763 265.097L92.6913 258.138C95.5046 254.88 103.5 235.631 96.2449 234.743L95.6526 242.442L94.32 246.884C91.0625 245.552 90.9145 248.809 87.805 249.402C84.8437 249.994 84.5475 248.365 82.7707 248.513L78.7729 249.846C75.9596 249.994 75.2192 248.809 72.2579 249.402C70.1849 249.846 69.2965 248.513 67.5197 248.069C65.891 247.477 64.1141 248.957 62.0412 248.069L47.5305 239.629C45.0133 237.556 45.6056 235.779 44.7172 235.187C43.8288 234.299 41.4597 235.187 39.2387 233.41L37.1657 230.597L33.316 228.08L30.9469 224.082L26.6529 220.528L24.728 217.123L21.3224 213.569L19.9898 210.608L17.4727 207.35L17.0285 204.389C15.992 202.316 14.5113 202.612 14.2152 199.355C14.2152 191.507 12.2903 195.357 10.8096 190.618C10.2173 188.99 11.4019 187.065 10.9577 185.732C10.5135 184.4 8.88471 183.807 8.44051 181.438C7.84824 178.625 10.9577 176.404 10.8096 174.479C10.8096 173.443 9.18085 171.666 8.88471 169.741C8.73664 167.816 10.5135 166.187 9.92119 164.262C9.47699 162.634 7.84824 161.745 7.84824 159.82C7.70017 156.859 9.77312 155.526 10.3654 153.009C10.8096 151.677 8.88471 150.048 9.32892 147.531C9.47699 145.162 11.2538 144.717 11.698 143.089C11.8461 141.608 10.8096 139.831 11.5499 138.054C12.5864 138.498 14.8074 137.018 15.1036 135.537C15.2516 134.056 13.6229 133.464 14.2152 131.095L16.5843 126.357C17.0285 124.432 15.5478 123.099 15.992 121.471C16.4362 119.398 18.3611 118.953 18.3611 116.732C18.5091 110.366 21.9147 111.846 24.1357 108.441L24.728 104.591L27.0971 101.037L28.1336 97.4836C30.0585 94.078 33.6121 89.0437 36.5735 86.3785L40.4232 84.3055C41.3116 83.4171 40.8674 81.4922 41.4597 80.3077L45.7537 73.6446L50.4919 70.3871C51.8245 69.0545 51.9725 66.8335 53.7494 65.9451L56.7107 65.0567C57.7472 64.4644 58.0433 62.2434 61.0047 60.6146C62.9296 59.282 65.0025 59.5781 66.9274 58.5417C68.7042 57.6532 68.8523 56.0245 70.9253 55.2842H74.9231C76.5519 55.2842 77.4403 53.9515 79.2171 53.6554H83.2149L86.6205 50.8421C88.5454 49.9537 89.5819 50.9902 91.3587 50.8421L95.3565 48.7692C98.1698 48.1769 99.7986 50.1018 101.872 49.6576L106.314 47.7327C108.238 47.1404 109.275 47.8808 111.052 47.7327L114.605 46.6962C116.53 46.6962 117.123 48.7692 120.084 48.7692L124.082 49.2134L127.043 50.8421H131.781C133.706 51.7305 133.706 53.6554 135.335 53.8035L142.738 51.4344C150.882 48.9172 160.951 43.7348 160.951 33.9623C160.951 18.7113 135.483 17.3787 138.444 26.2628C139.037 28.78 141.85 28.3358 143.331 30.2606C140.369 31.149 140.073 33.5181 136.075 33.5181C126.451 33.222 123.638 11.1598 141.998 9.67916C150.438 9.08689 163.32 16.4903 167.022 23.8937C172.5 34.7027 171.76 51.1382 161.691 58.6897C155.324 63.4279 146.44 62.2434 139.333 64.4644C139.481 62.8356 143.183 56.7648 142.294 55.5803C141.406 53.9515 139.333 56.1726 138.74 56.9129C136.223 60.0223 128.82 67.4258 124.526 67.7219C125.414 66.2412 126.599 63.2798 126.007 61.503L124.526 60.0223C122.601 61.355 121.713 63.2798 120.232 65.2047C117.715 68.3142 111.94 70.6832 107.942 71.1274L109.423 67.7219C109.867 66.3893 111.052 62.8356 109.423 62.2434C108.831 62.2434 108.387 62.2434 107.942 62.3914L105.129 66.6854L98.1698 74.385C98.0218 73.0523 98.7621 64.1682 95.3565 66.0931C94.32 66.5373 92.9874 70.5352 92.3952 71.8678C91.0625 74.2369 88.8415 75.7176 88.1012 78.3828C85.2879 76.4579 87.2128 70.9794 84.5475 69.4987C83.5111 69.0545 82.4746 69.6468 82.1785 70.8313L82.3265 72.7562L80.6978 79.4193L75.8115 87.1188C74.0347 84.7497 74.4789 77.9386 71.9617 76.3098C70.9253 75.7176 70.0369 76.4579 70.0369 77.6425L69.5927 83.121L68.5562 88.1553L65.7429 95.1145H64.7064C64.2622 93.3377 62.7815 88.7476 61.1528 87.8592L59.0798 87.7111L59.6721 94.3742C59.524 97.1875 58.3395 100.741 57.5991 103.554L56.1185 107.996C53.7494 105.183 53.3052 102.518 49.1593 102.518L50.1957 112.142L50.0477 117.177L49.1593 122.655H48.2708C47.6786 120.73 43.2365 117.917 42.4962 121.174L42.9404 123.692C43.5327 126.061 46.346 135.537 44.4211 137.314C43.5327 137.906 42.052 136.426 41.1636 136.277L38.6464 135.537C38.7945 138.795 40.7194 139.831 42.052 142.052L43.0885 145.606L44.1249 150.344V153.749C41.1636 152.713 39.2387 151.825 35.9812 151.825C36.4254 153.749 38.3503 154.638 39.5348 156.267L42.9404 161.301C45.3095 164.707 47.8266 168.26 48.2708 172.554C45.4575 172.554 40.4232 172.998 37.9061 174.627C36.8696 175.516 34.9447 177.588 36.5735 178.625C38.0541 179.661 44.273 174.331 53.3052 184.548C54.1936 185.14 55.8223 186.917 55.6742 187.953C55.6742 188.546 45.9018 193.284 44.4211 195.653C43.5327 197.133 41.6078 202.464 45.4576 200.983L49.8996 198.022C53.3052 196.541 62.6335 196.393 64.7064 200.391C65.1506 201.724 62.6335 202.464 61.8931 202.908C59.524 204.537 52.2687 210.312 55.9704 214.013C57.4511 215.494 64.2622 209.719 67.0755 208.979C73.8866 206.462 81.29 208.831 87.2128 212.533L83.2149 214.013L80.6978 215.938C76.6999 218.751 72.9982 222.453 72.9982 227.784C74.9231 227.339 76.2557 226.007 77.7364 224.822C81.142 222.453 84.6956 221.565 88.8415 221.565C94.172 221.565 98.0217 224.822 103.056 224.526C103.648 224.526 105.425 224.378 105.425 225.118L102.168 232.818C101.575 234.299 99.2063 244.663 99.7986 245.996L101.427 247.477C101.575 243.035 105.425 239.185 107.794 235.779L115.642 225.118L124.082 217.271L129.116 211.496C134.15 206.758 147.18 198.762 153.992 197.726L150.586 201.724L145.107 208.239C141.85 212.533 135.927 221.861 134.447 226.895L133.558 234.151L132.226 241.85C133.114 241.702 133.558 241.702 133.854 240.814L138.296 230.597C146.144 217.567 166.133 199.799 180.792 195.061C186.567 193.432 192.045 193.136 197.968 193.136L188.047 200.687C181.088 206.166 171.908 216.678 167.614 224.23L162.728 234.891C162.283 236.223 161.395 238.889 163.616 238.889L173.833 226.747C182.273 218.307 195.154 207.202 206.408 202.316C196.635 212.088 188.936 223.786 187.751 238C187.307 241.406 188.343 245.256 188.195 248.661C188.195 250.734 186.122 254.14 185.678 256.657C183.605 264.949 188.639 269.835 192.489 276.498C194.858 280.496 196.783 285.678 196.931 290.12C196.931 291.601 195.599 294.562 197.82 294.562C200.633 294.562 200.781 288.195 200.781 286.122V283.605C200.633 272.056 189.972 265.097 190.12 253.844C190.564 237.704 199.448 223.638 210.998 212.977C215.44 208.979 220.178 204.685 225.656 201.872C215.44 212.236 207.148 229.116 207.444 243.923L208.481 248.957L208.036 251.919C210.405 250.142 209.961 244.663 210.554 241.998L212.182 237.26C215.44 229.116 234.541 207.794 242.98 206.462C241.944 209.423 242.388 214.309 242.832 217.567L243.277 221.565C244.609 228.82 247.274 234.891 251.42 240.962C253.049 243.775 254.826 246.736 258.231 247.477C257.343 244.515 253.789 240.962 252.309 237.852C250.384 233.854 248.755 229.116 248.755 224.674C248.755 217.271 251.124 207.646 256.455 202.168C258.972 199.651 260.749 195.801 264.598 195.209C265.043 200.095 271.558 209.275 275.259 212.384L278.221 214.457C280.59 216.53 283.107 219.196 286.364 219.492C285.772 216.678 281.626 214.013 279.998 211.2C276.74 206.758 272.742 200.835 272.742 195.061C272.742 185.436 276 178.921 284.44 173.739C285.92 176.256 287.993 178.181 290.658 179.513L293.028 180.846C295.841 182.475 295.545 183.807 299.246 183.955C298.802 180.55 283.255 173.146 283.551 157.451C283.551 154.49 286.068 147.086 287.549 144.273L291.399 140.275C292.879 138.202 293.768 133.612 293.768 131.095C294.36 133.02 293.768 136.426 294.656 137.462C296.433 139.979 299.543 137.906 301.467 136.87C303.54 135.833 305.761 134.797 306.946 132.576C308.279 133.908 308.723 134.056 310.5 134.204L309.019 129.466C308.871 128.43 308.427 127.097 308.427 125.913C308.279 122.655 306.058 119.99 305.909 124.432L306.354 129.911C305.909 131.687 300.135 135.241 298.506 134.649C296.581 134.056 295.989 120.878 288.734 120.582C288.141 120.582 287.401 120.73 287.401 121.471C287.401 121.915 295.397 132.576 289.03 135.685C283.551 138.498 283.107 128.43 281.33 125.913C280.442 125.024 277.48 121.619 276.296 123.544C275.407 125.024 278.813 129.318 277.628 131.391L272.594 136.129C258.972 151.232 258.083 131.835 249.199 134.501C246.682 135.093 252.161 139.535 252.753 140.868C253.197 141.756 253.197 143.385 251.716 143.385C250.68 143.385 250.088 141.46 249.347 140.868C248.015 138.943 240.167 132.724 238.242 136.129C237.206 138.498 241.648 139.535 241.796 142.792C231.875 138.795 229.21 144.569 218.697 134.945C217.661 134.056 215.884 132.132 216.18 130.651C216.624 128.726 224.62 126.357 226.841 127.541C230.395 129.466 231.579 132.28 236.465 132.576C244.905 133.464 247.719 126.653 254.678 126.653C261.933 126.653 269.337 123.692 273.779 117.917C282.219 107.552 272.89 95.4106 263.858 89.0437C260.008 86.2304 254.086 84.1574 250.828 80.7519C247.274 77.3463 245.794 70.8313 248.311 66.2412C249.347 64.1683 254.234 66.8335 256.751 67.1296C260.156 67.5738 265.191 64.7605 267.856 62.6876C267.708 64.7605 266.968 66.0931 267.856 68.1661C262.822 71.4236 261.341 79.2712 263.562 84.4536L267.856 91.4128C268.448 92.4493 271.41 95.4106 272.298 92.8935C272.742 91.5609 270.225 88.4514 269.485 86.9707C268.596 84.1575 268.892 81.4922 268.892 78.6789L270.965 81.9364C272.594 84.4536 274.519 87.8592 277.925 87.8592L276.592 83.4171L275.259 74.6811L279.553 78.5309C280.886 79.8635 286.513 82.3806 285.772 78.3828L284.143 75.4214C282.811 73.0523 281.182 68.1661 280.886 65.6489C284.292 66.2412 287.105 67.2777 290.658 67.2777C291.251 67.2777 294.508 67.2777 293.62 65.797L287.253 60.4665L284.884 55.5803C282.07 49.8056 278.665 43.2906 271.262 46.8443C268.892 42.1061 266.523 37.664 260.601 38.4044C258.528 38.8486 255.862 38.5525 253.938 39.4409L247.719 43.2906C249.199 33.9623 242.388 34.8507 241.352 37.8121C240.315 41.2177 245.794 37.664 245.646 40.7735C245.053 47.1404 234.393 50.694 229.062 49.2134C226.545 48.325 225.508 46.6962 223.287 45.3636L223.88 44.3271C227.433 45.8078 230.839 44.3271 234.096 42.6984C235.429 41.81 236.169 41.6619 237.354 40.3293C240.167 36.7756 238.687 29.2242 233.504 28.6319C233.504 26.1147 233.356 23.1534 234.096 20.4881L237.058 22.1169C238.983 23.7456 237.65 27.4473 237.058 29.5203C242.092 29.2242 239.427 23.3014 241.352 21.3765C242.24 20.4881 243.277 21.2285 244.165 21.5246L246.682 22.1169C248.607 23.1534 248.163 27.1512 248.163 29.3722L250.088 28.78L251.568 25.8186C253.197 23.7456 256.307 22.413 256.455 26.4109V28.3358L258.083 28.928L259.564 32.3336C259.712 33.3701 260.453 34.2585 261.045 34.8507C263.858 38.2563 267.412 39.5889 271.41 39.5889C273.483 39.5889 275.704 39.5889 277.628 38.5525L280.59 35.5911C280.59 45.2155 287.253 45.2155 291.251 51.7305C292.287 53.2112 292.731 59.1339 294.656 57.6533C300.875 52.6189 293.324 41.0696 292.731 35.5911C300.135 35.5911 302.948 42.8464 305.021 43.7348C306.946 44.6232 306.65 40.4773 306.502 39.737L305.465 36.1834C316.718 36.1834 322.493 39.2928 328.86 48.9172C327.824 49.0653 321.457 52.1747 321.457 49.8056C321.457 48.7692 325.454 44.7713 322.789 43.2906C321.309 42.2542 318.051 43.8829 316.126 43.8829C307.686 43.8829 303.985 50.1018 303.985 58.0975C303.985 61.503 305.465 64.4644 305.465 68.018C305.465 77.6424 301.615 74.8292 300.431 78.6789C302.8 78.6789 303.985 78.5309 306.206 77.3463C313.165 73.7927 311.98 68.018 314.645 66.0931L315.978 69.4987C317.607 74.533 316.57 79.4193 313.609 83.7132L310.203 87.7111C312.573 87.7111 313.017 87.563 315.238 86.3785C320.124 83.8613 322.197 80.1596 322.197 74.533C325.01 76.3098 327.527 81.9364 326.491 85.1939L324.122 89.9321C326.195 90.5244 326.639 89.9321 328.416 88.5995C332.266 85.1939 332.266 79.2712 331.229 74.533L329.897 70.5352C331.821 70.5352 335.227 70.3871 335.819 68.018L330.933 68.6103H326.639C326.639 71.4236 327.083 71.1275 328.12 73.6446C329.156 76.0137 329.6 78.5309 329.156 81.048C327.231 77.6425 326.639 74.6811 323.233 71.8678C321.753 70.8313 319.828 69.4987 319.236 71.8678L318.347 68.9064C317.459 66.5373 315.83 62.9837 313.461 62.0953L310.944 61.9472C310.944 64.0202 311.388 66.3893 310.352 68.4622L307.982 72.9043V69.3506C307.982 65.0567 306.354 61.503 306.057 57.209C305.909 55.5803 306.65 53.8035 307.39 52.1747C309.907 47.1404 311.388 46.6962 316.718 45.9559L320.124 45.5117L318.643 48.0288L317.015 49.6576C316.422 51.1382 318.347 51.7305 319.384 52.0267C323.233 53.0631 324.27 52.1747 327.824 51.5825C327.824 55.8764 325.751 56.4687 322.789 58.5417C324.418 60.9107 328.564 60.3185 331.081 60.3185L327.824 63.8721C326.195 66.8335 334.635 65.797 335.967 64.9086L336.56 63.576L333.302 63.4279L331.377 63.576C332.266 62.0953 333.894 61.2069 334.339 59.5781H335.375L338.781 68.7584C342.038 80.0115 344.259 90.3763 342.334 102.37C336.411 98.372 329.6 94.078 322.197 94.078H319.236V95.7068C340.557 95.7068 352.551 115.252 352.551 134.649C352.551 137.166 352.995 139.535 352.403 141.904L350.774 146.938C355.068 145.606 354.772 134.797 354.772 131.243C354.772 125.32 352.403 118.213 350.034 113.031C347.517 107.552 344.999 106.22 344.999 99.8527C345.147 89.4879 344.111 80.9 342.186 70.9794L341.742 66.2412L338.929 62.6876L335.671 55.2842L338.188 54.84C340.705 54.84 347.369 56.7648 349.441 58.0975C351.07 59.4301 351.514 61.3549 353.439 61.9472L352.995 57.9494L349.441 54.0996C345.888 51.2863 342.186 48.1769 337.3 48.1769C335.671 48.1769 332.562 48.1769 331.081 47.2885L327.824 42.9945L322.345 37.516L332.562 36.0353C347.072 35.8872 363.952 47.4365 370.171 60.4665L373.725 69.3506C374.613 72.312 374.317 75.7176 376.094 78.0867C380.388 74.6811 371.356 57.061 368.69 53.6554C359.51 43.2906 346.184 29.3722 331.081 29.3722H325.603C316.866 29.3722 307.39 40.0331 300.727 30.4087C305.021 28.6319 309.907 28.0396 314.349 27.8915C315.682 27.8915 318.791 28.4838 319.68 27.7435C321.012 26.1147 317.903 24.9302 316.866 24.486C314.497 23.5976 309.019 22.413 306.65 23.1534L306.206 22.7092L313.905 18.7113L319.828 17.2306C322.197 15.4538 316.422 15.1577 315.83 15.1577C313.461 15.1577 310.055 14.7135 307.686 15.6019C305.317 16.1942 302.948 18.119 300.727 18.5633C297.322 19.1555 294.212 16.1942 290.51 18.5633C286.957 21.0804 291.991 23.8937 284.292 27.2993C284.292 24.7821 284.143 21.9688 280.886 21.8208C280.886 23.7456 281.774 28.0396 281.33 29.6684C280.294 32.6297 277.036 34.7027 274.371 35.5911C256.899 41.3658 256.751 14.7135 271.113 14.7135C277.925 14.7135 278.073 20.192 281.774 20.6362C281.626 14.7135 272.594 11.456 267.708 12.7886C265.635 13.2328 264.154 14.5654 262.674 15.75C260.304 17.6748 259.268 19.1555 259.12 22.1169L254.382 21.2285L250.976 21.3765C249.644 21.2285 246.978 18.8594 246.682 17.5268L247.571 13.5289L249.94 0.795073C248.903 -1.27788 246.978 1.23928 246.386 2.27575L244.905 7.01394C243.425 9.9753 241.352 13.3809 240.463 16.6384H239.427C238.983 14.1212 237.502 10.8637 236.021 8.49462C235.429 7.90235 233.652 4.94098 233.06 7.01394C232.616 8.34655 234.096 14.4173 233.948 16.6384C232.023 13.677 230.543 7.45814 227.285 5.82939L224.768 5.68132L226.101 10.7156L226.693 15.1577L224.176 14.7135L221.214 11.1598C219.141 9.67916 213.219 3.75644 210.85 2.86803L208.925 2.71996H206.852C207.444 4.64485 210.405 6.56973 211.738 8.19848C214.255 11.456 217.069 16.0461 218.549 19.8959C219.438 22.7092 214.996 24.3379 215.144 27.5954C215.588 33.9623 224.916 37.516 228.766 32.0375C231.135 34.5546 232.023 36.4795 228.766 38.8486C224.028 42.2542 221.955 36.9237 219.882 39.4409L216.476 50.2498L211.442 60.0223L206.704 65.5009C206.26 66.5373 203.446 73.7927 205.371 73.7927C208.184 73.7927 220.03 52.767 224.028 50.2498V60.0223C224.028 61.9472 222.103 68.6103 222.547 69.6468C223.139 70.6833 224.472 70.6833 225.508 70.6833C226.101 66.6854 228.47 57.5052 230.543 54.2477C230.543 56.6168 231.579 66.3893 232.616 68.018C233.06 68.6103 233.652 69.0545 234.541 68.6103L235.577 66.9815L235.429 62.9837L235.577 55.2842L236.91 57.8013C237.502 59.1339 238.39 64.0202 239.427 64.6124C241.5 66.0931 241.796 61.355 241.796 60.3185V56.7648C241.648 54.84 240.463 52.0267 241.944 50.3979L245.794 47.2885C244.313 51.1382 243.721 54.988 244.313 58.9859L245.794 63.4279C245.646 65.9451 240.019 70.091 241.352 77.6425C242.24 82.6768 244.905 87.8592 249.495 90.6725L254.382 93.6338L258.824 104.739C258.676 106.664 256.455 110.217 254.53 110.217C253.197 110.366 250.68 105.775 249.495 104.739C243.573 99.8527 238.39 104.591 234.393 100.889C230.839 97.9278 229.506 93.0415 225.064 90.6725C222.547 89.1918 219.29 88.5995 216.328 89.1918C215.44 89.636 213.367 90.2282 214.255 91.7089C214.699 92.3012 217.809 93.6338 219.141 96.0029C222.399 101.333 218.253 106.664 226.101 109.773C221.066 112.735 222.843 109.625 219.882 107.996L213.367 107.108L211.886 107.552L213.663 113.771L213.811 116.732L213.367 121.471L212.33 126.949H210.85C210.998 129.762 211.886 129.318 212.775 131.391L214.699 135.537C218.105 140.275 226.101 143.829 231.727 143.829C236.465 143.829 239.575 144.421 242.98 147.827C246.534 145.902 244.461 142.052 242.98 139.535C248.311 141.312 245.498 146.494 248.903 147.234L250.976 146.79L253.938 146.346L258.824 150.344C266.968 159.228 269.04 163.522 265.043 175.219C264.45 177.144 263.71 181.438 262.081 182.179L256.603 184.548C253.049 184.992 240.611 182.179 239.871 187.805L249.051 186.324L253.789 186.769C252.309 190.026 249.347 192.099 247.423 195.061C246.386 196.689 244.609 201.872 243.425 202.908C241.648 204.537 238.094 205.869 236.021 207.202L226.693 214.902L217.069 226.007L213.811 229.56L210.554 235.039C210.554 232.67 211.146 232.522 211.886 230.597L214.699 221.861C217.661 215.642 222.547 208.831 227.433 204.241C229.802 201.872 233.208 200.243 235.281 197.874L235.873 195.949C230.395 195.949 229.506 197.726 224.768 199.947C210.109 207.202 191.897 226.155 190.12 243.035C186.122 233.262 199.893 213.273 206.26 206.462C207.592 204.981 216.92 198.318 214.403 196.837C213.367 196.245 208.036 198.762 207 199.355L197.375 204.241C186.566 210.608 177.83 219.492 168.946 228.228C173.685 218.9 187.011 203.945 195.895 198.466C199.3 196.393 202.41 194.172 206.556 193.136C207.444 192.988 209.813 192.691 209.813 191.655C209.813 189.582 200.633 190.767 199.004 190.767C176.646 190.767 164.8 199.058 149.253 214.606C146.44 217.123 140.962 225.266 138.592 226.747C139.925 220.232 150.882 205.721 155.768 200.835L161.691 195.801L162.283 193.876C155.916 193.876 149.105 196.689 143.627 199.799C132.374 206.018 122.749 213.421 114.457 223.342L104.093 237.408C104.241 234.002 111.348 220.972 111.348 220.824C111.2 219.196 104.981 222.157 103.056 222.305C98.7621 222.453 95.2085 219.788 90.7664 219.788C86.7686 219.788 83.8072 220.38 79.6613 221.269C95.6527 207.942 93.8758 221.417 108.09 215.494C118.307 211.052 125.266 202.168 134.447 195.801C141.85 190.47 153.992 183.955 163.32 183.659C166.429 183.659 173.537 186.176 175.017 186.028C179.755 185.14 183.901 181.734 189.232 181.734C194.266 181.586 199.597 183.067 204.335 184.696C206.704 185.732 209.073 187.213 211.59 187.657C213.959 187.805 219.734 186.324 222.695 186.176C225.212 186.176 228.026 186.769 230.395 187.657C233.208 188.546 237.798 192.395 239.575 187.213H235.133C231.727 186.769 228.914 183.807 224.916 183.659L218.401 184.252L212.182 184.844L205.223 182.031C200.929 180.698 196.339 179.958 191.897 179.513C189.38 179.365 184.197 180.106 181.976 180.994C179.903 181.586 177.979 182.919 175.758 182.919L170.723 181.586C167.318 180.994 163.468 181.142 160.062 181.586C146.884 183.067 133.706 192.839 123.786 200.983C121.417 203.056 117.123 207.942 114.457 209.127C107.942 212.088 89.7299 207.202 83.6591 203.797C80.1055 201.872 77.8845 199.503 74.9231 196.985L70.0369 193.136C64.5583 187.213 60.4124 178.477 57.4511 170.777C55.082 164.855 52.1206 156.119 52.1206 149.456C52.1206 130.503 58.9318 110.958 71.8137 96.7432C76.1077 92.3012 82.0304 88.4514 86.9166 84.8978C92.2471 81.048 97.7256 77.6424 103.648 75.1253C117.419 69.7948 131.041 68.3142 145.7 68.3142C152.511 68.3142 162.876 65.9451 168.058 61.355C171.612 57.9494 173.092 53.9515 174.573 49.6576C180.792 32.4817 172.648 13.9731 155.916 6.7178C144.367 1.83155 122.305 4.20064 122.305 20.3401C122.305 28.78 126.155 40.4773 136.519 39.4409C140.073 39.2928 142.294 38.8486 144.663 36.0353C145.7 34.5546 147.18 30.5568 146.44 28.78C145.848 27.2993 139.185 26.2628 142.442 24.0418C149.698 18.5633 164.356 29.8164 157.101 39.2928C153.843 43.7348 144.071 50.546 138.148 50.694C136.668 50.694 135.335 49.0653 133.706 48.6211L128.672 48.473C124.23 47.1404 118.751 44.179 114.013 44.4752L104.833 45.8078L101.872 47.2885C99.9466 47.4365 97.8737 46.252 95.6526 46.6962L90.6183 48.325L86.1763 48.9172C83.2149 49.9537 84.2514 50.9902 80.4016 50.9902L69.2965 53.5073C67.6678 54.3957 66.9274 56.0245 65.2987 56.7648C62.7815 57.8013 60.5605 58.0975 58.0433 59.5781L55.5262 62.5395C54.1936 63.8721 52.5648 63.8721 51.2322 65.3528C50.1957 66.6854 49.7515 68.6103 48.715 69.6468C46.7902 71.1275 44.8653 71.2755 43.3846 73.4965L39.831 78.9751C38.9426 80.6038 38.7945 82.2326 37.4619 83.4171L31.6872 88.7476C29.1701 91.7089 21.7666 103.851 22.8031 107.404C17.0285 110.366 18.0649 112.142 15.992 117.029C15.1036 118.953 14.3632 118.953 14.3632 121.323L14.5113 126.209C13.3268 128.282 11.8461 129.17 11.698 131.391L12.1422 135.685L10.0693 139.091L9.62505 144.569C8.88471 146.494 7.70017 147.827 7.40403 149.752C6.95983 151.677 8.29244 153.157 8.29244 154.786C8.29244 156.119 5.77528 159.228 5.77528 162.041C5.47915 164.262 7.25596 165.299 7.70017 166.928ZM236.762 374.963C234.837 374.519 233.356 373.927 232.764 372.002C234.689 372.298 235.873 373.038 236.762 374.963ZM221.066 381.182C222.399 382.071 222.695 382.663 222.991 384.144C221.511 383.699 221.363 383.107 220.622 381.626L221.066 381.182ZM204.039 383.551C205.519 382.663 205.667 385.92 205.667 386.809L205.223 388.882L203.89 387.993C203.742 387.549 203.15 383.995 204.039 383.551ZM187.455 386.661L187.011 381.923C191.305 380.59 190.86 385.624 187.455 386.661ZM94.7643 315.144C96.8372 308.333 103.056 303.891 109.867 301.966C112.68 301.077 117.715 300.041 120.084 298.412C123.341 295.895 124.822 290.713 125.118 286.863L127.932 290.861C131.189 296.191 134.595 301.225 140.962 303.15C143.775 304.039 149.846 302.706 150.734 299.301C151.622 295.747 144.811 288.047 145.404 285.234L148.661 289.232C152.215 293.526 155.916 296.931 161.839 296.635C163.912 296.635 166.133 296.191 167.762 294.71C170.131 292.637 172.056 289.824 171.76 286.567C171.76 282.125 168.206 279.607 167.762 275.906L170.279 276.35C172.648 276.35 174.721 274.869 176.498 273.389C181.976 268.058 179.459 264.504 181.532 262.728L182.569 276.35C182.569 293.822 165.097 306.112 148.957 306.26C142.738 306.26 137.408 305.371 131.781 303.002C130.301 302.41 126.303 299.152 125.266 299.597L121.268 303.891C118.899 305.223 115.79 305.371 113.125 305.964C108.831 307.296 103.204 310.406 100.391 313.811C97.8737 316.921 96.393 323.436 94.172 325.509C93.1355 322.547 93.7278 318.549 94.7643 315.144ZM120.528 361.785H121.565C122.157 365.783 122.453 366.523 121.12 370.521H120.084L121.12 365.487L120.528 361.785ZM108.387 375.408C107.794 377.48 107.794 378.813 105.425 378.961C106.017 377.332 106.017 374.815 108.387 375.408ZM89.4338 377.925L91.5067 377.48C91.5067 380.294 90.1741 382.515 87.5089 382.959C87.805 382.071 88.6935 378.369 89.4338 377.925ZM74.3308 375.408H74.775L75.8115 376.444C74.9231 378.369 74.3308 378.517 72.406 378.517L74.3308 375.408ZM67.3716 295.303V291.305C67.9639 292.341 67.9639 294.266 67.3716 295.303ZM89.7299 260.951L84.6956 266.281C80.8458 269.243 76.4038 271.316 73.1463 274.721C70.7772 277.238 69.5927 280.052 68.4081 283.161L67.3716 287.159L66.3352 281.68C66.1871 268.058 73.5905 267.17 83.5111 262.135C86.3244 260.655 89.4338 257.397 92.2471 256.805L89.7299 260.951ZM318.939 73.6446C319.976 75.2734 319.384 79.4193 317.903 80.8999L318.939 73.6446ZM345.296 54.988L340.261 53.9515L335.523 53.5073L334.19 53.0631L332.858 50.9902C336.56 49.8056 343.371 51.7305 345.296 54.988ZM331.081 52.4709L332.118 54.988L334.042 58.9859H327.527L329.452 56.0245L331.081 52.4709ZM321.605 33.5181L327.083 32.0375C330.637 32.0375 337.892 32.1855 340.261 35.295H334.783L331.525 34.8507L323.382 35.8872L318.939 36.7756L316.422 36.3314C317.015 34.1104 319.68 33.9623 321.605 33.5181ZM283.255 36.6276C283.847 35.1469 285.18 34.8507 286.068 33.3701L287.401 29.5203C288.437 28.0396 292.139 29.6684 293.176 26.2628H291.695C291.695 23.8937 290.806 20.4881 294.212 20.3401L297.173 20.4881C298.506 20.9323 299.098 21.8208 300.727 21.5246L305.169 19.4517L310.648 17.8229L307.242 19.8959L302.504 23.0053C301.467 23.8937 300.431 25.5225 302.504 25.8186L307.982 25.2263L314.201 25.8186V26.8551C311.684 26.8551 297.47 27.7435 298.062 31.2971C298.21 32.6297 303.096 35.5911 303.985 40.0331C302.356 39.4409 301.467 38.1082 299.987 37.0718C297.914 35.443 294.212 33.8143 291.547 34.5546L289.474 35.443C290.955 38.2563 294.952 48.7692 294.36 51.5825L293.472 52.6189L290.214 48.1769C287.549 45.6597 281.626 41.3658 283.255 36.6276ZM245.942 12.1963C245.498 14.7135 245.053 18.4152 242.388 18.8594C242.536 16.9345 243.721 12.9367 245.942 12.1963ZM218.105 12.1963C219.734 13.5289 220.474 14.7135 220.622 16.9345H219.586L218.105 12.1963ZM230.395 28.3358L228.026 30.1126C226.545 31.5933 225.657 32.4817 223.584 32.9259C219.142 33.9623 216.18 29.5203 218.105 25.5225L219.586 27.5954C221.066 25.2263 219.142 22.7092 220.622 20.7843C226.545 13.677 233.356 24.3379 230.395 28.3358ZM229.062 41.2177C231.135 40.3293 233.356 37.8121 233.06 35.295L232.023 31.7413C236.762 32.6297 236.465 38.7005 233.06 41.0696C231.135 42.5503 227.285 42.9945 224.916 42.9945L229.062 41.2177ZM218.401 52.4709C218.993 50.8421 219.438 48.473 221.363 47.7327C221.066 49.6576 219.882 51.2863 218.401 52.4709ZM226.545 55.4322V52.4709H227.581L226.545 55.4322ZM270.965 54.988L271.113 52.0267C273.038 53.5073 272.446 56.7648 270.077 57.5052L270.965 54.988ZM269.485 63.4279C272.89 55.2842 277.184 59.1339 272.742 48.7692L276.296 48.9172C280.146 49.9537 281.33 55.8764 282.959 58.8378L286.957 65.0567C284.143 64.9086 281.034 62.6876 279.553 62.9837C275.259 62.9837 281.33 76.0137 281.922 77.6425C277.48 76.3098 276 69.4987 274.223 68.9064C272.742 68.3142 272.298 70.5352 272.298 71.7197V75.7176L273.334 82.6768C271.854 81.1961 270.373 76.3098 269.337 74.2369C266.967 75.8656 265.783 78.9751 265.783 81.6403C265.783 82.9729 266.375 84.1574 265.783 85.1939C264.302 80.3077 263.266 76.754 266.375 72.0159L269.337 69.0545C269.633 67.8699 268.152 66.8335 269.485 63.4279ZM257.935 41.2177C259.564 41.2177 262.674 41.0696 264.154 41.81C270.669 45.3636 268.892 58.0975 264.006 62.3914C262.525 63.724 257.639 64.7605 255.566 64.7605C253.197 64.3163 249.792 63.2798 248.163 61.503C242.684 55.4322 249.644 41.3657 257.935 41.2177ZM250.976 114.511C254.53 113.179 259.712 110.662 260.749 106.664C262.229 101.778 257.935 99.4085 257.491 95.5587C260.304 95.5587 262.525 97.4836 264.45 99.5565C270.225 105.923 268.004 117.029 259.416 119.546C256.01 120.582 254.086 119.398 250.976 119.398C248.015 119.398 244.461 121.767 245.646 115.4C246.09 113.327 249.495 114.956 250.976 114.511ZM224.62 106.664C222.251 103.851 222.843 99.8527 221.807 96.5952L218.401 90.8205C228.618 91.2647 229.21 102.37 236.317 104.147C237.798 104.591 239.575 103.999 241.204 103.999C248.459 103.999 255.27 112.29 242.832 112.29L237.058 112.883C235.281 112.735 233.652 109.625 231.579 108.885C229.358 107.848 226.545 108.737 224.62 106.664ZM244.165 121.915C244.017 124.432 240.908 125.765 238.687 125.913L237.798 117.621L237.946 115.252C238.835 113.919 241.204 112.735 242.388 113.919C243.425 114.808 243.721 116.881 243.721 118.213L244.165 121.915ZM236.317 125.32C235.281 126.653 232.912 123.84 232.468 122.951L231.579 119.694L230.543 114.215C236.762 108.885 237.206 124.284 236.317 125.32ZM227.581 110.217L231.579 110.662C230.839 113.179 228.618 111.698 227.581 110.217ZM225.064 112.587L226.989 112.735L228.47 114.215C228.618 115.252 229.802 119.99 228.914 120.434L226.545 120.582L223.732 120.434C222.695 119.398 223.287 118.805 223.139 117.177C223.139 115.252 222.547 113.327 225.064 112.587ZM222.547 122.951C228.914 119.102 231.875 127.838 236.762 127.986C246.09 128.134 244.461 121.323 252.013 121.323L256.899 121.471C262.229 121.026 268.744 116.14 270.225 111.106C271.262 107.256 270.373 104.443 268.3 101.333C266.819 98.9643 264.895 96.5952 262.525 95.1145C255.27 90.0802 242.388 88.1553 244.313 76.0137C246.09 78.3828 246.386 80.8999 248.755 82.9729C255.122 88.3034 263.858 90.6725 269.337 97.4836C279.997 110.514 268.892 125.172 253.789 125.32L249.347 125.468C245.053 126.949 242.536 130.503 237.65 130.799C231.431 130.947 229.21 125.765 224.916 125.32C222.399 124.876 220.622 126.357 218.401 126.801C219.586 124.876 220.622 124.284 222.547 122.951ZM215.44 109.181C216.476 109.181 217.365 108.737 218.401 109.625C219.734 110.217 220.03 111.994 220.326 113.179C221.659 118.065 220.918 124.728 214.848 125.468L215.884 117.769V113.031L215.44 109.181ZM285.476 138.943L288.437 139.239L285.624 142.792L283.995 146.79C282.07 150.788 281.034 154.786 281.034 159.524L281.922 165.447L283.403 169.001L282.959 170.037C279.553 166.187 277.036 160.413 276.592 155.23L277.184 150.788C278.073 145.902 278.221 143.089 282.959 140.127L285.476 138.943ZM264.302 144.421L267.116 142.941L271.558 140.571L275.555 136.277C277.184 134.797 278.517 135.833 279.109 132.872L280.738 135.389L282.663 137.018L278.369 141.016C276.444 143.829 274.519 147.975 274.519 151.677V155.674L274.963 161.153H274.075C273.483 156.415 267.56 147.827 263.266 145.458L264.302 144.421ZM266.079 156.267C264.45 153.305 261.045 150.048 258.676 147.827L255.418 144.273L254.382 140.275C257.195 141.904 255.862 143.237 257.639 144.717L264.598 148.567C269.337 152.121 276.74 163.226 269.337 167.668C268.448 165.743 268.892 164.41 268.744 162.634L266.079 156.267ZM270.817 169.445C272.446 167.52 274.371 165.003 277.036 163.966C277.925 165.003 281.33 170.925 281.33 172.11C281.182 173.146 276.296 177.588 274.963 179.365C270.965 185.732 269.633 194.912 272.15 202.168L276 209.867C273.927 209.275 271.706 206.018 270.521 204.389C262.674 193.284 262.229 180.106 270.817 169.445ZM247.126 199.058L251.865 192.839C254.382 189.434 258.083 185.584 262.674 185.14V192.099L258.676 195.653C255.418 198.91 251.865 203.648 250.236 207.942L247.274 217.567C246.682 219.492 246.682 225.266 245.942 226.303L244.461 218.603C243.721 212.681 244.017 204.537 247.126 199.058ZM197.82 277.683C199.152 281.088 199.152 284.198 199.152 287.603H198.264C197.82 283.309 195.303 278.867 193.378 275.017C191.305 270.723 187.011 266.281 187.011 261.247C187.011 259.766 186.863 258.286 188.047 257.249C189.38 264.949 195.451 270.723 197.82 277.683ZM84.5475 207.35L88.9896 208.683L101.279 211.644L104.685 211.792L108.238 212.236C107.646 213.717 106.165 213.717 104.685 214.161C95.3565 216.53 91.5067 210.756 83.363 207.646L84.5475 207.35ZM60.4124 108.737L56.8588 115.696L51.3803 129.614C48.1228 142.2 48.567 153.157 52.4168 165.595L55.8223 174.331C57.8953 180.55 62.1893 188.101 66.1871 192.988C70.0369 197.43 80.4016 204.093 82.3265 207.202L74.627 205.721C71.0733 205.721 66.9274 206.314 63.5219 207.794L58.7837 210.163C59.2279 208.09 60.2644 207.646 62.0412 206.61C64.8545 204.685 66.7794 203.797 70.1849 203.648C70.0369 201.724 69.1485 201.576 67.8158 200.095C66.1871 198.17 65.891 198.17 63.5219 197.133L61.0047 195.505C57.5991 193.876 52.7129 194.616 49.3073 195.653C50.1957 194.32 51.0841 194.172 52.2687 193.58C55.5262 192.099 56.7107 191.507 59.9682 193.136C59.8202 187.213 53.6013 181.29 48.8631 178.033L46.9382 176.996C45.6056 176.404 44.8653 176.552 43.9769 175.516H51.2322C52.7129 174.627 50.3438 171.518 49.8996 170.333L46.6421 163.078C45.3095 160.709 43.0885 158.784 42.3481 156.119C43.2365 156.563 45.3095 158.043 46.1979 157.451C47.0863 156.563 45.1614 146.642 44.7172 144.865C43.8288 141.46 44.8653 142.496 46.1979 139.683L46.7902 135.241L46.6421 130.207L45.3095 123.247C46.6421 124.136 47.2344 126.357 48.1228 126.653C51.3803 127.097 51.5283 118.509 51.6764 116.732L52.1206 113.179L51.6764 107.7C53.7494 108.293 53.009 111.55 54.6378 111.55C56.1185 111.55 57.8953 108.737 58.1914 107.7L61.1528 96.0029H62.1892L63.5219 102.518C63.818 103.554 61.4489 107.256 60.4124 108.737ZM72.2579 90.8205L71.8137 93.3377C70.9253 94.8184 68.4081 97.6316 66.7794 98.0759L69.5927 90.8205L71.9617 84.8978C73.7386 86.3785 72.7021 88.8956 72.2579 90.8205ZM82.4746 83.8613L80.9939 86.2304L78.4768 87.4149L81.29 82.3806L83.6591 78.827C84.8437 80.7519 83.363 82.0845 82.4746 83.8613ZM88.9896 80.3077C89.5819 78.2347 93.7278 73.3485 95.5046 72.6081C94.32 76.606 92.8394 78.5309 88.9896 80.3077ZM102.908 72.6081L105.425 70.091C104.981 71.7197 104.389 72.4601 102.908 72.6081ZM132.226 66.6854C133.262 64.9086 135.631 63.1318 137.26 61.9472C136.668 64.4644 134.743 66.2412 132.226 66.6854ZM166.133 59.8743C160.803 65.2047 149.401 66.6854 142.294 66.6854C143.627 64.9086 147.328 65.2047 149.253 65.2047L155.028 63.724C159.322 62.6876 164.652 60.9108 167.17 56.9129C167.614 58.0975 166.873 58.9859 166.133 59.8743ZM171.315 26.4109C172.796 28.928 174.869 38.9967 173.388 41.0696L172.5 35.1469L172.056 31.149L170.131 25.3744L171.315 26.4109ZM165.393 17.0826L165.245 17.3787C163.616 15.898 161.691 15.0096 160.21 12.9367C161.247 13.0847 165.097 15.898 165.393 17.0826ZM136.223 37.8121C126.895 38.2563 124.526 27.4473 124.526 19.8959C124.674 16.4903 126.451 12.0483 129.264 10.1234C134.743 6.2736 154.732 5.38519 158.582 11.9002C153.251 10.1234 148.957 8.64269 143.479 8.05041L138.74 8.64269C120.528 11.456 124.082 35.5911 135.779 35.5911H140.813C139.777 37.0718 138.148 37.516 136.223 37.8121Z" fill="#FFBC85"/>
<path d="M225.953 229.264C224.176 228.228 222.696 232.374 222.4 233.558C219.882 238.889 217.958 242.886 218.106 248.809C218.254 262.876 231.136 273.24 231.284 281.68L230.84 287.159L228.322 294.118L229.211 295.451C230.84 294.858 232.764 290.712 233.949 289.232L236.318 285.234C238.687 277.09 235.282 265.097 231.876 257.841C229.951 253.843 227.878 250.438 226.842 246.144C225.805 242.146 224.917 238 225.953 233.854C225.953 232.818 227.434 230.301 225.953 229.264ZM226.694 252.807L231.432 262.431C232.912 266.725 237.206 281.532 233.061 284.79C233.061 281.828 232.616 278.571 231.432 275.609C227.138 265.245 219.734 260.358 219.882 247.773C219.882 245.255 220.771 240.517 222.844 239.037C223.288 243.627 225.065 248.365 226.694 252.807Z" fill="#FFBC85"/>
<path d="M247.422 325.212L244.46 324.324C243.572 324.176 241.203 323.288 241.055 324.768L241.203 325.36L244.46 326.841C246.533 327.878 249.346 329.654 249.495 325.805L251.419 325.953C253.344 326.545 254.677 328.322 256.158 325.805L254.529 324.176C256.454 324.176 261.192 325.509 262.376 324.028L262.821 322.251L273.037 327.285C273.63 328.174 273.482 329.21 273.482 330.247C273.334 340.019 278.812 345.35 288.14 345.498C293.175 345.498 290.509 354.234 303.391 353.938L308.87 352.605C312.424 351.717 317.31 351.569 321.011 352.605C329.748 355.122 322.936 364.302 338.187 363.414C344.999 363.266 342.481 370.669 347.368 373.038C351.662 375.111 353.586 373.927 357.584 373.038C359.509 372.594 360.546 373.927 362.322 374.667C363.211 372.298 360.842 371.262 358.769 371.262C355.511 370.817 352.254 373.187 348.996 371.706C340.853 368.152 351.069 361.785 335.818 361.933C327.526 362.081 330.044 355.122 324.713 352.309L319.235 351.272L314.2 350.384C309.166 351.272 300.578 353.938 296.284 350.236C294.655 348.755 292.879 344.017 292.286 343.869L287.844 343.425C283.55 341.944 280.885 334.245 280.589 330.099C280.441 321.363 277.776 327.137 273.185 323.288L269.632 317.365C262.821 303.594 267.115 282.125 249.198 275.758C245.793 274.425 246.089 273.833 242.239 273.833C242.387 276.202 247.274 279.015 249.198 281.088L252.16 285.53C255.121 291.897 253.789 299.152 254.973 305.667L257.046 313.367L261.932 322.103H259.119C256.602 321.659 255.269 320.77 252.9 322.547L253.492 323.139C251.271 324.028 248.014 321.215 247.422 325.212ZM275.851 328.914L276.443 327.285L277.776 326.841L278.812 333.356L279.256 336.614C279.849 338.687 281.329 340.463 281.773 342.536L279.404 341.5C277.924 340.019 275.406 333.356 275.406 331.579L275.851 328.914ZM256.01 295.303L255.121 290.268L252.16 282.865L248.754 278.127C255.269 279.459 260.896 290.861 261.932 296.783C262.525 301.077 262.525 305.667 263.857 309.517L266.819 317.661L269.188 323.436C266.67 322.991 264.894 321.511 262.969 319.882C257.638 314.255 256.01 303.002 256.01 295.303Z" fill="#FFBC85"/>
<path d="M369.133 226.895L371.65 226.451C371.502 224.822 370.762 224.378 369.133 224.526C363.358 224.97 360.841 224.97 355.955 221.565L351.217 218.307C349.884 217.715 348.848 218.307 348.848 219.788L350.18 222.749C351.809 225.562 352.994 226.599 355.955 228.228C357.88 229.264 368.245 231.781 370.021 230.301L370.614 228.82L366.616 228.672L364.099 228.228H361.582C358.028 227.635 354.77 225.266 353.142 222.305C356.695 225.266 360.545 226.303 365.283 226.303L369.133 226.895Z" fill="#FFBC85"/>
<path d="M376.832 230.448C375.203 230.448 371.057 231.041 371.354 233.41L372.242 235.483C369.429 236.075 368.836 237.26 369.725 239.925C366.763 240.517 367.652 241.554 366.171 243.33L364.098 245.255L362.766 247.624V248.661C365.727 249.549 366.171 248.217 366.319 245.403C368.836 245.255 370.169 244.811 369.281 241.998C370.761 241.554 373.13 240.517 371.206 238.74C372.686 237.408 374.611 236.667 374.759 234.742H373.278C374.019 232.373 376.388 233.41 376.832 230.448Z" fill="#FFBC85"/>
<path d="M362.917 202.909C365.434 205.278 368.84 207.203 372.097 207.203C374.466 207.203 378.316 208.091 378.612 205.13C376.539 205.278 374.17 206.166 372.097 205.574C368.099 204.241 366.323 201.724 362.917 199.355C358.031 195.802 350.331 196.098 345.297 199.207C346.778 201.576 347.666 200.244 349.739 200.244L352.996 201.132C356.402 202.909 356.846 205.426 359.511 207.499C362.473 209.572 366.323 211.793 370.172 211.793L373.134 211.941L376.687 212.829L375.355 215.347L375.503 217.42L374.022 220.825C375.503 220.825 378.02 219.937 377.872 218.012L377.428 216.679C376.983 215.05 378.76 214.162 379.945 213.718C379.797 211.349 378.612 211.645 376.983 212.681C377.576 210.312 379.797 209.868 379.945 207.203C375.947 207.351 377.428 210.608 371.505 210.164C367.655 210.016 363.361 207.795 360.844 205.13L357.587 201.724L353.144 198.615C356.106 198.615 356.994 198.763 359.808 200.244L362.917 202.909Z" fill="#FFBC85"/>
<path d="M327.526 106.812C325.601 105.776 319.826 103.259 319.086 106.22C321.603 107.108 324.12 107.256 326.489 108.737C334.337 113.475 338.335 120.286 341.592 128.578L343.961 136.278C346.923 135.834 346.33 129.023 345.886 126.505C344.258 117.325 339.964 109.478 331.672 104.147C329.747 103.111 322.047 99.4089 321.011 102.666C330.635 104.147 338.187 111.55 341.888 120.583L343.369 125.025L338.631 116.881C336.262 113.031 331.524 108.885 327.526 106.812Z" fill="#FFBC85"/>
<path d="M383.347 184.843L382.755 182.326L383.199 180.845L383.347 178.328C381.274 178.476 380.09 180.401 380.09 182.326V184.399L379.201 187.805C380.83 189.285 379.645 190.174 379.349 191.802V194.32C378.905 196.244 377.869 196.837 379.942 197.873L377.572 201.871L378.017 202.315L381.57 201.427C382.607 198.614 385.864 190.174 389.714 190.618C394.452 191.21 392.972 198.762 393.564 199.798C395.045 201.427 398.006 198.169 398.598 196.837C400.079 193.875 399.931 189.878 398.598 186.62L397.117 182.622L398.154 176.699L398.746 167.519C398.598 161.152 394.452 158.191 392.527 152.861C391.639 150.047 392.675 146.346 392.527 143.088C392.379 140.127 390.602 137.165 390.602 133.908C390.454 126.504 392.231 115.251 402.004 115.695C404.521 115.695 404.817 114.659 407.038 116.732C411.48 120.582 409.407 123.543 410.296 125.172C411.184 127.097 413.701 125.32 416.07 128.725C418.587 132.723 416.514 136.573 417.107 138.498C417.699 140.571 421.401 139.386 422.585 142.94C423.622 145.901 421.253 149.603 422.141 151.676C422.733 153.305 427.175 154.785 427.471 158.635C427.62 161.004 424.954 161.893 424.214 163.669C423.622 165.446 426.139 166.483 424.806 169.148C423.326 172.702 419.476 174.478 417.107 177.44C414.293 180.549 415.626 182.326 414.293 184.843L410.74 189.581C408.371 192.987 406.002 197.281 404.817 201.279C402.892 207.202 405.409 212.532 405.409 218.455L404.817 230.596L403.484 235.631C401.56 234.298 400.227 230.892 398.598 229.116C397.562 227.783 391.343 222.156 389.862 222.897C387.789 224.229 394.156 232.521 394.896 234.594C398.154 242.886 395.933 253.251 389.122 259.025C388.974 253.991 385.568 247.772 382.311 243.774L379.942 241.257L375.944 240.813C375.944 247.624 383.199 248.513 377.424 259.47C372.686 269.094 359.804 268.65 351.068 267.317C349.44 266.873 346.774 267.465 346.034 265.985L344.109 258.285L346.478 254.879C347.515 252.807 348.551 247.032 348.403 244.663C347.959 241.109 346.922 236.963 344.553 234.002L340.555 229.264C340.111 228.227 341.444 223.489 341.444 221.86C341.592 213.717 339.075 210.015 333.3 204.388L328.562 200.39C327.673 198.762 327.97 195.652 327.525 193.875C325.008 185.584 316.124 179.217 307.388 179.217C307.832 182.03 317.605 183.659 318.197 193.431C318.641 204.24 307.388 204.536 299.985 201.871C298.652 201.427 295.247 201.279 295.987 203.5C297.32 207.498 312.126 211.347 316.124 210.903C319.086 210.755 325.897 205.869 327.822 207.498C334.337 213.717 334.633 228.523 323.083 229.116C318.345 229.56 308.573 224.674 305.907 225.71C310.35 233.558 319.678 236.815 328.266 236.371L333.3 235.334C334.337 235.779 335.077 237.407 335.225 238.296C337.298 244.663 336.113 250.141 329.895 253.843C324.86 256.656 318.789 255.916 313.607 254.435C311.534 253.843 309.313 252.51 306.944 252.51C307.536 256.508 320.714 262.135 324.86 262.727L331.819 263.171C333.152 263.764 333.892 265.54 334.188 266.725C335.077 270.131 334.04 274.128 331.819 276.942C323.528 288.343 311.83 275.461 306.944 277.09C305.019 277.682 309.461 281.976 310.35 282.864C315.68 289.675 328.414 289.083 330.043 291.156L332.116 296.635C335.373 307.296 327.822 314.255 317.457 314.255C318.493 317.808 324.12 317.66 327.229 320.178C334.633 326.1 334.485 331.431 345.738 332.911C356.843 334.392 366.763 325.212 372.686 325.508C378.165 325.656 379.942 329.95 381.422 330.394C382.755 330.69 384.236 329.358 385.42 329.062C390.158 328.617 391.935 334.54 391.935 338.242L386.457 336.761L382.459 336.613L379.497 337.057L378.905 338.39C383.791 338.39 391.491 337.057 392.083 343.868L388.085 343.72C384.532 344.609 389.714 349.199 390.602 350.532L386.605 348.014C383.051 345.941 381.866 345.941 377.869 345.941L378.461 346.978L381.422 347.866C384.236 348.755 387.197 350.383 387.641 353.641C384.087 351.568 385.272 351.716 381.126 351.716C381.126 354.233 381.274 354.085 382.607 356.158L377.572 354.826L369.429 354.233C370.021 356.158 371.798 355.566 373.427 355.714C375.055 356.158 380.682 357.639 381.718 358.971C382.755 360.008 382.755 361.489 382.607 362.821C382.163 364.45 381.57 365.634 380.09 366.375L380.534 362.821C379.942 360.452 377.572 359.86 375.5 360.748L374.019 362.081V363.117L375.5 364.598L378.017 368.004L375.5 368.448C375.5 366.819 374.907 365.486 373.871 364.006C371.946 361.637 367.504 359.712 364.542 360.008L362.025 361.044C363.358 362.525 364.839 361.489 366.467 361.933C370.317 362.821 373.723 365.931 373.279 370.225C373.13 372.594 371.798 374.519 369.725 375.703L369.281 372.149C368.392 370.669 364.246 369.188 363.062 370.817C362.025 372.149 363.062 374.667 362.914 376.147C362.766 377.184 361.285 379.109 361.877 380.145C363.21 382.07 366.319 378.813 367.652 378.22C369.281 377.628 370.465 378.072 372.094 376.443L376.536 370.225C377.869 368.892 380.534 368.892 382.311 367.707C386.16 364.894 384.68 363.413 386.308 360.304C388.678 356.75 389.862 358.823 389.862 352.604L392.379 353.937C396.821 353.789 394.008 341.795 394.452 339.426C395.785 331.727 391.935 327.877 384.236 327.729C381.126 327.729 381.126 326.396 378.757 325.656L371.65 325.064C366.171 325.656 360.545 330.098 355.214 329.802C348.847 329.358 342.48 324.323 338.631 319.141L337.002 315.735C337.15 315.291 342.776 307.888 343.517 304.482C346.034 293.229 340.259 288.935 340.555 287.306L343.813 282.864C345.738 279.015 346.33 275.165 346.774 271.167C351.068 271.759 354.474 273.684 358.916 273.684H369.577C377.869 273.684 384.087 270.723 391.047 267.169C395.489 264.8 400.375 262.727 404.225 259.322C411.184 252.955 415.922 238.888 416.366 229.56L415.922 224.081C415.774 218.159 411.628 211.94 411.628 206.165C411.628 199.65 417.551 198.466 417.403 191.062C416.811 181.882 417.255 182.178 424.066 175.811L427.62 171.813C429.544 168.408 427.62 166.039 428.064 164.558C428.508 162.633 430.137 162.633 429.989 159.672C429.544 153.897 425.695 152.712 425.102 150.491C424.954 148.863 426.435 145.753 425.102 142.2C424.214 140.127 421.845 139.682 420.808 137.758L419.18 129.022C417.699 125.024 414.886 125.616 413.701 123.987C411.924 121.914 412.22 117.324 409.259 115.251C403.336 110.513 393.564 115.399 390.751 121.618C388.826 125.616 389.122 128.429 389.122 132.723C389.122 136.573 390.751 140.127 390.602 143.976C390.602 146.494 388.974 150.195 389.27 152.416C390.158 158.635 395.045 163.521 394.6 169.592C394.6 172.109 392.972 174.034 391.639 176.107C389.714 179.957 387.197 183.066 383.347 184.843ZM324.268 206.017C323.38 207.053 322.195 207.053 320.862 207.498C318.345 208.386 317.605 208.978 314.94 209.126C311.682 209.126 305.019 208.09 303.242 205.573C306.796 205.573 310.646 206.461 314.347 205.425C316.42 204.832 317.309 203.5 318.641 202.019C322.935 196.689 321.899 192.099 319.086 186.324C326.045 187.508 328.562 200.687 324.268 206.017ZM367.06 375.999L366.023 378.368L364.098 378.961C364.987 376.147 365.135 374.667 365.135 372.001C367.8 372.298 367.652 373.778 367.06 375.999ZM328.562 234.594C323.676 234.594 316.865 235.186 313.903 230.596L323.083 232.077C327.822 232.077 329.45 231.633 332.708 228.079C337.002 223.341 336.706 219.935 334.633 214.309L331.375 208.386C330.339 206.905 329.006 206.017 328.562 204.388C331.079 204.536 331.375 205.425 333.004 207.202C334.929 209.126 336.854 211.051 337.89 213.568C341.74 221.712 339.963 234.298 328.562 234.594ZM317.309 257.841C327.97 257.841 339.371 257.841 339.223 243.626C339.223 240.813 335.669 233.558 338.779 232.373C344.109 230.3 346.922 243.922 346.922 247.18C346.33 264.504 321.307 264.356 317.309 257.841ZM338.334 321.658C339.963 323.731 343.665 326.989 345.738 328.321C347.663 329.358 351.661 330.246 352.253 331.875C349.736 331.875 346.478 332.319 344.109 331.727C337.89 330.246 332.708 322.991 328.414 318.697C329.302 317.808 333.152 316.328 334.337 316.92L338.334 321.658ZM341.74 296.783C341.888 307.148 337.446 316.18 326.045 316.18C327.673 313.811 331.523 314.255 334.188 309.517C339.223 299.596 332.412 292.933 333.596 291.008L335.669 289.676C339.963 288.343 341.74 293.229 341.74 296.783ZM329.006 288.787C322.787 288.787 314.495 287.158 311.83 280.643L316.865 282.568C319.382 283.605 322.195 284.197 325.008 284.197C331.375 284.049 337.15 277.386 337.742 271.463C337.89 268.946 336.854 265.688 336.261 263.319C337.15 262.727 341.74 260.358 342.628 260.802C345.738 262.135 347.515 288.787 329.006 288.787ZM356.991 271.463C355.362 271.315 353.437 271.315 352.253 269.982L356.991 270.427V271.463ZM409.703 204.092C409.555 212.532 414.145 220.676 414.145 229.412C414.145 238.592 408.223 252.807 401.56 258.729C399.042 261.098 396.673 261.543 393.86 262.727L389.122 265.688C382.163 269.242 373.427 272.055 365.283 271.907L358.324 271.463V270.427C361.729 270.427 365.579 270.871 368.985 269.834C375.944 267.761 383.051 260.654 382.607 252.807L381.718 246.588L383.051 247.18C384.532 248.661 386.605 254.583 386.605 256.804C386.753 259.766 386.457 260.654 387.641 263.319C390.01 261.839 392.972 260.358 394.6 258.285C398.598 253.399 399.635 242.294 398.006 236.371L396.081 231.485L394.156 227.191C399.487 230.004 401.411 239.777 401.856 239.925C406.298 241.553 408.075 227.191 408.075 224.822C408.223 213.568 404.669 203.796 411.628 193.727C412.665 192.395 413.553 190.766 415.034 190.174C415.33 197.133 409.703 198.466 409.703 204.092ZM396.525 174.182L395.933 179.217L394.6 182.178C394.6 183.511 395.637 184.547 396.377 185.732C397.414 188.249 398.45 194.616 395.933 196.837C395.933 193.727 393.86 190.47 391.047 189.137L388.53 188.693C386.012 189.729 384.532 192.247 382.755 194.172L381.866 193.135C381.718 191.802 383.199 188.249 383.939 187.36L386.753 185.436L391.491 180.993C393.416 179.069 394.156 175.663 396.525 174.182Z" fill="#FFBC85"/>
<path d="M311.832 109.774V111.254H316.866C319.68 111.847 323.677 115.548 325.01 117.769C322.197 115.252 318.643 114.808 315.386 113.031C314.793 112.587 312.128 110.958 312.128 112.587C312.128 114.216 314.645 115.104 315.682 115.548L323.381 119.546C325.454 121.027 327.231 123.84 329.896 124.284C329.896 117.621 323.529 109.626 316.718 109.626H311.832V109.774Z" fill="#FFBC85"/>
<path d="M166.874 133.02L170.724 135.833C172.204 136.87 172.649 137.758 174.277 138.202L173.833 134.797C171.76 130.947 162.136 123.544 158.138 122.063C154.288 120.73 150.882 120.582 146.885 120.582L149.846 112.883C150.734 109.773 151.771 100.297 149.254 97.7797L147.477 97.0394C147.477 101.778 147.625 103.702 145.7 108.293L142.739 113.771C141.406 111.846 141.702 109.329 141.11 107.256C140.074 103.406 138.149 100.445 135.631 97.4836C134.299 95.7068 133.559 94.9664 131.189 95.5587L133.262 100.001L133.855 104.739L134.743 109.181L129.265 105.331L122.601 102.962L119.64 101.63L113.421 101.481C114.754 103.406 117.715 104.295 119.64 105.479C123.046 107.848 125.859 110.81 128.08 114.215C118.159 109.921 115.938 108.441 104.685 108.737C103.649 108.737 99.2067 109.181 98.4664 110.069C97.4299 111.846 101.28 112.142 102.02 112.142C106.906 112.735 112.385 113.771 116.827 116.436L123.342 120.878C119.048 124.432 113.569 126.801 109.127 130.059C104.241 133.464 99.799 138.202 96.3934 142.792C95.505 144.273 90.4707 154.638 94.4685 154.638C96.3934 154.49 102.612 145.31 104.389 143.089C110.608 137.166 119.64 129.318 128.376 127.986L125.563 132.428C122.305 139.091 120.084 144.717 120.084 152.121C120.084 154.49 120.232 159.08 123.638 156.859C122.601 151.825 131.486 133.464 136.372 132.428C139.777 131.835 145.552 148.419 145.552 151.825V157.303C154.88 155.971 145.108 129.911 145.404 129.466C145.996 127.986 148.217 127.986 149.698 127.986C152.511 127.986 155.028 127.986 157.842 128.874C159.915 129.762 161.395 130.947 164.061 130.947C162.728 127.393 152.511 126.209 149.254 126.209C146.44 126.209 144.219 127.69 141.11 127.838C141.258 130.207 143.035 131.835 144.219 133.76L146.292 138.498L147.181 145.013C145.7 142.052 139.777 126.505 135.483 128.578L130.597 134.797C127.636 138.35 123.638 145.013 122.75 149.456C121.417 145.458 127.044 134.649 129.709 131.095C131.041 129.17 133.559 127.986 133.707 125.617C125.563 125.617 119.048 129.466 112.385 133.908L108.387 136.87L96.6896 148.715C100.539 137.018 111.941 131.539 121.565 124.876L126.895 122.063C128.228 120.138 124.378 118.213 123.046 117.325C118.307 114.363 111.644 111.402 105.87 111.106V110.069C113.125 110.069 121.417 112.142 127.192 116.436L132.966 122.359C136.52 124.284 132.522 116.881 132.374 116.14C131.486 114.067 128.524 109.625 126.895 107.996C125.267 106.516 123.046 105.923 121.861 103.702L126.895 105.775L132.818 110.81C133.707 112.142 135.335 116.14 136.816 116.14C138.297 116.14 138.149 113.623 137.852 112.735L136.372 102.814C138.889 105.627 140.37 111.55 140.37 115.4L139.481 118.953C139.481 119.842 140.074 121.323 141.11 120.582L143.035 117.325C145.404 112.587 147.773 108.885 148.513 103.554C149.106 105.627 147.921 112.29 146.885 114.363C145.996 116.288 144.96 118.805 143.479 120.286C142.591 120.878 141.406 121.767 141.85 122.803C142.739 124.728 145.404 121.915 146.589 121.471L149.106 121.323C154.584 121.323 166.134 126.357 168.503 131.539L167.466 130.947C166.578 132.576 166.874 131.243 166.874 133.02Z" fill="#FFBC85"/>
<path d="M160.063 79.4195C159.471 80.7522 162.876 81.7886 163.617 82.3809C165.097 83.7135 171.761 92.1534 170.428 93.7822C169.391 95.559 157.694 95.2628 155.621 102.518C158.879 102.518 162.284 100.889 165.246 101.186L171.02 101.334C171.909 101.482 173.093 101.482 173.389 102.666C173.982 104.591 166.43 114.216 168.059 119.25C168.651 120.879 170.576 119.694 171.316 118.658C172.649 116.585 176.795 106.368 180.645 108.885C183.754 110.958 186.123 119.102 186.123 122.952C186.123 123.544 186.123 124.58 186.715 125.025C189.084 126.505 189.085 119.546 189.233 118.213C189.233 113.179 188.196 107.404 186.715 102.518C190.269 102.962 194.119 105.776 196.636 108.293L200.19 111.846C204.484 113.771 199.597 104.887 199.153 103.999L193.675 97.6319C192.638 96.5955 188.936 95.2628 188.64 94.2264C188.048 92.4495 192.49 85.7865 193.971 84.4539C195.451 82.9732 197.969 82.9732 198.857 80.9002C191.009 81.0483 179.756 89.7843 180.2 89.7843C178.868 89.7843 177.387 87.2672 176.795 86.3787C174.87 84.0097 162.136 74.5333 160.063 79.4195ZM180.052 93.6341C181.385 93.6341 184.791 86.6749 189.233 85.7865C188.64 87.2672 184.791 95.1148 185.235 96.0032C185.383 97.0397 189.084 97.4839 190.121 98.0761C192.194 99.1126 195.6 102.37 196.34 104.591L192.342 102.074L189.381 101.037C187.9 100.889 183.458 100.149 184.346 103.11L185.679 105.628C186.567 107.553 188.196 113.327 187.012 115.252C186.123 113.327 182.125 104.591 179.756 105.035C178.868 105.183 174.278 110.958 172.057 111.55C172.205 109.625 174.13 105.628 175.314 103.851L177.831 100.889L170.28 100.001L167.763 99.5568H161.248C164.357 96.0032 172.501 96.2993 173.389 95.707C175.906 93.6341 167.615 83.4174 166.43 81.1964C170.428 82.8251 173.389 84.75 175.758 88.1556C176.351 89.6363 178.572 93.6341 180.052 93.6341Z" fill="#FFBC85"/>
<path d="M380.981 155.674C379.352 157.007 378.464 160.116 381.129 160.413C380.537 164.262 377.871 163.226 376.095 165.447C374.614 167.52 374.466 170.185 372.541 171.962C366.618 178.773 357.29 174.035 349.739 178.181L345 182.179C344.112 183.511 344.112 185.732 346.333 184.992C348.406 183.955 349.739 182.031 352.256 181.438C357.734 180.106 364.397 180.846 370.172 180.846C374.614 180.698 379.056 176.848 381.869 177.292L383.35 174.775C383.942 173.146 383.498 172.406 383.498 170.777V167.816L382.165 166.78C380.685 170.185 379.204 173.739 376.391 176.404C371.653 180.698 359.807 179.661 353.588 179.661C356.846 177.737 359.955 178.773 363.361 178.625C367.211 178.181 372.541 177.292 375.058 173.887C376.391 172.258 376.391 170.037 377.427 168.408C378.908 165.595 380.241 166.631 381.869 165.595L382.906 163.818C384.386 159.82 382.017 161.005 382.017 159.08L382.462 155.526L380.981 155.674Z" fill="#FFBC85"/>
<path d="M371.652 137.61C368.839 141.608 368.691 147.382 365.433 151.232C360.991 156.711 354.624 156.563 349.738 160.56C348.257 161.893 342.779 168.408 343.963 170.333C344.556 171.221 345.592 170.333 346.332 169.889C348.257 168.408 349.738 166.631 352.255 165.891L357.734 164.854C370.912 160.412 371.356 154.49 377.723 143.829C379.352 144.273 380.092 143.384 380.684 141.756C379.055 141.163 377.575 141.311 375.946 142.348C371.06 146.198 372.096 150.196 369.135 154.49C365.285 159.672 356.549 164.114 350.182 164.114C353.143 159.672 361.287 158.191 365.877 154.786C369.431 151.824 369.727 147.826 371.356 143.977C372.244 142.052 372.985 139.683 374.613 138.498C375.946 137.166 379.352 138.35 378.611 135.241C378.463 132.131 372.54 136.425 371.652 137.61Z" fill="#FFBC85"/>
<path fill-rule="evenodd" clip-rule="evenodd" d="M391.935 348.163C392.528 347.127 391.935 346.831 391.047 346.535L391.935 348.163Z" fill="#FFBC85"/>
<path fill-rule="evenodd" clip-rule="evenodd" d="M172.352 47.7333L173.388 45.3643C172.352 45.9565 172.352 46.4007 172.352 47.7333Z" fill="#FFBC85"/>
<path fill-rule="evenodd" clip-rule="evenodd" d="M229.803 17.379C230.395 16.3425 229.951 15.6022 229.211 14.8618L229.803 17.379Z" fill="#FFBC85"/>
</g>
</svg>
