<svg width="430" height="436" viewBox="0 0 430 436" fill="none" xmlns="http://www.w3.org/2000/svg">
<path fill-rule="evenodd" clip-rule="evenodd" d="M233.839 378.591L240.886 379.912C243.235 380.5 256.596 386.519 258.358 387.988C265.846 394.154 262.469 405.313 266.727 410.158C269.076 412.654 272.307 414.269 275.683 414.416H278.914L281.703 417.206C284.052 419.555 286.842 419.995 290.219 419.702C295.358 419.702 295.064 415.591 300.203 415.444C307.691 415.444 311.949 410.599 312.536 403.257C316.647 404.285 325.604 402.376 328.54 399.44C329.568 398.118 330.889 395.182 332.358 394.595C333.385 394.154 339.552 395.622 344.691 392.833C350.858 389.456 356.143 383.436 356.437 375.948C356.584 367.873 354.528 363.762 347.334 359.797C333.239 351.722 317.235 354.658 301.965 357.301C302.406 355.833 304.167 352.456 305.636 351.722L311.655 352.309C320.759 352.309 330.596 353.19 338.965 348.492C341.901 346.73 344.985 344.087 346.893 341.297L349.243 337.04C352.473 334.25 355.703 336.012 358.052 330.432C360.254 325.587 360.842 315.016 364.219 311.933C368.477 307.822 373.322 313.401 375.965 316.631C376.992 318.099 377.286 319.567 377.286 321.476C376.845 330.286 369.798 329.845 366.568 336.452C365.246 338.801 365.246 341.297 365.246 343.94C365.246 349.079 368.477 353.484 367.742 358.916C367.302 363.174 362.604 361.706 364.072 365.377C375.818 362 381.103 360.972 381.103 346.877C381.103 334.25 397.548 345.409 399.163 325.294C399.31 323.091 397.841 318.099 396.373 316.337C394.611 314.429 390.353 312.226 392.115 308.702C394.024 305.325 401.072 304.151 402.833 308.702C404.595 313.401 400.925 314.429 399.897 317.806C405.623 319.274 408.266 309.73 410.762 306.647C413.111 304.151 416.341 302.536 417.956 299.599L419.425 294.314C420.452 292.405 422.655 291.524 423.682 289.468C426.619 283.742 423.829 275.373 417.956 272.877C425.444 268.619 426.766 268.766 426.766 259.516C426.619 256.727 424.857 254.965 424.857 253.79C424.857 252.762 428.675 246.596 428.968 242.485C429.115 237.639 425.298 228.683 425.298 227.509L428.674 219.433C430.143 215.616 429.996 213.267 429.996 209.449C429.996 203.429 427.059 195.207 423.389 190.656L418.103 185.076C417.663 184.195 418.544 183.021 418.69 182.14C416.341 182.727 413.405 185.37 411.202 186.691C404.742 190.802 397.988 193.445 390.353 193.298C387.123 193.298 380.957 191.243 379.635 195.501H394.611C398.429 195.501 402.54 194.033 405.917 192.271C405.036 195.06 402.687 195.648 400.631 197.116C396.814 199.465 393.143 200.933 388.738 201.374L385.508 201.814C381.103 201.667 374.056 197.997 370.092 200.786L371.119 201.814L374.349 201.961L385.068 203.429H390.353C382.865 207.981 376.992 210.183 368.33 207.1L361.869 203.723L356.584 201.961L352.766 199.612C354.969 197.703 356.877 195.354 357.905 192.858C359.373 189.041 358.933 183.461 357.024 179.791L360.254 179.35C370.532 179.203 376.699 175.533 382.865 167.604C388.591 160.557 392.262 149.838 392.409 140.735C392.556 121.061 378.167 104.91 378.607 85.0888C378.607 79.5095 382.718 74.3706 385.068 69.5254L382.865 70.4064L380.957 72.7556C378.461 77.0135 376.552 81.7119 376.552 86.8507L376.992 91.5491L371.707 84.3547C367.596 80.2436 360.401 79.2159 355.115 79.5095C351.885 79.5095 349.096 80.5373 346.159 80.9777C346.159 76.8667 346.012 76.8667 349.83 75.3984L352.619 74.3706L357.465 73.9302L361.135 74.077C364.953 74.9579 368.183 76.8667 371.853 78.3349C370.532 74.2238 359.08 71.7278 355.262 71.8746C353.5 71.8746 346.746 73.7833 345.719 73.3429C340.58 71.2873 348.655 68.6445 350.564 68.4977C353.941 68.4977 356.731 69.9659 360.108 70.2596C358.199 67.4699 350.564 66.4421 347.334 67.3231L342.048 69.3786L339.846 68.9381C337.643 66.5889 344.985 62.4779 346.6 62.1842L351.445 61.7437C365.98 61.7437 368.036 70.7 372.294 71.7278C370.092 60.8628 346.893 53.6684 340.727 63.212C339.405 61.4501 339.699 61.0096 339.405 58.9541V55.7239C340.433 53.5216 345.866 52.347 348.215 52.4938C351.445 52.9343 353.5 55.4303 356.731 55.7239C354.969 53.2279 353.794 53.3747 352.032 51.6129C351.151 51.0256 351.445 49.851 350.123 49.4105L346.453 48.8232L345.866 46.7677C343.663 44.4185 336.028 43.978 333.092 44.5653L328.834 46.474C333.239 40.7479 343.516 42.0693 349.243 45.0058C352.179 46.7677 354.528 50.1446 357.758 51.0256C357.318 49.2637 356.29 48.5295 354.969 47.2081C350.27 42.5097 344.544 40.1606 337.937 40.1606L333.092 41.0415L328.834 42.3629C328.834 37.6645 323.695 33.5535 319.29 32.5257L314.592 32.3789C314.005 27.0932 307.985 22.8353 302.699 22.8353C301.231 22.8353 299.469 24.1567 298.001 23.4226L283.759 15.9345L279.795 11.6766C275.537 8.006 269.517 5.06951 264.231 3.16079C257.624 0.958428 246.906 -1.09711 240.152 0.664779C236.041 1.54573 231.342 3.89492 227.378 4.33539C225.616 4.33539 218.275 1.3989 214.605 1.3989C209.759 1.25208 204.327 0.958428 199.482 1.9862C196.251 2.5735 191.553 4.92269 188.617 5.21634C185.827 5.21634 182.009 3.45444 178.779 3.45444C166.006 3.45444 154.847 7.56553 144.422 14.3195L139.577 18.5774L137.081 19.0178C131.355 18.871 121.371 22.248 116.232 25.0376C112.415 26.9464 108.744 29.5892 105.514 32.5257C103.752 33.9939 99.4942 40.0137 98.3196 40.4542H94.2085C86.1331 40.8947 75.2681 46.6208 69.542 52.2001C66.7523 54.9898 64.6968 59.2477 61.4666 61.5969L56.7682 63.0652L51.0421 66.7358C38.4152 75.2516 30.7803 89.4936 30.3398 104.616V107.847L29.8994 111.077L26.6692 113.426L20.9431 119.593C12.8677 130.311 10.0781 140.295 10.0781 153.215C10.0781 156.592 7.87571 159.235 6.84794 162.318C5.82017 166.576 5.3797 171.422 5.3797 175.68V193.445C5.3797 197.263 8.16936 213.12 8.16936 213.707C8.16936 213.12 1.70908 223.251 0.974963 226.04C-3.28295 239.254 6.99476 253.937 20.3558 255.258C25.0542 255.699 28.2843 253.056 32.5422 252.322C32.3954 255.258 30.3398 256.873 28.2843 258.782C21.824 264.508 11.84 266.27 3.91145 263.04L3.32415 263.627C4.64557 264.949 6.26064 264.949 8.02254 265.389C14.1892 266.857 22.9986 265.83 28.2843 262.159L33.57 257.608C33.57 261.719 32.689 262.746 29.8994 265.683C23.1455 272.437 15.8042 272.437 6.84794 272.437V273.465L12.1336 274.052C18.3002 274.052 22.9986 272.73 28.1375 269.5L32.9827 265.83L32.8359 268.619C30.9271 273.905 19.4748 278.016 14.336 279.338L7.58206 281.099L6.99476 281.98L12.7209 281.393L24.0264 278.163C27.2565 276.695 30.4867 273.611 33.57 273.024C33.57 290.349 48.5461 312.96 64.1095 320.008L74.9745 323.238L81.4347 323.825C83.1966 324.706 86.7204 329.845 90.391 330.873C88.4823 334.103 80.407 335.571 76.5895 335.571C56.3278 335.718 59.2643 321.036 49.2802 313.401C41.3517 307.381 37.9747 306.206 28.4311 305.032L23.7327 304.004C24.6137 306.5 29.4589 308.262 31.6613 310.024L37.2406 316.484C39.5898 319.861 40.0303 323.091 41.4985 326.762C46.7842 338.508 51.7762 354.658 67.046 355.099H77.7641C81.8752 354.952 86.28 353.19 90.0974 355.099C105.661 363.174 85.2522 404.579 129.153 403.698C141.486 403.551 154.26 386.666 163.51 388.281C175.696 390.777 174.815 408.543 180.835 417.059C182.156 418.821 186.121 421.904 188.029 423.079C189.498 423.666 191.406 423.96 192.728 425.134L196.105 429.392C199.922 433.063 206.089 435.118 211.668 435.118C216.954 435.118 220.624 433.65 224.882 430.42C226.204 429.539 227.378 427.63 228.7 427.483L234.719 427.63C239.565 427.19 244.116 423.519 245.144 418.527L245.584 414.269C246.465 411.773 249.255 410.158 249.842 406.781C251.604 399.734 243.676 389.015 239.418 384.317C236.922 382.261 235.307 381.968 233.839 378.591ZM197.279 425.721C205.355 425.721 211.521 422.051 217.688 416.912C232.223 404.726 230.315 397.972 224.148 381.674C223.12 379.178 220.771 376.535 220.331 373.746C224.148 374.333 233.104 381.38 235.894 384.464C240.739 389.162 251.017 401.349 247.2 408.984C245.731 411.773 242.501 410.452 241.914 412.801C241.327 414.269 244.704 419.995 239.565 423.666C235.747 426.602 228.259 424.253 226.938 424.987C224.589 426.309 223.267 429.539 220.331 431.007C214.751 434.237 199.482 432.769 197.279 425.721ZM83.9308 350.841C86.4268 350.694 89.0696 349.813 91.4188 350.401C109.478 354.952 93.9148 387.694 115.498 397.531C119.169 398.999 123.427 400.761 127.391 400.468C137.815 400.027 152.791 382.996 159.399 382.702C168.208 382.702 169.823 383.583 174.962 390.777C180.541 398.265 180.688 411.92 187.736 417.206C200.803 427.19 222.68 414.416 225.47 399.88C226.057 397.384 224.442 391.071 223.561 388.575C226.057 390.337 226.35 396.503 226.35 399.293C226.35 410.011 211.374 422.491 201.243 423.372L195.958 422.785C173.787 418.968 182.303 393.567 166.887 386.519C155.141 381.38 141.78 401.202 127.831 401.495C113.736 401.642 103.752 395.035 101.109 380.646C99.641 372.277 99.7878 364.496 95.5299 356.567C91.7125 349.813 85.399 352.456 83.9308 350.841ZM78.0578 292.405C76.7364 294.167 77.03 294.901 76.7364 296.663C75.4149 303.123 75.7086 309.29 77.6173 315.456L80.1133 321.476C73.9467 323.385 65.4309 311.492 62.788 306.941C54.7127 293.286 59.5579 278.75 64.1095 265.096C66.0182 259.81 68.2206 254.231 68.2206 248.504V242.191L74.8277 243.659C77.1768 244.1 79.9665 243.512 82.3157 244.247C80.1133 250.854 83.6371 258.929 90.2442 261.131L96.7045 262.453C97.7323 263.04 98.1727 265.242 98.6132 266.27C101.403 272.437 105.661 275.373 112.268 273.465L116.526 271.556C119.022 274.492 121.371 276.401 125.335 277.722L129.446 279.044L131.355 281.246L133.851 283.742C135.613 285.211 138.109 285.945 139.43 287.413L140.311 289.909C139.871 292.699 137.375 293.139 136.053 295.195L141.78 294.607C145.157 294.754 148.974 292.111 149.855 288.881C150.295 287.119 149.708 285.504 150.295 284.036L151.764 281.834C153.085 279.925 154.26 277.723 154.7 275.373L157.637 275.52C161.014 276.842 156.168 281.98 155.287 283.155L154.7 284.917C159.399 283.008 165.418 282.715 165.859 275.814L165.271 270.528C165.859 267.592 167.474 265.83 167.621 262.6C167.621 261.719 167.768 260.691 168.648 260.691C171.438 260.691 169.97 266.711 171.879 267.445C174.081 268.032 176.137 263.627 176.283 261.865C176.871 258.195 173.787 256.58 173.347 253.79V248.064L172.319 243.806C174.815 245.274 174.521 246.596 174.521 249.092H175.549C176.43 243.806 178.926 242.044 174.521 237.346L171.144 233.969C169.236 231.179 168.942 228.683 166.006 226.04C156.609 217.671 145.744 230.592 142.807 228.096C142.661 228.096 142.661 208.715 129.74 209.302L125.923 209.89C127.244 207.981 128.125 207.687 130.18 207.687C136.347 207.54 140.899 207.687 146.772 205.191C157.196 200.64 159.105 188.6 160.867 187.719C161.895 187.132 169.236 189.187 172.025 188.747C176.43 188.16 178.779 187.425 181.422 183.608L183.918 179.937C184.946 179.056 186.708 179.35 188.029 178.91C191.847 177.882 195.958 174.211 196.545 170.1L203.005 169.513L206.236 168.632L207.557 169.219L209.025 172.156L213.283 176.414C210.787 178.91 206.529 180.084 203.005 181.552C200.069 183.021 196.986 185.664 194.636 188.013C191.847 190.362 189.791 197.556 190.966 201.08L193.168 205.338L190.966 216.056C189.938 218.846 184.799 217.818 183.771 220.901L191.847 219.433C191.406 221.636 189.498 222.223 187.589 222.663C189.351 224.866 191.259 222.81 193.315 222.663C193.168 225.453 191.113 226.481 188.617 227.362C192.728 230.151 193.315 223.691 197.132 226.334C195.664 230.005 193.021 229.564 192.287 232.354C195.664 231.766 196.986 228.977 199.775 228.096C199.335 231.766 195.958 234.262 193.315 236.612C199.335 236.465 199.922 228.243 204.62 228.683C207.557 228.83 211.081 233.969 214.164 235.878L222.239 237.639L226.497 236.758L230.168 239.254C234.719 242.191 236.628 241.016 241.033 240.282C242.354 242.631 245.878 245.127 248.668 245.127L252.045 244.54L254.981 249.239L258.652 253.056L250.576 252.469C244.557 252.616 237.95 253.79 232.517 255.405C204.62 263.334 186.414 289.322 186.414 317.952C183.037 316.044 180.248 312.373 177.311 310.024C171.291 305.472 161.307 301.214 153.819 301.214C144.422 301.068 133.117 308.849 132.97 318.98L133.998 326.175C133.411 327.496 127.831 328.964 127.538 334.984C127.391 338.214 128.419 338.801 129.446 341.444C133.117 350.841 140.165 353.778 149.855 353.778L153.085 353.924C158.664 354.805 168.648 348.639 172.906 345.409C175.843 343.206 184.652 335.865 188.47 336.012C189.791 336.159 195.224 348.345 196.545 350.547C199.775 356.127 204.18 359.504 207.997 364.349L209.906 368.166C214.751 376.095 219.743 382.408 222.239 391.658C222.827 393.861 223.267 399.587 222.827 401.936C219.156 415.737 188.029 428.364 186.561 408.69C186.121 402.23 193.021 397.238 193.609 390.63C194.49 382.115 189.498 381.821 188.91 379.912L189.351 374.627C188.91 369.341 184.212 364.349 179.073 363.321C177.605 362.881 175.696 363.762 174.375 362.881L171.585 360.091C169.383 358.035 167.327 358.035 164.537 357.595C158.077 356.714 156.168 362.147 152.791 365.964C151.323 367.726 145.597 366.111 141.633 371.984C137.815 378.004 139.284 387.547 134.585 392.246C127.978 398.853 119.903 392.392 117.113 385.785C115.351 382.408 114.764 376.829 114.764 373.012C114.764 368.166 117.113 363.615 118.581 359.21C120.49 353.631 121.811 348.492 122.399 342.619C122.839 340.123 120.196 331.754 119.022 329.258C109.038 308.409 91.1252 316.925 81.4347 306.794C77.3237 302.095 79.6729 297.837 78.0578 292.405ZM250.43 381.821C251.751 380.94 256.156 380.94 257.918 380.793C276.858 378.884 270.251 394.301 279.941 397.238C285.668 398.999 285.521 397.091 290.219 395.329L295.945 395.769L299.763 395.182L309.6 402.817V406.634C306.81 416.178 297.854 412.36 296.533 413.095L294.183 415.444C291.687 417.353 288.457 417.94 285.227 417.206C281.41 416.325 281.556 412.948 279.207 412.067H274.949C267.902 411.186 266.58 407.809 266.434 401.349C266.434 397.531 262.322 389.015 259.386 386.373C256.743 384.17 253.66 383.142 250.43 381.821ZM184.065 405.46C182.156 400.761 180.394 395.035 177.898 390.924C171.438 380.5 162.335 376.829 151.91 384.17C146.625 387.988 141.926 392.686 135.907 395.329L140.311 385.785C142.073 380.94 141.192 376.242 144.569 371.984C147.065 368.607 151.176 370.662 153.379 369.047C155.875 367.285 155.581 363.468 158.224 362C161.16 360.531 167.768 360.091 170.41 362.587C171.291 363.468 171.732 365.523 172.906 365.964C174.228 366.845 178.926 364.202 183.771 368.754C185.974 370.662 186.708 375.214 186.561 377.71L185.974 381.527C186.121 383.73 188.91 382.408 190.672 384.757C193.902 389.456 188.176 402.523 184.065 405.46ZM290.513 369.047C293.302 369.047 295.652 368.9 298.001 370.369C303.727 374.186 310.628 390.043 320.024 384.611C322.227 383.289 322.961 380.94 324.87 379.472C328.54 376.242 332.064 371.543 329.715 366.258C327.513 361.706 319.731 357.301 319.437 356.274H331.183C336.322 356.274 341.901 358.182 346.159 361.119C350.417 363.908 354.088 367.139 354.235 372.865C354.381 382.408 348.068 391.805 337.643 392.099H331.183C330.155 392.539 328.834 395.916 327.366 397.238C320.759 402.817 310.481 401.936 303.874 396.797C299.029 392.686 298.148 382.261 295.505 376.535L290.513 369.047ZM34.5978 309.143C48.2524 311.198 50.308 323.238 58.2365 331.46C60.7325 333.956 63.5222 335.278 66.7523 336.599C68.9547 337.48 70.8634 338.508 73.2126 338.508C80.7006 338.655 84.6649 336.012 91.272 333.956C94.2085 333.075 96.4108 334.544 99.3473 333.516C97.5854 331.313 95.2362 331.313 92.8871 330.286C84.3712 326.028 79.0856 317.218 79.0856 307.822C81.2879 309.143 82.903 311.198 85.5458 312.226C98.3196 317.952 111.827 315.456 117.554 331.901C118.581 335.131 119.756 338.655 119.756 342.178C119.903 348.786 118.288 355.246 115.938 361.412C114.47 365.523 112.562 369.341 112.268 373.746C112.121 392.686 123.72 395.476 124.601 397.825C96.7045 393.273 110.359 364.349 98.76 352.162C86.8673 339.536 69.9824 359.797 54.4191 343.647C47.6651 336.452 45.6096 327.79 41.3517 319.127C39.7366 315.31 36.8001 312.667 34.5978 309.143ZM267.461 379.325C277.005 379.325 274.949 393.567 283.465 393.126C286.402 392.98 287.576 390.337 289.044 390.19C290.366 390.043 293.302 391.952 298.001 390.337C297.854 396.357 291.394 391.805 289.632 392.539C288.164 393.126 288.31 395.035 284.787 395.769L280.969 395.622C274.803 394.154 275.83 388.869 272.6 384.757L267.461 379.325ZM287.283 385.638C287.283 387.841 287.429 389.015 285.08 390.337C279.354 393.126 277.886 385.492 275.537 382.408L272.16 378.15C272.16 376.829 278.62 374.92 279.795 374.333C282.144 373.305 285.814 369.635 288.31 370.222C292.568 371.543 301.965 389.456 292.568 388.722C290.072 388.575 289.485 386.666 287.283 385.638ZM221.358 384.023L220.918 381.968C221.652 382.702 222.093 383.142 221.358 384.023ZM298.001 368.02C304.755 370.516 306.076 378.738 313.564 380.353C317.675 381.234 318.409 379.031 320.759 376.682C321.786 375.801 323.548 376.095 325.163 374.333C328.393 371.103 324.723 365.083 321.933 362.881C318.997 360.091 312.536 359.944 308.572 359.944C305.636 359.944 302.552 361.266 299.616 360.531C301.378 359.063 309.453 358.035 311.949 358.035C320.465 358.035 332.651 364.202 326.632 374.48C325.604 376.389 324.136 376.976 322.52 378.297L319.731 381.674C314.592 385.785 308.425 380.353 305.195 376.535L298.001 368.02ZM219.89 380.353C218.569 377.563 216.073 375.654 215.632 372.865L216.954 373.452L220.184 379.178L219.89 380.353ZM294.33 365.23C294.477 364.349 294.917 363.468 295.798 363.174L299.029 363.027C305.489 362.147 320.171 360.678 323.548 367.432C326.044 372.571 322.961 372.571 319.878 374.186C318.409 375.214 318.116 381.381 309.6 376.535C303.874 373.158 303.14 365.377 294.33 365.23ZM235.894 376.535L238.684 374.627C241.033 373.746 246.759 374.48 247.64 377.123L242.942 376.242C240.446 376.535 238.537 379.031 235.894 376.535ZM264.231 377.123C265.112 375.801 266.14 375.654 267.461 375.361C267.021 376.976 265.699 376.976 264.231 377.123ZM247.2 362C250.87 362.44 252.926 366.551 253.953 369.635L251.751 369.194L249.842 369.781C247.934 371.543 251.751 374.627 252.338 376.388L250.136 375.948C247.787 374.48 246.319 368.9 246.319 366.111L247.2 362ZM224.148 350.841C223.708 348.345 222.827 348.492 220.918 347.611C217.688 346.143 216.807 345.849 213.43 345.849L215.339 339.389L215.485 334.103C205.208 334.103 205.648 339.682 200.95 341.151C200.069 337.04 197.573 333.663 194.49 331.313L190.378 328.964C189.057 327.496 188.029 315.75 188.617 313.548C189.057 312.079 190.966 310.758 191.994 309.29C193.315 307.528 195.811 302.536 197.573 301.802C198.454 303.71 203.299 311.198 205.501 310.758C206.529 310.758 206.97 309.73 207.41 308.849L208.732 304.004C208.732 300.774 206.382 296.369 205.061 293.286L213.136 294.314H215.632C223.708 293.286 212.255 285.504 210.347 284.33L207.557 282.421C206.97 281.099 210.053 277.282 210.787 275.667C211.815 272.877 210.787 270.528 211.374 269.207C211.962 267.298 219.743 262.159 221.652 262.6C223.854 262.746 225.47 264.802 228.112 264.949L235.6 264.508L234.132 269.207C233.985 271.996 236.041 280.512 239.858 279.044C244.116 277.576 244.557 272.29 247.346 271.409C248.374 273.611 253.513 280.953 255.715 280.953C257.477 280.953 257.918 276.842 257.918 275.667L256.89 268.179L254.541 262.453C256.743 262.6 260.707 263.921 262.616 263.774L265.112 263.187L269.957 262.159L273.187 260.691C275.096 260.104 279.207 262.453 280.676 263.627C279.207 268.032 283.025 272.73 285.961 275.814C284.052 278.603 279.941 277.869 276.858 282.861L275.39 286.532L280.676 288.441C283.612 289.322 286.842 288.441 289.779 288.294L288.017 296.81C288.017 298.131 287.87 301.655 289.338 302.389C291.1 303.417 297.413 294.754 298.441 293.286C299.029 291.964 299.322 290.496 300.79 290.056C301.231 300.333 309.6 302.829 310.334 304.591C311.802 307.822 311.655 316.778 311.655 320.595L309.6 320.448C306.663 321.036 304.461 327.936 304.021 330.726C302.112 330.139 291.247 316.19 290.806 326.028C290.66 328.23 292.568 334.544 291.834 335.424C291.394 336.305 283.025 337.333 280.382 342.032C276.711 347.758 292.715 349.079 295.505 349.079L292.275 357.008L290.953 363.468L287.576 366.845C280.382 372.424 280.822 369.047 273.041 368.166C270.691 367.726 268.783 369.047 266.58 369.488L267.168 362.293L265.259 358.916C261.441 355.099 256.449 363.615 254.541 366.404C252.338 364.936 251.311 362.734 248.815 361.559C247.493 360.972 246.319 360.678 245.144 361.706C242.208 364.202 244.116 369.635 244.997 372.865L240.299 373.452C235.454 373.452 235.6 375.361 232.223 375.948C229.287 376.388 219.597 372.277 218.128 369.928L216.366 364.202C215.485 362.293 211.668 359.063 214.017 357.448L218.275 354.952C221.212 352.603 220.771 350.841 224.148 350.841ZM265.993 373.305C266.874 371.837 268.489 370.516 270.251 369.928C273.187 368.9 282.584 370.075 275.537 373.746L270.691 375.508L265.993 373.305ZM259.533 375.067L258.945 374.48C259.826 373.158 261.295 371.69 261.442 370.222C261.588 369.341 261.295 368.02 259.973 368.313L256.743 370.222C256.743 367.285 258.065 365.083 259.68 362.734C267.021 353.043 267.461 370.369 259.533 375.067ZM215.045 367.285C212.255 365.377 212.255 364.936 210.787 362L209.319 358.329L210.787 358.77C212.843 359.797 216.66 364.936 215.045 367.285ZM292.568 366.845L293.596 365.083V366.845H292.568ZM293.743 360.531C294.33 354.071 295.945 349.813 302.259 347.758C303.58 350.547 301.378 353.778 299.029 355.246C299.175 352.75 300.79 351.428 301.818 349.226C298.148 350.988 298.001 352.456 296.533 355.686L297.56 356.274H298.001C297.12 358.182 295.798 359.797 293.743 360.531ZM369.798 360.531C369.798 353.337 364.659 345.409 367.889 338.508C370.679 332.341 378.754 330.139 378.754 322.944C378.901 318.686 374.496 311.198 376.258 307.968C377.139 306.647 378.607 306.5 379.929 306.06C385.949 304.738 384.334 310.905 388.004 314.429C391.822 318.246 395.052 315.456 396.814 321.917L396.373 327.936C393.877 340.123 378.901 333.222 378.901 344.968C378.754 351.575 378.167 359.504 369.798 360.531ZM210.347 355.539C211.374 353.043 211.228 351.722 208.291 351.282C211.228 346.583 225.763 347.464 217.247 353.19L214.751 354.659L210.347 355.539ZM200.509 352.456C202.418 352.897 203.005 353.337 203.299 355.246C201.537 354.805 201.097 354.071 200.509 352.456ZM72.1848 353.043C73.9467 351.722 76.0022 352.016 78.2046 352.016L82.903 351.428C81.1411 353.484 74.6808 353.043 72.1848 353.043ZM137.375 327.936C135.466 326.468 134.879 323.679 134.879 321.476C134.732 316.19 136.788 311.492 141.339 308.409C152.645 300.333 167.768 305.472 177.752 313.107C182.156 316.484 186.708 320.155 186.708 326.175C183.478 326.028 175.402 317.365 168.942 315.31C163.656 313.548 155.581 314.429 153.232 320.889C152.645 322.651 153.672 324.119 153.379 325.147L150.589 328.964C148.387 334.69 152.791 341.151 158.958 341.297C166.006 341.297 172.466 336.159 178.779 333.222C181.275 332.194 188.176 329.405 188.323 333.663C179.367 334.544 170.264 346.877 161.014 350.107C150.295 353.778 130.034 351.575 129.446 336.893C129.153 328.964 134.585 331.313 137.375 327.936ZM307.104 348.786C308.132 345.409 308.866 342.178 312.83 342.032C323.548 341.444 329.715 340.123 336.909 331.167C342.489 324.119 344.985 316.484 344.985 307.528C345.131 288.294 340.433 267.004 368.623 267.004C365.246 269.794 360.695 270.675 358.639 274.933C355.262 281.98 359.08 284.917 358.786 288.441C358.639 290.496 356.584 292.699 356.29 294.901C355.703 299.746 358.492 308.702 364.219 308.262C362.897 310.758 360.842 312.373 359.814 315.31C358.052 320.008 358.346 325.294 355.556 329.552C351.885 335.718 349.536 333.369 347.187 335.571L343.81 341.591L338.231 346.436C331.917 350.694 314.151 351.575 307.104 348.786ZM206.089 348.786C206.236 345.115 208.585 345.409 207.116 341.738C205.648 343.647 205.795 344.234 203.299 344.528C203.886 341.591 207.557 338.508 210.347 337.774L213.577 336.893L213.136 340.71C212.255 343.94 208.878 347.464 206.089 348.786ZM198.454 348.198L196.105 343.5L193.315 340.123L191.553 332.635C196.692 334.69 199.041 337.774 199.041 343.5C199.041 344.968 199.482 346.877 198.454 348.198ZM299.029 340.71C293.302 341.591 296.092 345.409 298.588 344.821L302.259 342.913C300.35 349.96 282.878 345.702 282.878 342.472C282.878 338.801 296.092 336.599 299.029 340.71ZM262.763 328.23C262.91 330.726 263.791 343.647 261.882 345.115C261.001 345.702 259.68 345.115 258.945 344.528C255.128 342.178 251.311 337.333 250.43 332.635C248.227 333.956 247.64 335.424 246.172 336.893C244.263 338.801 241.033 341.444 238.684 342.032C236.481 342.619 235.747 342.032 234.866 340.123C232.664 335.278 234.866 331.167 236.628 326.321L232.811 326.762C229.434 326.321 220.037 323.091 221.358 318.393C223.267 312.226 233.985 312.226 238.831 310.758L234.573 305.032L233.545 301.214C232.077 295.048 234.573 294.607 240.005 296.369C242.501 297.25 244.85 299.599 247.493 300.774C247.493 296.516 254.247 285.651 258.945 290.496C262.763 294.607 260.414 298.131 261.882 302.829C267.461 299.453 278.326 298.718 274.068 308.556C273.187 310.464 268.783 315.31 268.783 316.19L274.362 321.917L277.152 327.936C279.648 337.333 265.699 330.873 262.763 328.23ZM306.517 342.325L305.489 345.996C302.846 345.115 304.314 342.619 306.517 342.325ZM299.616 342.325C299.616 341.297 299.616 341.004 300.644 340.563L299.616 342.325ZM252.485 328.964L255.275 332.341C256.596 332.928 256.743 330.579 256.743 329.992C256.743 328.671 254.394 322.944 257.184 323.385C261.882 323.972 263.791 350.401 255.715 338.508L253.513 334.69L252.485 328.964ZM236.922 339.536C234.573 333.956 239.124 323.972 244.997 322.504C244.557 324.266 241.767 328.23 243.529 329.698L244.997 329.845C246.759 329.258 247.346 327.055 249.255 326.615L246.906 331.901C244.85 334.837 240.152 338.361 236.922 339.536ZM306.517 338.948L308.719 337.921C308.279 339.389 307.985 339.389 306.517 338.948ZM311.362 339.536C311.362 335.131 317.822 336.746 321.64 335.424C328.247 333.369 333.532 329.845 337.056 323.532C340.874 316.337 341.461 308.409 341.461 300.48C341.461 288.294 337.056 276.401 349.389 268.032C355.996 263.774 364.072 262.746 372 262.893L377.726 263.481C375.818 261.719 373.909 261.278 371.266 261.278C362.75 261.131 351.885 262.746 345.719 269.207C340.58 274.492 338.671 280.659 338.671 288L339.699 296.076C340.139 307.381 338.818 323.385 327.953 329.698C323.108 332.635 318.556 333.956 312.977 333.956L314.445 320.595C314.592 314.429 314.886 308.409 313.124 302.536C310.628 293.58 307.398 286.091 301.818 278.457C299.029 274.639 294.624 270.381 290.953 267.298L284.787 262.159C283.906 260.838 283.906 259.369 283.906 257.901C286.108 258.782 286.842 261.278 287.136 263.481H288.898L288.31 257.461C293.596 257.461 291.687 261.131 295.358 263.481C294.917 260.104 293.009 257.461 292.568 254.377C295.945 254.818 298.735 259.516 300.056 262.453L300.644 260.691C300.644 259.223 298.441 256.139 297.854 254.231L303.14 257.901L299.469 253.643L295.652 249.385C297.413 246.008 304.608 246.449 307.838 242.925C312.096 238.227 309.306 232.06 310.775 228.389C313.124 223.104 315.913 223.838 316.06 229.417C316.501 252.028 353.354 250.266 343.81 226.921C349.536 226.334 352.619 218.993 358.346 221.636C363.191 223.985 363.484 232.941 366.861 237.052C370.238 241.457 374.79 240.723 378.607 243.219C384.774 247.477 385.361 262.012 377.58 264.361L365.393 264.508C353.207 264.508 346.159 271.703 343.37 283.008L342.489 291.084C345.719 314.869 339.993 339.536 311.362 339.536ZM174.962 321.476C172.172 321.476 169.236 321.329 166.446 322.063C161.895 323.825 160.867 326.909 164.244 330.432L167.474 332.928L171.732 333.075C168.502 337.48 152.498 342.178 151.91 333.075C151.764 328.524 154.847 328.964 156.609 326.909C157.637 325.44 154.113 324.413 155.581 321.329C158.518 315.31 171.585 316.631 174.962 321.476ZM302.846 335.718L298.001 331.02L296.973 334.69C293.743 333.809 293.302 328.083 293.302 325.147C297.12 325.587 300.79 329.845 302.406 333.222C302.846 334.25 303.286 334.837 302.846 335.718ZM306.076 334.69C306.076 330.432 306.517 322.944 312.096 321.917L311.509 324.706L311.362 328.377L307.544 334.103L306.076 334.69ZM180.835 326.762C179.513 328.083 174.081 329.552 172.025 329.992C169.676 330.579 165.859 331.02 164.537 328.23C162.775 324.559 172.172 323.825 174.081 324.119C177.458 324.706 178.192 325.147 180.835 326.762ZM263.203 325.147C269.223 325 263.791 320.302 263.203 317.659C266.14 317.659 266.14 317.806 268.489 319.567C272.307 322.063 274.509 325.294 274.509 329.992C271.279 329.992 270.251 329.111 267.461 327.936C265.553 327.055 264.525 327.055 263.203 325.147ZM242.354 313.841V315.163C240.592 315.163 234.719 316.484 237.215 319.274C238.096 320.155 239.124 320.302 240.152 320.595C238.684 324.853 225.91 324.706 224.001 320.595C222.239 316.925 233.985 314.135 236.628 313.988H242.354V313.841ZM250.43 321.623C244.85 319.714 248.521 312.667 252.926 313.548C255.422 313.988 256.596 318.246 255.275 320.008C254.541 321.329 251.898 321.917 250.43 321.623ZM260.707 319.274C262.029 319.861 262.91 320.302 263.203 321.77C261.441 321.476 261.295 320.889 260.707 319.274ZM261.148 315.016L262.91 312.226L263.497 311.198C264.084 310.318 264.084 308.849 262.91 308.702L256.89 310.611C260.12 305.032 266.287 303.123 272.453 303.123C272.453 308.409 266.434 314.869 261.148 315.016ZM387.27 308.115H389.032C389.472 310.464 390.5 312.373 391.822 314.575C387.71 313.988 387.27 311.198 387.27 308.115ZM243.969 312.373L241.033 310.024C237.803 307.087 235.454 302.829 235.454 298.572L239.124 298.718C243.823 300.04 248.08 304.298 248.668 309.143C245.291 306.647 246.906 305.325 241.914 305.325L242.354 307.528C243.235 308.849 244.85 310.758 243.969 312.373ZM246.612 310.611L245.144 308.556C245.878 309.143 246.759 309.583 246.612 310.611ZM405.623 310.611C405.036 308.849 404.595 307.675 406.651 306.941C406.651 308.409 406.651 309.583 405.623 310.611ZM54.4191 310.171C42.9667 297.397 36.066 287.413 36.3596 269.5L36.8001 261.572C36.8001 257.901 35.0382 252.762 35.9192 249.679C36.5065 247.77 38.8557 245.421 40.0303 243.219C42.5263 237.933 42.8199 232.501 42.8199 226.628C46.0501 227.949 47.5183 239.401 47.6651 242.778C47.6651 253.203 44.8755 263.481 44.8755 273.758C44.8755 279.484 46.1969 285.504 47.812 291.084L52.9508 302.829C50.4548 301.068 48.3993 296.81 47.3715 294.314C44.435 287.266 42.6731 280.512 42.6731 272.73C42.6731 265.683 44.435 255.846 39.443 249.679L40.4707 259.957L39.8834 268.473C39.8834 276.548 40.3239 284.476 43.9945 292.111C46.1969 296.81 48.3993 301.214 51.923 305.325C52.804 306.5 55.1532 308.702 54.4191 310.171ZM363.191 298.425L367.008 302.683L370.826 305.913L371.266 309.143L368.036 308.262L365.1 307.675C362.163 305.913 362.163 301.214 363.191 298.425ZM189.791 308.115C189.791 306.206 190.232 301.655 191.259 300.187C192.14 299.159 193.021 299.599 194.049 297.837C195.811 300.333 192.14 305.766 190.819 308.115H189.791ZM198.454 297.837C200.216 299.159 200.216 301.068 202.271 301.655L202.418 297.837C202.418 296.076 201.39 294.167 200.509 292.552C207.116 294.754 209.025 315.016 201.537 304.885L199.628 302.095L198.454 297.837ZM361.135 306.353L358.786 301.068C357.905 297.691 358.346 292.699 361.723 291.084C363.631 293.873 361.576 295.195 360.842 297.837L360.695 302.095C360.842 303.564 362.163 305.032 361.135 306.353ZM256.156 305.913C256.156 297.397 252.045 298.865 250.87 305.325H249.842C249.842 303.417 249.402 301.508 249.989 299.599L252.338 295.782C253.219 294.754 254.541 292.552 255.715 292.405C259.533 291.671 260.267 304.591 256.156 305.913ZM395.345 288.881L394.024 296.81C394.024 298.572 395.492 300.187 394.905 301.655C393.143 305.913 385.508 306.5 382.572 303.564C379.342 300.333 379.782 291.671 384.04 289.322C386.242 288.294 388.885 289.762 391.087 289.762L395.345 288.881ZM378.314 282.274C376.552 277.135 368.036 283.595 365.98 285.651L363.778 288.147C362.75 288.734 361.869 287.266 361.282 286.385C357.024 279.191 363.631 267.885 372.441 269.06C376.846 269.647 375.23 271.85 377.726 274.639L381.838 278.016L381.691 283.742C381.838 284.77 382.572 285.798 382.278 286.972C381.25 289.909 378.461 290.643 378.461 295.048L379.048 303.417C374.937 310.464 357.024 292.992 370.238 284.917C373.175 283.155 374.79 282.421 378.314 282.274ZM399.31 284.33C395.199 285.357 386.242 291.377 383.893 283.889C383.453 281.98 384.774 280.219 384.48 278.603C384.334 275.373 377.873 275.814 378.314 270.528C379.195 264.508 387.27 262.6 385.802 251.735C384.774 244.687 376.405 241.751 377.433 234.262C378.02 228.977 379.929 212.092 369.798 214.882C371.56 216.203 373.469 216.35 374.643 218.112C376.992 221.342 375.965 228.83 375.524 232.647L375.084 235.437L375.524 240.135C366.421 239.254 367.449 228.977 363.191 223.544C361.869 222.076 356.731 219.727 356.584 218.699L357.905 212.532L356.877 204.457C360.108 204.604 362.457 206.659 364.953 208.128L369.211 209.596C375.965 211.798 379.929 210.917 386.242 208.275C389.032 207.247 390.941 206.219 391.087 202.695C396.667 201.814 399.897 200.199 403.861 196.529C405.77 194.62 406.798 194.473 406.064 191.683C407.532 190.656 413.111 186.985 414.579 186.985C419.718 186.838 425.004 198.731 426.032 202.695C427.059 206.072 426.913 209.449 426.913 212.973C426.913 219.727 421.774 226.481 421.774 227.949L425.151 234.997C428.381 244.834 423.829 246.743 420.452 254.818C425.591 256.286 426.472 268.473 417.222 270.381C416.194 270.528 411.496 271.262 411.496 272.584C411.496 273.465 417.075 274.492 418.25 275.373C423.829 279.631 423.095 291.524 415.46 292.845C418.837 304.004 397.988 311.198 396.226 297.691C396.079 293.139 398.429 288.441 399.31 284.33ZM53.9786 299.893C50.7484 290.79 47.3715 283.008 47.5183 273.171C47.5183 266.417 49.427 259.076 50.0143 252.322C50.4548 248.064 49.8675 243.806 49.427 239.548L46.1969 228.243C44.2882 224.866 41.4985 223.104 41.4985 219.14C44.7286 220.608 47.5183 223.397 50.6016 225.306C52.804 226.774 56.1809 226.774 58.0897 228.243C60.292 230.151 61.3198 232.794 62.3476 235.29C64.2563 238.667 65.7245 242.338 66.0182 246.302C66.6055 258.635 55.3 275.667 55.3 292.405C50.1611 285.651 58.0897 265.977 58.0897 257.167C58.0897 252.322 57.2087 247.77 56.1809 243.072C55.5936 240.135 53.9786 233.675 52.0699 231.326C52.2167 237.493 55.3 243.659 55.3 250.119C55.3 254.231 55.8873 258.195 55.3 262.453C54.2722 268.473 51.1889 274.786 51.0421 280.953L53.9786 299.893ZM308.572 299.893C306.663 298.572 305.782 297.984 304.902 295.635C306.81 295.048 306.663 294.314 306.37 292.405C308.279 293.726 309.894 298.278 308.572 299.893ZM290.513 299.453C289.925 297.544 290.366 296.956 290.513 295.195C290.953 290.937 291.981 287.266 295.798 284.917L293.596 288.734L292.128 292.405C295.505 292.405 295.064 291.377 297.854 289.909C296.973 293.286 293.743 297.544 290.513 299.453ZM141.633 292.405L142.661 287.119L147.946 286.091C148.093 290.056 145.891 292.405 141.633 292.405ZM205.355 290.937C206.236 289.028 207.263 287.266 205.355 285.798L203.593 284.33C207.851 284.77 215.485 288 215.926 292.405C212.402 292.405 208.878 292.405 205.355 290.937ZM194.783 291.377C194.93 289.175 196.251 286.238 198.454 285.357C199.628 289.028 198.747 291.377 194.783 291.377ZM303.286 290.937C302.699 289.175 302.699 288.147 303.286 286.385C304.755 287.853 304.608 289.468 303.286 290.937ZM291.1 279.044L288.898 280.806C287.429 281.834 285.668 284.183 288.898 284.476C290.66 284.623 292.275 283.155 294.183 283.008C293.302 284.33 291.834 284.917 290.366 285.357C288.457 285.945 280.382 287.119 279.06 284.917C277.299 282.421 285.227 278.897 287.136 278.75L291.1 279.044ZM131.649 278.603C136.347 278.163 141.486 274.492 143.395 270.088L145.891 262.012C159.105 268.619 150.589 289.028 137.962 284.476C135.026 283.302 132.97 281.393 131.649 278.603ZM298.588 282.715C295.211 281.687 295.358 277.576 297.267 277.869C298.882 278.016 302.699 282.861 298.588 282.715ZM159.399 281.246L160.867 277.576C161.454 275.08 160.72 273.171 164.244 272.73C164.244 276.548 163.803 280.072 159.399 281.246ZM204.327 280.806C204.767 277.135 205.355 272.29 209.612 271.703C209.319 274.786 207.116 279.044 204.327 280.806ZM254.688 278.603C251.898 275.814 247.053 270.528 248.668 266.27L251.457 268.619L252.926 268.473C253.953 267.151 252.779 265.096 252.485 263.774C254.688 265.83 257.477 276.254 254.688 278.603ZM240.886 263.04C240.886 263.921 241.033 268.326 242.795 267.445L245.144 264.655C245.144 268.473 243.676 274.639 239.858 276.401C237.509 277.429 237.069 274.052 237.069 272.584C236.922 269.207 237.656 264.949 240.886 263.04ZM114.323 266.857C114.323 274.346 105.514 273.024 102.137 268.326C100.375 266.123 99.641 261.865 97.5854 260.397L91.1252 258.635C85.9863 257.314 83.1966 251.881 83.6371 246.889L84.9585 243.219L90.0974 240.87C93.768 238.961 100.375 234.262 101.99 230.592C94.5021 237.786 81.8752 244.393 71.4507 240.87C68.661 239.989 67.046 239.401 65.8714 236.612L71.8912 237.052C80.9943 236.905 91.5656 232.501 96.9981 224.866L90.5379 229.417C84.3712 233.235 73.5062 237.052 66.4587 234.116C64.1095 233.235 62.788 232.794 62.2007 230.298C66.8991 230.298 71.5975 229.858 76.0022 228.389C81.7284 226.481 89.6569 219.286 92.4466 213.707L94.2085 207.247H93.1807C93.1807 215.616 82.903 223.838 75.7086 226.187C72.4785 227.068 68.661 227.215 65.4309 227.509C65.8714 226.04 80.5538 217.671 79.9665 205.044C79.0856 190.068 58.2365 179.497 48.6929 193.298C46.4905 196.235 45.4628 197.997 45.7564 201.814C46.1969 210.917 51.923 218.846 61.7603 218.405C73.9467 217.818 75.8554 198.731 62.3476 198.584C57.0619 198.437 51.4826 203.429 55.5937 208.568L58.0897 210.771C67.1928 215.469 65.7245 200.346 60.292 203.723C58.3833 205.044 66.0182 209.449 60.292 209.302C57.5024 209.155 56.4746 206.366 57.3555 204.017C59.7047 197.85 70.5697 201.227 69.1015 208.862C66.8991 220.755 49.427 218.699 48.6929 201.814C48.2524 194.179 52.804 194.179 53.9786 190.068L59.2643 189.041C64.8436 188.894 65.2841 189.187 69.9824 192.417C74.3872 195.354 77.4705 199.906 77.4705 205.485C77.4705 213.56 69.9824 224.719 61.4666 224.866L54.4191 224.719C49.7207 223.251 42.0858 216.203 38.4152 212.532C18.3002 192.271 2.00273 149.398 20.6494 123.557C23.4391 119.886 25.9351 115.922 30.193 114.013C30.193 115.481 31.2208 118.565 30.3398 119.739L27.8438 121.942L22.705 127.668C19.9153 131.339 16.5384 138.092 16.5384 142.644C16.5384 146.315 15.9511 153.949 19.328 156.005L17.5661 146.461C17.5661 143.084 18.8875 138.827 19.9153 135.743C20.7963 133.394 25.9351 126.64 27.8438 125.319L31.5144 123.85C31.5144 126.787 29.1653 128.549 27.4034 130.898L23.7327 138.386C22.4113 142.057 22.4113 146.021 22.4113 149.692L23.7327 147.93L23.8796 144.259C24.32 139.561 26.8161 130.458 32.3954 129.723C32.2486 131.926 31.3676 132.219 30.193 133.981C28.7248 136.918 28.7248 138.68 28.7248 142.057C31.2208 140.148 30.0462 135.596 33.4232 134.569C34.8914 138.68 37.2406 142.497 39.1493 146.315L44.2882 157.033C48.3993 164.668 54.1254 172.449 61.3198 177.295C61.7603 174.799 58.3833 172.743 56.4746 170.834C51.3357 165.695 48.5461 160.41 45.0223 154.39C41.3517 148.223 36.9469 139.708 35.0382 132.807C34.0105 128.989 33.1295 123.41 33.1295 119.446C32.689 102.855 32.689 85.3825 46.931 73.3429C49.8675 70.9937 55.4468 66.2953 59.2643 65.8548L57.5024 70.1127L53.8318 73.0492L47.3715 79.2159C36.066 92.8705 34.3041 108.581 40.7644 124.585L41.3517 123.116L40.4707 120.327L39.5898 114.16C38.2684 101.974 40.4707 91.8428 48.3993 82.1523C50.308 79.6563 52.6572 76.1325 56.3278 75.6921L55.3 79.95C54.2722 82.0055 51.6294 83.3269 50.1611 85.2356C46.4905 89.4936 43.1136 97.1284 42.9667 103.001L43.4072 106.672C43.8477 109.902 42.9668 111.958 46.1969 114.16C45.7564 111.224 44.435 107.7 44.7286 104.616C44.8755 98.0094 48.1056 90.9618 52.6572 86.5571C53.6849 85.2356 54.1254 84.6484 55.8873 84.5015V86.9975C55.8873 89.4936 54.8595 89.3467 53.6849 91.2555L51.7762 95.0729L49.8675 102.561C49.427 105.057 49.2802 105.351 50.0143 107.847C51.4826 105.644 50.6016 104.47 51.3357 102.12L53.5381 96.1007C54.1254 94.6324 54.4191 93.8983 55.8873 93.311C55.8873 97.4221 58.3833 107.112 59.9984 111.077L62.788 116.362C64.5499 120.033 66.0182 123.85 68.5142 127.081L72.1848 129.87C72.038 129.283 62.3476 113.866 61.3198 110.049C59.8516 104.91 58.5301 98.8903 58.3833 93.4578L58.8238 88.7594L58.2365 83.9142C58.5301 68.204 67.1928 55.5771 80.7006 48.3827C85.399 46.0335 90.9783 43.6843 96.264 43.6843C95.8235 45.0058 95.2362 46.6208 93.9148 47.5018C92.5934 48.0891 90.6847 47.6486 89.2164 48.0891C85.399 48.97 81.5816 50.5851 78.2046 52.7874C72.4785 56.1644 68.8078 61.7437 66.0182 67.7635C64.2563 71.8746 62.6412 74.8111 62.6412 79.5095C62.6412 88.319 64.8436 96.3943 68.3674 104.176L69.2483 102.414L66.8991 95.9538L64.9904 87.438C62.4944 73.196 71.157 56.8985 84.9585 52.2001C87.1609 51.6129 90.5379 49.9978 92.4466 50.8787L89.6569 56.4581L82.4625 59.2477L75.7086 63.9461C69.1015 70.4064 67.3396 80.5373 70.8634 88.9063C72.1848 86.9975 70.8634 84.0611 70.8634 81.4182C70.8634 70.2596 77.911 61.7437 88.9228 60.1287L88.0418 64.8271C87.1609 66.2953 84.8117 66.7358 83.4903 67.7635C80.7006 69.9659 77.03 73.7833 76.2959 77.1603L76.0022 82.1523C78.3514 80.3904 76.8832 78.9222 77.911 76.8667C79.2324 73.4897 83.4903 70.4064 86.7204 69.2318L85.6927 80.5373C85.6927 93.1642 86.1331 100.212 91.4188 111.664C92.2998 113.573 92.4466 116.216 94.649 116.95C94.2085 111.664 90.391 107.847 89.0696 103.148C86.8673 95.0729 87.7482 88.0253 87.7482 80.0968C87.7482 53.6684 108.157 22.248 136.934 22.248C136.494 23.7162 133.117 30.7638 132.089 31.3511H127.831L117.113 35.4622C102.284 42.9502 94.5021 60.2755 94.5021 76.2794L95.5299 84.7952L96.9981 83.3269L96.1172 76.8667L96.9981 66.589C98.76 58.5136 104.486 47.2081 111.093 42.0693C113.296 40.601 134.585 27.9741 130.327 38.6923C129.3 41.482 103.312 41.0415 103.312 70.2596H104.78C104.78 63.212 106.689 55.1366 112.268 49.9978L117.554 46.6208C121.224 44.4185 125.188 42.9502 129.446 42.5097L129.153 46.1804C128.272 47.2081 126.363 47.5018 125.335 48.0891C120.637 49.9978 115.058 52.9343 114.47 58.5136L117.26 55.2835C119.609 52.9343 125.776 49.7041 129.006 49.5573V63.7993C129.006 69.9659 130.768 75.9857 131.208 82.1523C133.411 80.6841 132.089 77.3071 131.649 75.1048C130.18 67.9104 130.621 59.9818 130.768 52.6406C130.915 34.2876 138.256 19.752 155.287 11.6766C166.593 6.39093 172.613 5.95046 184.652 6.97823C179.954 13.7322 176.724 11.2361 170.117 11.2361C144.129 11.2361 132.383 40.0137 136.053 62.1842C137.815 60.8628 137.081 59.2477 137.081 57.339V49.851C137.081 41.9224 143.541 27.24 149.268 22.1011C151.764 19.8988 156.903 17.2559 160.133 16.0813C164.978 14.1726 170.998 12.8512 176.137 14.3195C175.99 15.6409 175.549 16.6686 174.375 17.2559L167.621 18.2837L161.601 19.752C151.176 23.863 145.01 32.9662 143.541 43.6843C143.101 46.6208 142.514 48.97 142.954 51.7597C144.422 49.2637 144.863 42.6566 145.891 38.986L149.121 32.9662L151.617 28.8551C156.462 23.2757 164.684 20.7797 171.879 20.7797C171.438 23.1289 169.529 24.8908 168.648 27.24L165.859 26.6527C162.188 26.6527 154.113 33.2598 152.351 36.1963L150.883 43.2439C153.672 40.0137 152.351 39.5733 154.113 36.7836C156.609 32.9662 162.629 30.1765 166.887 28.7082C166.299 32.9662 163.95 37.2241 162.775 41.482L162.629 45.7399C161.16 55.1366 160.72 60.4223 162.482 69.8191L163.363 74.6643L164.244 72.4619L162.775 62.9183C162.629 58.8073 164.244 43.2439 165.271 39.2796C167.621 31.3511 172.025 23.863 177.164 17.2559C183.331 9.32742 193.609 4.04174 203.886 4.04174C210.347 4.04174 216.513 3.60127 222.68 5.50999V6.53776C218.569 8.29965 212.402 6.53776 207.704 6.53776C191.113 6.53776 179.367 18.7242 174.081 33.4066C172.76 36.7836 171.585 40.4542 171.291 44.1248C171.291 46.9145 170.41 49.851 171.291 52.6406C173.2 50.1446 172.172 47.0613 172.613 44.1248L174.521 37.0772C179.66 20.1924 191.847 9.32742 209.906 9.32742L216.366 9.76789C216.22 11.0893 215.485 11.9703 214.164 12.2639C212.696 12.7044 209.319 11.383 206.676 12.2639C202.859 13.1449 198.747 14.4663 195.371 16.375C189.351 19.752 180.394 30.1765 182.156 37.6645L185.974 28.121C191.113 19.1647 202.418 14.6131 211.962 14.6131C210.934 18.7242 205.795 19.3115 202.418 20.6329L198.601 22.9821C195.664 25.1845 192.14 27.6805 192.874 31.7916L195.224 28.121L197.132 26.3591C200.509 23.863 202.712 22.9821 206.676 21.6607C206.529 26.5059 201.978 32.3789 200.216 37.0772L198.013 44.5653L197.426 48.3827C200.216 50.1446 199.188 57.9263 199.188 61.1564C199.188 67.6167 203.886 72.6087 205.942 78.4817C206.382 79.95 206.529 83.7674 207.263 84.6484C209.172 86.5571 209.466 82.8865 209.466 82.1523C209.319 78.3349 208.144 77.8944 206.97 74.6643C204.18 68.4977 200.803 62.9183 200.803 55.8708C200.803 53.5216 201.684 50.5851 199.335 49.1168C202.565 38.8391 206.529 24.5972 214.311 16.9623C217.247 14.1726 221.946 11.6766 225.616 9.91472C240.152 2.27985 257.184 0.371129 271.719 8.88695C273.922 10.3552 277.739 12.2639 278.473 14.9067C275.683 14.7599 270.545 10.0615 267.314 8.74012C252.779 2.72032 237.509 4.62904 225.47 14.9067C222.239 17.6964 216.073 21.9543 215.192 26.2122C217.394 24.8908 218.422 22.8353 220.331 21.0734L227.966 14.4663C236.922 7.4187 250.723 5.36316 261.295 9.32742C264.084 10.3552 270.251 12.5576 272.013 14.9067L267.314 15.3472L260.854 12.4107C257.184 11.0893 253.66 10.6488 249.989 10.6488C243.382 10.6488 230.755 14.4663 226.938 20.1924C229.434 20.0456 233.545 16.8155 236.041 15.494C243.969 11.8234 253.953 12.2639 261.882 15.3472V16.375L258.065 17.4028L254.247 16.375L249.549 15.494C246.172 15.3472 237.215 17.6964 236.041 21.2202C241.18 18.7242 247.2 16.6686 252.632 18.4305C252.045 20.4861 249.402 20.9265 247.787 22.248C244.557 24.5972 241.327 27.0932 238.977 30.3233L236.188 34.5812C234.866 36.4899 233.839 38.3987 233.692 41.0415L234.573 44.7121C236.041 42.6566 235.454 42.3629 235.894 40.0137C236.335 37.6645 237.362 35.4622 238.684 33.5535C242.354 28.2678 247.2 23.7162 253.219 21.367L257.477 20.0456C261.735 18.5774 265.406 17.2559 269.811 17.2559H278.326C277.005 18.2837 272.747 18.2837 270.838 18.5774L260.854 21.0734L254.247 24.8908L248.961 29.5892C249.842 30.0297 249.549 30.1765 250.723 29.736L253.953 27.3868C256.449 25.4781 258.799 23.7162 262.029 22.8353C267.314 21.0734 278.033 19.1647 283.318 20.9265C282.291 21.8075 280.822 21.5138 279.501 21.5138C272.013 21.5138 260.267 25.3313 254.981 30.4701C253.66 31.7916 252.192 32.9662 251.751 34.7281C255.128 32.8193 257.477 29.8828 261.295 27.9741C268.93 24.5972 281.703 22.3948 289.632 25.6249C290.953 26.2122 292.421 26.6527 292.862 27.9741C287.576 27.0932 282.878 25.7718 277.299 25.7718C267.314 25.7718 257.918 31.7916 252.632 40.0137C250.723 43.2439 248.08 46.474 247.934 50.2914C250.136 49.7041 253.513 41.482 255.128 38.986C262.616 28.7082 274.362 26.3591 286.108 28.7082C287.429 28.8551 290.806 29.5892 291.394 30.617L291.247 32.0852C290.366 32.6725 274.362 27.24 264.525 36.3431C262.616 38.105 260.707 40.1606 260.267 42.8034C262.176 42.2161 265.553 36.7836 268.783 34.8749L280.529 33.113L290.806 34.8749L293.009 37.3709L285.08 36.7836C279.795 36.9304 275.683 38.2518 271.572 41.6288C269.81 43.097 268.195 44.5653 268.342 46.9145C271.279 43.978 273.041 41.6288 277.299 40.3074C282.437 38.8391 286.842 39.7201 291.834 40.1606L295.652 39.7201L299.322 40.601C302.993 40.7479 306.957 38.2518 305.929 34.1408C304.902 30.3233 300.203 30.3233 299.91 35.1685L302.112 32.9662C304.608 35.1685 301.965 38.105 298.882 37.6645C291.834 36.7836 293.596 28.2678 297.854 25.0376C301.965 22.1011 311.949 25.6249 311.655 31.2043C311.509 33.4066 307.104 35.4622 306.517 40.3074C306.517 41.1883 306.957 42.6566 306.076 43.097C305.195 43.5375 297.267 41.6288 295.652 41.3351L288.604 42.2161C277.152 44.5653 270.251 48.6764 263.203 58.3668C261.295 61.1564 259.386 64.0929 259.092 67.4699L260.854 66.4421L262.616 62.1842C265.406 57.339 270.985 50.7319 276.271 48.5295C302.112 38.2518 309.747 50.5851 315.473 49.851C322.08 48.5295 321.052 38.105 315.473 41.9224L313.711 43.8312C313.711 46.0335 316.647 44.2716 317.528 43.8312V47.6486L312.683 47.5018C308.425 45.7399 307.544 38.986 309.894 35.609C313.271 30.7638 322.08 33.4066 324.87 37.5177C326.191 39.7201 326.191 42.2161 326.191 44.5653C326.044 47.3549 323.842 47.7954 321.933 49.4105L318.556 52.6406C316.207 53.962 287.87 34.8749 272.747 56.8985C274.656 56.8985 280.822 51.1724 283.465 49.851C292.275 45.7399 306.076 49.7041 314.005 54.1089C316.207 55.1366 318.116 55.8708 318.263 58.3668C315.473 57.9263 312.977 56.0176 310.187 54.9898C304.902 52.7874 299.909 52.0533 294.183 52.0533C291.687 52.0533 283.906 53.8152 283.906 56.8985C301.378 46.474 315.913 64.5334 325.31 64.8271C330.449 64.9739 336.616 56.3112 330.449 53.5216C327.072 51.7597 322.08 56.8985 325.31 59.2477C327.513 60.716 331.33 56.7517 326.778 56.8985C327.366 53.2279 331.183 54.5493 330.449 58.9541C328.981 66.8826 316.794 61.3033 321.933 51.9065C324.282 47.6486 330.449 48.0891 333.679 51.0256C336.028 53.2279 337.497 57.0454 337.497 59.9818L337.056 66.4421C331.477 66.4421 330.009 67.9104 326.338 71.7278C322.08 69.2318 318.703 66.0016 314.005 63.7993C301.231 57.7795 286.548 58.5136 275.977 68.4977C272.16 72.1683 268.489 76.4262 268.489 81.8587C270.251 80.5373 270.251 78.4817 271.279 76.573L277.299 69.085C289.485 59.2477 301.818 60.5691 315.032 67.1762C318.85 69.085 322.961 71.581 325.31 75.5452C322.52 74.6643 319.29 72.1683 316.794 70.7C309.747 66.8826 300.79 65.4144 293.156 67.4699C290.366 68.3508 287.576 69.3786 286.402 72.3151C290.66 70.4064 293.009 68.4977 298.148 68.4977C306.957 68.4977 311.949 70.8469 319.437 75.2516L323.255 77.454L326.044 80.3904L330.155 82.8865C327.659 86.1166 322.961 79.069 320.612 77.3071C314.445 72.7556 295.064 65.4144 289.632 73.6365C292.568 73.4897 294.917 72.1683 298.148 72.1683C306.223 72.1683 315.032 75.8389 321.199 81.1246C322.667 82.5928 323.989 83.3269 324.429 85.3825C321.64 85.2356 316.941 80.0968 313.124 78.7754L303.58 76.7198C301.231 76.2794 298.001 77.3071 296.092 78.4817C288.017 82.2992 285.668 84.2079 280.969 91.8428L282.878 91.2555L288.017 85.0888L294.037 81.7119C300.79 78.3349 306.223 78.4817 313.271 81.7119C316.647 83.1801 320.318 85.5293 321.346 89.3467C319.143 88.7594 317.969 86.8507 316.06 85.6761C308.425 81.4182 299.029 80.9777 293.449 88.6126C295.652 88.7594 295.798 87.5848 297.267 86.7039L299.763 85.6761L306.81 85.0888C311.362 85.0888 318.703 89.3467 319.584 94.0451L315.913 92.1364C313.564 90.815 310.334 89.7872 307.838 89.6404L304.608 89.7872C302.259 89.934 300.497 90.3745 299.322 92.5769C301.671 92.43 304.902 91.2555 307.251 91.5491C311.655 92.1364 316.207 94.9261 319.437 97.7157L320.905 100.652C322.374 102.855 326.632 104.763 329.274 104.763C338.818 104.763 338.378 91.4023 331.477 90.6682C330.449 90.5213 329.128 91.2554 328.54 92.1364C322.961 97.4221 331.77 101.533 332.651 94.6324C331.77 95.0729 328.981 97.1284 328.981 94.6324C328.981 90.5213 337.056 95.2197 334.707 99.9181C332.505 104.47 321.493 103.736 321.933 93.4578C322.52 79.8031 349.83 86.9975 341.167 105.791C339.258 109.902 336.028 111.517 331.624 111.517L325.163 111.664L321.493 113.573L321.933 107.112C321.933 101.974 317.088 99.0371 312.39 98.5967L305.342 99.9181C302.552 100.946 300.203 103.295 297.414 104.029C295.064 91.8428 273.775 90.9618 271.426 104.616C270.985 106.378 271.866 107.993 272.894 109.315C276.564 114.894 284.199 114.16 287.136 108.287C289.632 103.589 284.199 96.3943 279.941 101.827C276.711 105.644 282.731 109.755 283.318 102.855H282.878L281.85 103.882C279.648 102.12 282.731 101.093 284.346 102.855C289.191 108.14 279.941 113.132 275.537 109.462C273.775 108.14 273.628 106.525 273.628 104.616C273.628 92.2832 296.239 94.6324 295.652 107.847C295.211 117.831 287.136 118.271 280.088 121.208L275.83 123.997C273.628 124.878 270.251 119.886 268.342 118.712L264.084 116.95C255.569 115.188 254.541 124.585 247.053 115.188C245.291 112.985 244.263 110.343 244.557 107.7C246.465 93.8983 265.846 93.1642 267.314 104.47C268.342 112.545 254.1 117.537 253.513 108.728C253.073 102.12 259.68 101.974 261.001 105.938C258.505 105.938 259.092 108.287 260.561 108.287C265.846 108.287 261.588 98.7435 255.715 101.68C248.08 105.791 252.045 116.803 259.973 115.922C271.719 114.601 274.068 92.8705 256.743 94.1919C247.64 95.0729 246.759 100.652 243.382 101.68L241.033 96.8348C238.684 93.6046 234.573 91.5491 230.608 91.5491L222.533 93.311L223.561 82.5928C223.414 70.7 210.493 64.0929 212.843 48.2359L214.751 41.1883C216.954 37.9582 220.331 32.8193 223.12 30.0297L229.581 24.0099C225.763 23.4226 220.771 30.617 218.716 33.113C209.319 44.5653 207.41 53.8152 214.898 67.1762C219.009 74.2238 221.358 76.573 221.065 84.942C220.918 88.6126 218.862 92.1364 220.037 95.6602C216.22 99.7713 214.458 104.763 214.751 110.196C214.751 114.307 218.862 119.152 221.799 121.648L227.085 124.878C227.525 125.759 224.882 128.989 224.295 130.017L220.037 126.64C217.101 124.438 213.43 124.878 210.493 126.493L206.236 129.283L202.859 128.696L194.343 129.723V130.751L200.803 130.604L204.62 130.164L202.124 133.981C201.097 135.89 200.363 139.12 200.656 141.469L200.803 144.7C196.398 144.7 194.636 146.021 191.406 149.251C181.422 158.795 194.783 167.017 195.224 168.485C195.811 169.953 194.783 171.422 193.902 172.596C189.057 178.176 185.533 174.945 183.184 175.826C180.248 177.148 183.331 185.664 171.291 185.664L160.133 184.195C155.434 187.132 161.16 204.163 129.593 204.163L130.034 200.933C130.18 198.437 129.887 196.088 129.006 193.445C138.109 184.489 145.157 173.037 135.466 161.438C133.704 159.235 131.355 159.088 129.74 157.326C129.153 156.445 129.153 155.418 129.153 154.39V152.334C129.153 148.517 124.601 141.469 121.665 139.12C118.875 137.212 111.24 135.303 107.863 135.303C98.76 135.303 86.28 134.715 87.0141 122.235L88.4823 116.95L88.0418 116.509C85.2522 119.446 84.6649 122.97 85.6927 126.787C90.391 142.938 109.185 134.275 119.609 140.442C130.474 147.049 125.629 154.684 127.097 157.767C128.419 160.557 137.375 161.144 138.403 171.275C138.843 177.735 135.907 183.608 131.649 188.306C130.621 189.628 128.272 190.656 127.538 192.124C126.216 194.473 131.355 198.878 123.72 209.155L115.792 216.79L111.681 218.993L110.359 220.901C119.462 220.02 122.252 210.624 129.74 210.183C135.907 210.036 142.073 216.203 141.486 222.517L139.724 227.215C140.165 228.683 143.395 228.243 144.569 228.977C147.506 230.298 150.295 233.528 151.323 236.465C155.141 246.889 145.303 252.028 144.569 254.231V257.901C144.569 264.068 141.633 274.346 134.292 275.226C118.581 278.016 119.462 268.326 114.323 266.857ZM282.437 264.802C284.787 265.683 289.044 268.179 290.072 270.088L290.66 272.584L292.128 275.814C287.283 275.226 282.584 269.5 282.437 264.802ZM155.728 272.877C154.26 271.409 154.26 269.207 153.379 267.298C151.91 264.361 145.45 260.544 145.45 258.195C145.45 256.433 146.918 255.258 147.946 253.937L151.323 251.147C154.26 249.826 159.252 252.909 161.307 254.524C169.383 261.572 163.216 275.226 155.728 272.877ZM370.238 266.857C371.266 265.977 374.937 265.83 375.965 266.711L376.552 268.032L370.238 266.857ZM172.172 264.802L171.144 260.397L170.704 258.929C170.851 257.608 172.025 256.433 173.053 257.461C174.962 258.929 174.962 263.921 172.172 264.802ZM224.589 262.012V260.984C227.085 259.957 231.783 257.754 234.426 257.754L237.656 258.635L239.858 258.782C237.362 261.572 232.811 263.187 228.993 263.04L224.589 262.012ZM254.1 257.754L258.945 258.195V255.992L269.664 258.195L269.076 259.516C268.049 260.397 263.057 261.425 261.882 261.425C260.414 261.425 255.422 260.104 254.688 259.076L254.1 257.754ZM247.64 260.104C243.529 258.342 245.878 254.377 249.842 255.846C252.338 256.58 249.989 259.81 247.64 260.104ZM269.664 255.992V254.965L272.894 254.084L273.922 254.231L277.739 257.02L280.676 258.048L281.997 260.25C279.795 260.104 278.62 259.223 276.711 258.342L269.664 255.992ZM166.006 257.901C163.656 255.699 162.335 253.056 159.399 251.441C158.077 250.56 152.938 249.092 152.645 247.77L153.085 244.834L153.526 240.576C155.728 237.199 164.978 238.227 167.768 240.723C173.641 246.008 171.291 259.369 166.006 257.901ZM406.651 247.036C411.496 247.917 411.79 257.02 406.064 257.754L406.651 254.965C401.806 254.524 400.631 248.358 400.631 244.247C400.631 242.925 401.659 236.612 404.302 238.227C405.329 239.108 403.421 241.163 402.98 242.044L402.833 244.247C402.833 249.385 402.833 251.735 408.119 253.35L406.651 247.036ZM254.1 241.016C242.795 245.862 246.025 239.254 241.767 237.786L236.041 238.814C230.462 238.374 229.287 234.556 226.938 234.262L223.267 234.85L216.807 234.262C211.521 232.794 209.612 227.215 207.704 226.628L203.446 226.481L195.811 221.782C193.902 219.286 192.581 212.386 193.902 209.449L196.398 205.338C196.398 203.576 192.728 202.548 192.728 198.731C192.581 193.005 195.958 186.838 201.684 185.37L200.803 191.83C200.803 194.326 202.271 196.529 203.005 198.878C203.152 200.199 200.803 206.072 200.656 209.155C200.656 213.267 201.537 215.763 204.474 218.699C213.43 227.802 222.827 219.727 224.735 220.608L228.553 225.013C230.755 226.921 233.398 226.774 234.719 227.802C238.537 231.473 239.418 234.997 245.584 234.556C248.374 234.409 249.255 232.354 250.87 232.207L260.414 234.703C264.084 236.465 264.672 247.77 279.207 246.155C284.052 245.715 288.604 244.393 292.275 240.87L295.505 237.052L301.231 236.171C304.021 235.584 306.076 233.382 308.719 232.794C309.306 234.997 309.159 236.171 308.572 238.374C306.076 245.862 297.267 243.219 295.211 245.421L294.33 248.358C293.009 252.469 290.513 254.818 286.402 255.552C283.612 256.139 279.648 255.112 277.299 253.496L274.803 250.854C273.775 250.413 269.957 252.175 268.342 252.322C261.441 253.643 254.247 247.77 254.1 241.016ZM19.328 233.675V230.885C14.1892 231.766 18.7407 236.171 21.824 235.584C30.3398 233.822 22.705 220.167 13.7487 223.397C4.2051 227.215 11.2527 242.631 19.7685 242.778C40.4707 242.925 37.0938 215.763 18.7407 212.679L15.8042 203.576C13.6019 193.739 12.4273 183.755 12.4273 173.771C13.455 174.652 14.1892 175.533 14.336 177.001V180.231L14.4828 184.048C14.4828 191.096 19.328 209.596 25.7883 213.413C24.9073 210.183 22.4113 207.247 21.0899 204.31C19.328 200.64 16.6852 188.894 16.6852 185.076C18.7407 185.664 21.3836 193.445 22.8518 195.794L30.3398 206.513C32.5422 209.302 36.066 212.239 37.5342 215.616C44.1413 229.858 41.2049 252.028 21.9709 253.643C2.44321 254.965 -4.45754 220.02 12.7209 215.763C29.7526 211.211 38.2684 233.822 24.6137 240.429C14.7765 245.127 6.26064 228.096 15.5106 225.306C21.6772 223.397 26.9629 233.675 19.328 233.675ZM249.402 219.727L254.1 221.195C256.009 221.195 258.211 219.433 259.386 219.874L264.965 223.691C270.251 225.893 278.033 222.37 277.739 215.763C277.592 213.267 276.271 211.652 275.537 209.302L278.767 209.449C286.255 211.798 280.969 221.782 282.144 226.921C283.025 229.858 286.842 232.06 288.898 228.977L285.227 228.536C282.437 226.774 284.787 220.608 285.227 218.259L285.668 214.441C290.072 215.763 289.338 220.167 290.513 223.544L293.009 226.774C294.33 228.096 294.771 228.536 296.679 228.243L293.009 224.572C291.687 221.782 291.981 218.552 290.513 216.056C288.751 213.12 286.842 213.12 284.493 211.798L281.116 208.568C278.18 206.366 274.068 207.54 270.398 207.54C270.398 198.144 264.231 190.656 254.394 192.564C251.898 193.152 248.374 195.794 246.319 195.354C242.501 194.767 240.299 192.858 236.775 191.537L227.231 190.215C216.073 190.068 218.128 199.318 210.64 201.961L212.549 203.283C216.22 203.429 219.303 193.445 224.001 192.124L227.672 192.271C227.231 194.179 225.91 195.06 224.882 196.529C222.973 199.318 221.652 204.457 218.716 205.925L214.898 206.806C216.366 207.834 217.101 208.128 218.716 207.834C226.35 206.513 224.001 191.83 235.307 193.298V194.326C228.112 196.382 229.14 208.862 240.592 208.862C244.997 208.862 243.823 209.743 244.997 213.12L246.465 216.35C247.053 219.58 242.354 222.37 239.858 223.104C228.406 226.481 227.085 217.524 224.882 216.937L215.779 219.433C206.236 219.874 201.537 212.973 203.152 203.87L205.355 197.41L203.886 194.179C202.565 190.802 202.565 186.251 205.208 183.461C211.374 176.854 219.009 179.35 226.497 179.203C230.608 179.203 230.608 177.735 233.545 175.973C233.692 179.203 235.013 180.672 237.362 183.021C242.208 187.866 249.549 188.16 253.953 182.433L256.449 177.148L261.295 180.525L264.525 181.846C265.846 181.993 266.874 181.846 268.195 182.727C269.517 183.755 269.517 184.489 270.104 185.664L272.013 187.425L272.453 186.398L275.683 188.16C277.152 188.747 278.62 188.16 279.795 189.628C281.997 192.124 275.977 199.025 284.493 204.604C286.842 206.072 288.31 206.953 291.247 206.806C294.477 206.659 301.084 203.429 301.231 199.759L299.763 195.501C302.993 195.648 303.874 196.529 305.783 198.731C304.755 200.052 302.846 200.933 302.406 202.548C300.644 207.247 306.663 212.386 308.425 216.35L309.306 222.37C310.187 227.949 303.58 233.822 298.441 234.116C296.973 234.116 294.771 233.675 293.596 234.556C291.834 235.584 291.1 237.933 289.779 239.401C286.548 243.072 280.969 243.806 276.564 243.659C264.378 243.512 265.699 233.235 261.588 231.766L256.009 231.179C250.87 230.445 247.64 225.159 249.402 219.727ZM332.798 225.453L331.036 228.243C330.009 229.711 329.274 232.941 330.009 234.703C331.477 239.108 337.643 238.814 338.524 234.262C339.112 231.032 335.147 227.802 334.413 232.501L335.441 231.913H335.882C338.231 237.639 330.743 236.171 331.183 230.885C331.624 226.04 341.901 226.334 343.81 231.473C347.187 241.31 331.624 247.477 323.989 240.87C321.199 238.52 316.354 230.885 319.29 227.509C319.878 226.628 322.52 226.628 323.695 226.04C328.687 223.838 327.659 222.957 332.798 225.453ZM175.402 243.219L171.291 240.429C167.327 235.731 175.402 236.024 175.402 243.219ZM167.474 238.52C164.097 237.199 161.454 236.318 157.93 236.758C156.462 236.905 155.141 238.08 153.672 237.786C152.351 237.639 148.093 232.06 147.506 230.739C146.478 228.243 152.791 226.481 154.7 225.6C162.922 222.516 170.851 230.005 167.474 238.52ZM237.656 227.215C240.446 225.893 242.501 225.747 245.144 223.397C246.465 224.425 246.612 225.747 247.346 227.215L249.108 230.445C248.961 232.941 240.005 232.941 237.656 227.215ZM102.577 230.885C101.99 229.858 102.577 229.124 103.605 228.683L102.577 230.885ZM347.921 210.183H344.691C345.278 205.485 353.794 208.715 350.27 213.854C346.6 219.14 334.854 216.79 337.497 208.128C339.846 200.199 354.969 195.794 355.85 211.358C356.29 218.846 347.921 225.159 340.874 225.6L335.588 223.838C334.266 223.691 331.33 222.81 330.743 221.636C329.715 219.874 335.441 216.497 336.762 216.497L342.048 218.846C347.334 220.167 353.207 216.35 352.766 210.477C352.326 201.374 341.461 206.072 343.223 210.477C344.104 214.001 347.04 212.973 347.921 210.183ZM324.87 222.37C323.548 226.04 315.326 224.278 313.417 221.929L305.048 205.779C304.608 201.521 307.838 203.283 309.894 203.429C311.949 203.576 312.83 202.842 315.032 204.457C317.528 206.366 319.143 214.294 314.005 211.505C312.683 210.917 312.243 211.651 312.536 212.826C313.711 216.497 320.759 221.636 324.87 222.37ZM261.735 216.937H265.993C266.14 223.544 272.453 216.35 264.231 215.028C259.092 214.148 256.303 219.727 252.926 218.846C245.291 216.644 248.668 207.394 243.382 203.283C240.446 200.786 235.454 201.08 235.454 205.632C237.803 205.044 238.684 202.255 241.914 204.31L243.235 206.219C243.235 207.54 239.565 207.687 238.684 207.54C235.307 207.1 232.517 203.87 233.545 200.346C234.866 195.794 240.739 195.06 244.41 197.116C245.438 197.703 246.319 199.906 247.64 199.906C249.989 199.906 249.549 195.06 256.156 195.06L261.735 195.501C266.58 196.969 269.223 204.017 267.021 208.568C268.93 209.155 271.719 209.596 273.187 210.917C274.509 211.945 274.949 213.267 274.949 215.028C275.096 223.985 263.203 224.866 261.735 216.937ZM321.052 190.802H322.08C323.108 193.592 324.282 195.941 323.401 198.878L322.08 202.548C325.31 202.108 324.429 200.346 326.191 198.437C327.219 196.969 331.477 194.767 333.385 194.62C332.945 197.997 331.624 202.108 329.128 204.604C327.366 206.366 325.457 206.806 324.87 209.155L330.155 208.715L334.413 207.394C333.385 211.064 328.834 210.624 327.806 212.679C326.778 214.882 329.715 215.469 331.036 215.469H333.385C332.358 216.937 326.191 219.58 324.282 219.58L320.024 217.671C319.437 217.231 317.822 216.35 317.675 215.322C317.528 214.001 320.612 211.064 319.143 206.806C318.116 203.576 314.739 202.548 315.326 198.878C315.913 194.767 319.143 194.179 321.052 190.802ZM9.49078 162.025C13.1614 163.053 10.0781 176.12 10.0781 179.497L11.1058 187.572C11.6931 194.326 13.0146 201.227 14.7765 207.981L16.5384 212.679L11.84 213.12C6.55429 211.358 6.99476 178.763 7.58206 173.037L9.49078 162.025ZM333.385 212.679C333.826 211.651 333.826 211.358 334.854 211.211C334.707 212.239 334.413 212.239 333.385 212.679ZM331.183 205.632L334.12 199.906L335.001 196.088C335.147 193.298 335.882 192.271 334.854 189.334L332.358 192.271L330.155 193.739C327.219 195.207 325.897 195.648 324.87 192.417L323.842 189.187C323.695 186.985 323.989 186.251 322.08 184.929C321.493 189.041 316.941 191.977 314.886 195.648L312.683 200.346C312.096 200.933 310.775 200.933 309.747 200.933L307.544 197.116C300.497 189.921 289.632 198.584 283.172 190.656C280.382 187.279 282.291 186.545 281.703 183.902C281.263 181.552 278.326 180.525 279.207 178.322C280.529 175.386 287.283 174.211 288.31 177.882C281.85 178.763 289.338 185.076 291.687 181.112L292.128 177.882C293.89 177.882 295.945 177.441 297.267 178.91C298.294 179.937 298.735 183.461 296.386 183.021L293.596 181.699C293.743 183.021 294.183 183.902 295.358 184.636C299.469 188.013 299.469 181.699 303.286 182.14L305.489 183.021C308.719 185.517 303.58 190.068 303.286 183.902C298.735 185.223 303.286 190.068 306.517 188.747C307.838 188.6 308.425 187.425 308.866 186.398C310.628 181.112 303.286 181.259 300.79 179.644L298.001 177.148C295.211 175.239 292.862 176.56 290.072 175.68C287.723 175.092 285.961 173.771 283.465 173.771L278.767 174.652C277.005 174.505 275.977 172.89 274.509 172.303L268.489 172.156C268.489 169.807 268.783 167.898 266.727 165.695C264.378 162.906 262.616 163.787 259.68 162.759L254.981 159.969L249.255 158.501C247.346 157.914 246.025 156.299 243.969 156.152C241.473 156.005 240.739 156.739 238.684 157.18V151.894C238.684 147.342 244.263 146.608 246.612 142.791C250.43 136.771 244.85 130.604 250.43 125.906C258.505 119.152 273.041 120.767 272.453 133.835C272.013 141.469 261.148 144.993 255.862 139.561C252.045 135.45 254.1 125.906 260.707 128.108C263.497 129.136 265.553 133.247 261.148 133.835L261.735 131.632C258.505 131.485 258.358 135.303 261.148 136.184C268.783 138.533 266.287 119.593 255.862 127.081C249.696 131.632 251.017 137.946 256.303 142.204L261.882 145.874L262.469 149.985C263.35 154.39 266.58 162.612 271.426 163.787C271.279 161.438 269.664 160.116 268.93 158.061C267.608 153.803 267.168 147.636 269.076 143.525C270.398 141.176 272.894 139.708 273.922 137.065C274.949 134.275 274.068 130.898 275.83 128.549C277.299 126.346 279.648 125.319 281.997 124.438C290.806 121.648 298.001 126.2 298.001 135.89C298.001 145.287 280.529 149.104 278.767 139.12C278.62 137.065 279.207 134.862 280.529 133.1C286.255 126.053 294.33 134.862 289.485 136.918C287.283 137.946 288.898 134.128 289.044 133.688C282.584 134.715 286.695 141.176 290.072 138.827C296.533 134.569 289.485 126.64 285.227 127.521C274.509 129.577 273.922 146.315 285.814 146.902C290.513 147.049 291.981 145.14 295.798 143.672H297.267L299.616 145.58C301.818 147.049 305.636 147.93 308.132 147.93L307.104 152.188C306.957 156.005 309.453 159.822 306.517 162.906C304.021 165.695 300.35 165.842 296.973 166.576C296.386 166.576 294.037 166.723 294.037 168.045C294.037 168.926 295.358 169.807 295.945 170.247C301.084 173.624 311.068 169.366 315.326 165.695C320.612 167.604 320.171 166.136 325.31 165.695C325.751 178.322 335.147 176.414 336.175 178.322V181.993C336.028 186.251 339.405 191.39 344.104 191.39C349.243 191.537 354.822 186.104 353.06 180.965L351.151 177.588C354.822 178.616 356.437 183.314 356.437 186.691C356.437 191.39 354.235 196.675 349.389 198.144L342.635 200.346L337.35 203.136C334.854 204.163 334.266 205.485 331.183 205.632ZM288.31 205.044C286.108 203.576 287.87 200.933 289.779 201.374C291.54 201.667 291.54 205.191 288.31 205.044ZM293.743 204.163L293.302 201.374C292.275 199.465 288.898 198.584 286.842 199.612L283.465 201.961L282.437 199.171C279.941 191.683 286.695 195.941 290.072 195.941H294.771C301.378 196.235 299.175 203.576 293.743 204.163ZM271.719 191.39C268.783 192.417 268.489 189.041 265.993 188.16L261.735 187.572L262.322 186.251C264.231 184.929 268.489 186.838 269.957 188.306L271.719 191.39ZM349.977 176.854C347.774 176.707 345.866 176.707 343.957 177.441C341.461 178.763 339.258 183.021 341.754 185.37C343.663 187.132 347.481 183.608 344.544 181.699C343.957 183.461 342.342 183.168 342.635 181.552C343.076 178.763 348.362 178.176 350.123 180.231L351.004 182.727C351.004 189.921 341.167 190.215 338.231 184.636C334.413 178.029 345.131 170.1 349.977 176.854ZM420.599 167.751C420.599 171.128 418.69 173.477 416.341 175.826C411.496 180.672 404.889 184.195 398.282 185.81L392.996 186.691C390.5 187.132 389.179 188.16 386.389 188.16C389.326 183.608 402.54 182.433 407.972 179.35L415.607 173.33C417.222 171.715 418.69 169.219 420.599 167.751ZM276.711 187.132C278.62 184.195 275.83 183.021 273.922 186.104H272.894C271.132 181.993 269.517 182.287 266.14 180.965L263.35 179.644C262.469 179.497 261.588 179.203 261.148 178.322V175.826C266.434 175.239 265.259 178.029 269.223 178.322L269.37 175.826C270.691 172.449 277.299 173.037 276.124 178.029L274.362 180.818C276.271 182.874 277.152 181.259 278.473 182.58C279.501 183.608 279.354 185.957 278.033 186.838L276.711 187.132ZM242.354 184.636C240.005 183.608 240.446 180.525 242.942 180.818C245.144 181.112 244.85 184.342 242.354 184.636ZM246.612 185.076L247.053 182.287C246.612 180.378 243.382 178.176 241.327 178.91L238.831 180.231L237.362 180.084C235.013 177.735 237.215 170.1 241.033 170.981C243.529 171.568 243.969 178.616 253.807 178.616C253.219 181.993 250.136 184.636 246.612 185.076ZM421.627 151.16C421.48 159.676 417.81 168.191 410.321 172.743L401.365 176.56C399.016 177.588 397.107 179.497 394.905 180.231C394.905 174.945 405.77 172.596 409.881 169.513C412.818 167.164 415.607 163.787 417.81 160.41C419.131 158.061 420.012 152.922 420.306 152.041L421.627 151.16ZM209.319 167.751L214.605 169.66C216.954 170.247 220.184 170.687 222.533 170.247L226.35 169.366C225.323 167.604 224.148 167.898 222.533 167.164C223.12 165.402 224.001 163.493 225.763 163.053C228.553 162.172 230.902 164.08 233.398 164.521C235.16 164.961 235.747 164.08 238.096 165.108C239.418 165.695 239.858 166.136 240.299 167.457L236.041 170.247C234.132 172.449 233.104 175.826 230.021 177.001C227.672 178.322 225.763 177.001 223.267 176.56L219.009 176.414C214.017 176.12 209.319 173.037 209.319 167.751ZM238.096 160.263C238.684 161.144 241.767 164.374 242.354 161.731C242.501 160.85 241.327 159.822 241.767 158.795C242.648 157.326 246.612 158.354 247.346 159.822C247.934 160.85 246.759 162.318 246.906 164.08C247.493 167.311 251.751 168.191 252.632 165.989C253.513 164.521 250.723 162.759 251.311 161.438C251.898 160.41 253.807 160.85 254.688 161.291C259.973 164.08 251.017 166.136 256.89 170.247L259.68 171.128C263.057 170.687 260.707 166.87 260.12 165.108C263.497 165.108 266.14 165.695 266.14 169.807L265.259 173.037L254.1 176.267C244.263 176.414 246.612 171.422 241.327 165.549L236.481 162.172C235.894 161.144 237.362 160.557 238.096 160.263ZM361.723 176.267C362.31 174.358 368.477 172.009 370.826 167.311C372.588 163.493 372.294 157.326 369.504 153.949L366.568 151.6L363.191 149.692C359.961 148.664 357.465 149.545 354.235 149.692L354.675 143.672C353.647 138.092 347.921 134.715 342.489 135.156L339.258 135.743L340.58 131.926C342.048 128.696 342.048 125.759 341.02 122.382L338.231 117.097C342.929 117.097 348.508 117.243 352.473 120.327L357.758 125.025C355.996 118.565 345.866 114.747 339.699 114.601L335.882 115.481C339.993 109.021 349.389 112.545 354.235 115.628C356.143 117.097 358.346 119.739 360.695 120.327C356.143 114.601 349.389 110.343 341.901 110.049C342.929 106.672 349.83 108.287 352.179 109.902C356.29 112.251 362.604 116.069 365.54 119.886C367.742 122.676 369.357 128.843 372 130.604C371.853 125.025 367.889 118.271 363.925 114.601L358.639 110.93C355.85 109.021 353.354 107.113 350.123 106.085C347.774 105.497 345.866 105.938 343.663 105.938C347.04 95.5134 378.461 105.791 378.461 133.247L379.488 128.989C379.488 125.319 379.488 122.382 378.167 118.712C373.322 106.819 357.758 96.5411 344.691 100.652C344.25 99.6245 343.663 98.1562 344.544 96.9816C346.012 94.9261 355.703 95.9538 357.905 96.5411L364.365 98.7435L368.917 100.652L367.596 99.3308L354.822 93.7515L349.536 93.1642L343.076 94.1919C343.223 91.4023 344.985 90.815 347.334 89.934C354.381 87.438 364.806 89.934 370.973 94.0451L377.433 98.8903L377.873 98.4499C371.413 91.9896 362.75 86.1166 353.354 86.1166C350.564 86.1166 347.627 86.9975 345.278 88.4658L341.02 90.9618C341.461 89.1999 342.489 88.4658 343.516 87.1444L345.425 84.2079C350.123 79.95 362.75 82.0055 367.889 85.0888C371.56 87.2912 373.909 92.2832 375.377 93.4578L377.58 93.6046C377.58 98.8903 380.369 104.47 381.984 109.168C388.591 128.549 396.079 143.231 383.306 162.759C377.139 171.128 372 174.799 361.723 176.267ZM335.882 165.108H336.909V166.576C340.139 165.695 339.258 162.465 336.909 162.318C333.679 161.878 332.064 168.045 333.973 170.247C337.203 173.477 342.342 171.715 343.516 167.751C344.397 165.402 344.104 162.172 343.516 159.822L350.27 156.592L351.739 160.85C354.528 165.402 362.016 167.017 363.191 160.263C364.219 154.684 356.437 153.215 358.346 159.822L359.373 157.767C363.631 159.088 361.135 164.521 355.556 161.878C351.298 159.969 351.885 151.16 359.373 151.16C371.707 151.6 372.588 166.136 363.044 172.449C353.207 178.91 348.362 171.128 343.37 172.303L336.762 175.092C333.973 175.973 329.128 174.064 327.806 170.981C322.667 158.648 342.342 152.481 342.048 165.255C342.342 168.779 335.882 172.449 335.882 165.108ZM297.56 169.366C299.029 167.898 301.378 167.898 303.286 167.164L307.104 165.108L309.453 162.759C310.481 162.172 311.949 163.199 312.683 164.227C313.564 165.695 310.334 166.723 309.306 167.164C306.223 168.779 300.497 170.247 297.56 169.366ZM143.835 168.779C142.514 166.87 146.038 159.676 146.038 156.592C146.478 132.66 121.518 125.466 132.236 96.3943C133.117 94.1919 135.172 89.7872 137.522 88.9063C136.494 92.2832 134.292 97.4221 134.292 100.799C133.851 122.823 157.049 131.926 149.414 157.473C148.24 161.584 146.772 165.842 143.835 168.779ZM257.184 168.779V166.723C258.652 167.164 258.652 167.604 258.945 168.779H257.184ZM215.045 164.521V159.235C215.485 156.446 218.716 152.188 221.505 151.747C221.505 154.977 219.743 158.207 223.267 160.263C223.267 153.656 223.267 154.537 227.966 149.545C229.874 151.453 228.846 153.656 228.112 156.005L227.525 160.263C221.065 161.584 222.386 167.751 219.45 168.338C217.541 168.485 212.989 167.457 211.521 166.43C210.053 165.402 207.116 159.969 209.025 158.501C210.787 157.18 212.696 161.878 213.283 163.053L215.045 164.521ZM207.557 153.803L206.529 160.85L207.116 165.549C206.089 167.898 200.509 167.751 198.307 167.751C189.791 167.751 185.093 158.795 191.553 152.188C193.315 150.426 194.783 149.251 197.279 148.957C202.859 148.957 207.263 156.592 201.537 159.676C199.775 160.557 195.371 159.822 196.692 157.18C197.72 155.418 199.628 157.033 200.363 156.299C201.39 155.418 198.601 152.628 196.545 154.537C192.728 158.207 196.105 163.64 200.656 162.025C206.529 160.116 205.061 154.684 207.557 153.803ZM411.349 111.664L411.937 120.62C411.937 124.878 413.845 128.549 414.873 132.513C417.369 141.616 417.222 151.747 411.202 159.822C409.441 162.025 407.532 165.402 404.742 166.283C404.889 162.612 411.496 156.446 413.111 151.16L414.433 140.001C413.552 130.164 408.413 125.906 410.175 115.335C410.615 113.72 410.175 112.692 411.349 111.664ZM176.43 65.5612C176.283 68.3508 174.081 69.2318 173.053 71.2873C171.585 74.2238 169.676 83.6206 169.676 86.8507C169.676 93.0173 172.172 99.6245 173.787 105.644C178.192 123.41 178.192 141.469 163.803 154.537C161.601 156.446 152.498 164.521 150.295 165.255C152.204 153.949 166.887 146.755 166.887 128.843V122.823C166.887 105.351 153.085 87.5848 167.327 71.581C169.823 68.6445 172.613 66.2953 176.43 65.5612ZM248.668 164.08H250.43V165.108H248.668V164.08ZM319.878 153.803C320.759 150.573 317.528 148.957 315.179 150.866C310.921 154.243 315.767 162.612 322.667 157.473C328.834 152.628 324.136 146.168 324.576 144.846L335.441 139.267L335.294 143.525C336.322 147.783 341.461 152.334 344.838 147.342C347.774 143.084 343.81 139.708 342.048 142.497C341.02 144.406 343.076 143.965 343.957 143.525C343.957 149.985 336.469 146.902 337.79 141.469C339.552 133.835 351.004 138.092 352.326 144.259C352.913 146.608 352.179 148.957 351.298 151.013C350.27 154.39 345.572 157.62 341.901 156.739C338.084 156.152 338.084 154.243 333.385 156.152C325.897 159.088 322.961 169.366 313.124 161.438C310.187 159.088 308.866 157.18 308.866 153.069C308.866 144.553 325.457 141.763 323.548 152.628L322.52 154.83C316.794 160.85 312.243 148.811 319.878 153.803ZM229.581 160.263C230.902 156.445 230.168 153.803 233.398 150.719L236.628 148.957C236.628 151.307 236.775 155.711 236.188 157.767L233.839 162.025L229.581 160.263ZM208.585 154.537H214.605L213.577 158.207C211.228 157.914 209.906 156.446 208.585 154.537ZM406.064 155.565C404.595 153.215 408.853 141.323 408.853 137.212C408.413 131.926 405.476 127.815 403.127 123.41C398.282 114.013 392.703 104.616 394.758 94.0451C395.199 92.1364 394.905 90.3745 397.107 89.7872C397.107 94.0451 395.345 98.8903 396.52 103.295C401.806 123.557 418.25 131.485 406.064 155.565ZM159.399 154.537C160.279 151.6 163.069 148.517 164.537 145.727C167.327 141.029 169.089 135.89 169.089 130.311C169.236 125.906 169.529 121.208 168.502 116.95C166.593 109.021 163.363 99.9181 163.363 91.8428C163.216 86.2634 163.803 74.3706 170.117 72.4619C169.529 77.1603 167.621 81.565 167.621 86.5571C167.474 92.7237 169.97 96.8348 170.998 102.561C174.228 116.803 177.164 135.009 167.18 147.489C165.271 149.545 161.895 153.656 159.399 154.537ZM214.605 141.029C220.331 137.358 213.283 132.073 209.466 137.799C205.061 144.406 217.394 150.573 223.12 141.029L228.406 143.525C228.406 145.434 225.47 150.719 223.267 149.545C222.386 149.104 222.386 146.608 220.918 147.196C220.037 147.636 219.45 149.692 217.101 151.013C209.466 154.83 200.95 149.692 201.097 141.029C201.243 132.219 217.247 124.585 220.918 133.981L221.799 139.267C220.918 142.938 215.192 144.846 212.402 142.938C209.025 140.442 210.64 136.918 213.283 138.092C214.605 138.533 214.605 140.001 214.605 141.029ZM389.472 72.4619C389.032 78.0413 384.627 78.6286 384.774 89.0531C384.921 105.204 397.107 118.271 402.246 132.954C403.127 135.89 404.448 151.747 399.31 149.985C401.072 145.727 402.246 141.029 401.218 136.184C400.191 131.632 397.841 127.815 395.639 123.85C388.885 111.077 382.425 99.3308 382.572 84.3547C382.572 80.6841 385.802 73.4897 389.472 72.4619ZM147.653 149.985C145.891 138.973 128.272 117.978 132.089 108.434C133.557 109.755 135.907 116.803 136.934 119.152C141.633 128.108 146.478 133.247 148.24 143.672C148.68 146.021 149.121 148.077 147.653 149.985ZM230.608 148.957L231.489 145.14C232.811 143.378 238.243 144.7 240.446 138.973C241.033 137.065 240.886 135.303 239.858 133.688C235.6 126.64 226.644 133.247 229.874 137.358C231.783 139.561 236.481 138.68 234.573 134.128C233.251 135.45 233.104 135.596 231.343 135.89C231.783 131.779 236.481 131.632 238.39 134.862C241.767 140.882 231.783 144.406 226.938 140.588C219.89 134.569 231.196 121.795 240.299 125.906C247.787 128.843 248.668 143.819 239.858 146.021C239.711 145.58 239.418 144.7 238.537 144.7C236.922 144.259 233.104 148.517 230.608 148.957ZM264.231 147.93C264.231 146.461 264.084 145.434 265.993 144.7L265.406 147.93H264.231ZM300.79 133.541C300.937 136.331 301.378 137.799 304.021 139.561C311.068 143.965 315.767 133.1 310.481 131.632C308.279 131.192 305.342 133.981 309.453 136.771V133.981C312.243 135.009 310.04 138.092 307.691 138.239C300.203 139.12 300.644 125.025 309.894 126.053C321.786 127.374 319.29 143.525 308.425 145.727C305.489 146.168 299.91 143.965 299.029 141.029C298.588 139.561 299.469 138.533 299.616 137.212C299.91 135.743 299.175 134.715 300.79 133.541ZM299.029 131.485C298.441 126.934 295.211 122.97 291.1 121.208L298.588 107.406C302.993 103.148 316.647 100.212 318.703 108.434C321.493 119.739 306.076 124.585 305.489 116.362C305.342 112.545 309.159 110.343 311.068 113.426C311.655 114.454 310.187 115.335 310.921 116.362C311.068 116.95 311.949 116.95 312.683 116.509C317.382 114.013 310.334 107.553 305.929 111.664C301.818 115.041 304.167 122.823 309.6 122.97C313.271 123.116 315.179 121.061 318.116 119.593C317.969 121.501 317.235 123.263 317.969 124.878C319.437 129.577 328.247 133.688 331.183 128.108C333.679 123.263 327.072 117.243 326.338 123.85C328.247 123.704 330.743 123.704 330.009 126.64C328.687 130.311 322.814 127.668 321.052 125.612C316.207 118.858 325.457 114.16 332.211 116.656C348.655 123.116 337.35 143.084 321.493 142.204C320.612 142.057 319.29 142.057 319.143 140.882L320.171 136.184C321.64 126.934 312.977 121.501 304.755 125.466C301.231 127.227 301.378 129.723 299.029 131.485ZM203.74 125.906C200.95 126.934 191.113 127.227 189.938 123.704L196.986 125.466L202.271 124.585C203.299 124.731 203.446 125.025 203.74 125.906ZM233.839 109.462C233.692 104.323 230.462 107.553 231.343 109.609C232.811 112.985 237.803 110.196 237.803 107.259C237.803 105.938 236.922 104.47 236.041 103.589C230.021 98.303 221.799 107.406 226.497 114.601C227.819 116.803 229.287 118.271 231.783 118.712C237.069 119.593 239.418 115.041 243.088 114.601C243.529 119.299 250.136 121.208 248.374 124.585C245.878 129.283 242.648 123.263 239.271 122.676C230.902 121.208 226.204 129.136 219.156 118.271C216.66 114.601 216.66 112.985 216.807 108.728C217.247 99.6245 221.212 95.6602 230.608 95.9538C239.124 96.1007 246.612 111.517 235.894 115.775C234.132 116.362 232.223 116.362 230.608 115.335L228.112 112.545L226.791 109.755C226.057 99.9181 240.592 106.378 233.839 109.462ZM200.509 122.235C196.398 122.823 194.49 123.116 190.525 121.648C188.617 121.061 187.295 120.767 186.708 118.418L190.525 119.886L195.224 120.914L199.482 120.767L200.509 122.235ZM199.041 117.978C197.132 118.565 192.875 118.858 190.966 118.124C187.148 117.097 183.771 114.013 183.478 109.755C185.24 110.343 185.827 112.545 187.295 113.866C189.057 115.188 191.406 116.216 193.462 116.362H198.013L199.041 117.978ZM183.037 100.359C184.799 100.946 184.506 102.12 185.533 103.589L187.736 105.791L193.755 109.021C194.783 109.462 198.16 109.462 198.601 110.343C199.482 111.811 196.105 111.811 195.224 111.811C189.644 111.224 183.037 106.085 183.037 100.359ZM198.454 104.176C195.077 108.287 183.037 99.9181 185.24 94.3388L187.442 97.5689C189.791 100.799 194.343 103.295 198.454 104.176ZM199.482 98.5967C194.343 98.5967 190.378 96.2475 188.029 91.8428C187.002 90.0809 185.093 86.2634 187.882 85.3825C188.029 89.6404 191.113 93.7515 194.93 95.6602L199.041 97.5689L199.482 98.5967ZM201.537 93.311C199.775 92.8705 196.692 90.0809 195.371 88.6126C193.902 87.1444 189.204 79.8031 190.232 77.8944L191.553 77.3071L193.902 83.3269L199.188 89.0531L201.39 91.4023L201.537 93.311ZM205.355 90.0809C202.859 89.934 202.859 87.2912 201.537 85.3825C197.426 78.7754 192.581 71.581 193.609 63.3588C194.049 61.5969 194.049 60.5691 195.811 60.1287C195.811 64.2398 195.811 67.7635 197.132 71.8746C198.454 75.5452 200.803 78.9222 202.859 82.1523L205.208 85.8229L205.355 90.0809ZM332.798 85.3825C334.266 83.4738 336.175 84.0611 337.643 81.565C340.433 76.8667 337.056 69.8191 332.798 72.7556C331.33 73.7833 331.33 74.9579 331.33 76.8667L336.616 77.3071C336.616 82.1523 332.945 84.942 329.128 81.1246C322.961 74.5175 331.917 66.5889 338.671 70.8469C346.306 75.5452 343.37 87.7317 339.258 88.319L332.798 85.3825ZM214.017 83.7674C212.255 82.446 212.549 79.2159 211.521 77.3071L206.676 69.2318C202.565 61.3033 201.978 49.851 207.557 42.5097C209.025 40.601 211.374 37.6645 213.724 37.2241C213.283 40.8947 208.144 44.8589 206.97 49.9978L206.823 57.0454C206.823 60.4223 207.851 64.9739 209.172 68.204L211.962 72.4619C213.577 75.3984 215.192 80.5373 214.017 83.7674ZM348.949 49.9978L347.627 50.4383L343.957 50.8787L337.497 52.6406C336.616 52.4938 335.735 51.6129 335.735 50.7319C335.882 47.2081 347.04 49.851 348.949 49.9978ZM330.155 48.5295C332.651 44.7121 341.608 43.978 344.691 47.9422L338.231 47.5018C334.854 48.0891 333.532 49.851 330.155 48.5295Z" fill="#FFBC85"/>
</svg>
