<svg width="60" height="60" viewBox="0 0 60 60" fill="none" xmlns="http://www.w3.org/2000/svg">
<path fill-rule="evenodd" clip-rule="evenodd" d="M7.25749 45.9978C8.32959 50.3807 12.3256 53.4001 16.8089 53.4001H43.1241C46.5353 53.4001 49.3617 51.8417 51.311 49.1146C52.4806 47.4588 52.8704 45.7056 53.0653 44.5368C53.6501 41.1279 53.4552 37.7189 52.578 34.5048C50.6287 27.7843 47.7048 23.6935 42.2469 20.6742C42.1879 20.6447 42.1199 20.6152 42.0457 20.583C41.8749 20.5089 41.671 20.4204 41.4672 20.2846C42.1494 19.408 42.6367 18.434 43.0266 17.5574C43.319 16.9731 43.4164 16.5835 43.5139 16.1939L43.5139 16.1939L43.7088 15.8043V15.6095C44.0012 13.9537 44.0987 11.5187 41.7596 9.57075C39.8103 7.91498 37.5686 7.52538 35.1321 8.20717C32.1107 6.06441 27.9198 6.06441 24.8984 8.20717C23.7288 7.91498 22.5593 7.91498 21.3897 8.10977C17.9785 8.79156 15.8343 11.6161 16.2241 14.8303C16.5165 16.8756 17.2962 18.7262 18.4658 20.2846C11.7408 24.1805 7.16002 31.1932 6.67271 38.8877C6.47778 41.4201 6.67271 43.7576 7.25749 45.9978ZM29.9996 25.7426C27.9427 25.7426 25.9319 26.3525 24.2217 27.4953C22.5114 28.6381 21.1784 30.2623 20.3913 32.1627C19.6041 34.063 19.3982 36.1541 19.7994 38.1715C20.2007 40.1889 21.1912 42.042 22.6457 43.4965C24.1002 44.951 25.9533 45.9415 27.9707 46.3428C29.9881 46.7441 32.0792 46.5381 33.9795 45.7509C35.8799 44.9638 37.5041 43.6308 38.6469 41.9205C39.7897 40.2103 40.3996 38.1995 40.3996 36.1426C40.3996 34.7768 40.1306 33.4245 39.608 32.1627C39.0853 30.9009 38.3192 29.7544 37.3535 28.7887C36.3878 27.823 35.2413 27.0569 33.9795 26.5342C32.7177 26.0116 31.3654 25.7426 29.9996 25.7426ZM29.9996 45.4479C28.1592 45.4479 26.3601 44.9021 24.8299 43.8796C23.2996 42.8572 22.107 41.4039 21.4027 39.7036C20.6984 38.0033 20.5141 36.1323 20.8731 34.3272C21.2322 32.5222 22.1184 30.8641 23.4198 29.5628C24.7212 28.2614 26.3792 27.3752 28.1842 27.0161C29.9893 26.6571 31.8603 26.8414 33.5606 27.5457C35.2609 28.2499 36.7142 29.4426 37.7367 30.9729C38.7591 32.5031 39.3049 34.3022 39.3049 36.1426C39.3049 38.6105 38.3245 40.9773 36.5794 42.7224C34.8343 44.4675 32.4675 45.4479 29.9996 45.4479ZM31.2637 32.2508C30.9274 31.9172 30.473 31.7301 29.9993 31.7301C29.5256 31.7301 29.0711 31.9172 28.7349 32.2508L26.1075 34.8782C25.7739 35.2145 25.5867 35.669 25.5867 36.1426C25.5867 36.6163 25.7739 37.0708 26.1075 37.4071L28.7349 40.0344C29.0711 40.368 29.5256 40.5552 29.9993 40.5552C30.473 40.5552 30.9274 40.368 31.2637 40.0344L33.8911 37.4071C34.2247 37.0708 34.4118 36.6163 34.4118 36.1426C34.4118 35.669 34.2247 35.2145 33.8911 34.8782L31.2637 32.2508Z" fill="url(#paint0_linear_328_11994)"/>
<defs>
<linearGradient id="paint0_linear_328_11994" x1="16.5893" y1="50.2681" x2="58.3536" y2="13.193" gradientUnits="userSpaceOnUse">
<stop stop-color="#C7A572"/>
<stop offset="0.714613" stop-color="#936D35"/>
</linearGradient>
</defs>
</svg>
