<svg width="60" height="60" viewBox="0 0 60 60" fill="none" xmlns="http://www.w3.org/2000/svg">
<path fill-rule="evenodd" clip-rule="evenodd" d="M48.7196 11.88H47.1596V10.32C47.1596 9.49248 46.8309 8.69889 46.2458 8.11378C45.6607 7.52866 44.8671 7.19995 44.0396 7.19995H15.9596C15.1321 7.19995 14.3385 7.52866 13.7534 8.11378C13.1683 8.69889 12.8396 9.49248 12.8396 10.32V11.88H11.2796C8.69859 11.88 6.59961 13.9789 6.59961 16.56V19.6799C6.59961 22.261 8.69859 24.3599 11.2796 24.3599H12.8396C12.8396 33.2722 19.7262 40.6502 28.4396 41.4451V46.2H24.0607C23.7431 46.1999 23.433 46.2968 23.1719 46.4777C22.9109 46.6587 22.7112 46.915 22.5997 47.2124L21.4297 50.3324C21.3413 50.5684 21.3113 50.8224 21.3424 51.0725C21.3735 51.3226 21.4648 51.5615 21.6084 51.7687C21.752 51.9758 21.9437 52.1451 22.167 52.262C22.3903 52.3789 22.6386 52.44 22.8907 52.4399H37.1085C37.3606 52.44 37.6089 52.3789 37.8322 52.262C38.0555 52.1451 38.2472 51.9758 38.3908 51.7687C38.5344 51.5615 38.6257 51.3226 38.6568 51.0725C38.6879 50.8224 38.6579 50.5684 38.5695 50.3324L37.3995 47.2124C37.288 46.915 37.0884 46.6587 36.8273 46.4777C36.5662 46.2968 36.2562 46.1999 35.9385 46.2H31.5596V41.4451C40.273 40.6502 47.1596 33.2722 47.1596 24.3599H48.7196C51.3006 24.3599 53.3996 22.261 53.3996 19.6799V16.56C53.3996 13.9797 51.3006 11.88 48.7196 11.88ZM30.8702 14.3562C30.6906 13.8034 29.9086 13.8034 29.729 14.3562L28.481 18.1969C28.4007 18.4441 28.1703 18.6115 27.9104 18.6115H23.872C23.2908 18.6115 23.0491 19.3553 23.5194 19.6969L26.7865 22.0706C26.9968 22.2234 27.0848 22.4942 27.0044 22.7414L25.7565 26.5822C25.5769 27.135 26.2096 27.5946 26.6798 27.253L29.9469 24.8793C30.1572 24.7265 30.442 24.7265 30.6523 24.8793L33.9194 27.253C34.3896 27.5946 35.0223 27.135 34.8427 26.5822L33.5948 22.7414C33.5145 22.4942 33.6024 22.2234 33.8127 22.0706L37.0799 19.6969C37.5501 19.3553 37.3084 18.6115 36.7272 18.6115H32.6888C32.4289 18.6115 32.1985 18.4441 32.1182 18.1969L30.8702 14.3562Z" fill="url(#paint0_linear_328_11992)"/>
<defs>
<linearGradient id="paint0_linear_328_11992" x1="16.5893" y1="49.4123" x2="57.101" y2="12.2091" gradientUnits="userSpaceOnUse">
<stop stop-color="#C7A572"/>
<stop offset="0.714613" stop-color="#936D35"/>
</linearGradient>
</defs>
</svg>
