<svg width="60" height="60" viewBox="0 0 60 60" fill="none" xmlns="http://www.w3.org/2000/svg">
<path d="M13.8843 19.5578C13.8843 22.8884 15.1933 26.0825 17.5235 28.4376C19.8537 30.7926 23.0141 32.1157 26.3095 32.1157C29.6048 32.1157 32.7652 30.7926 35.0954 28.4376C37.4256 26.0825 38.7347 22.8884 38.7347 19.5578C38.7347 16.2273 37.4256 13.0332 35.0954 10.6781C32.7652 8.32305 29.6048 7 26.3095 7C23.0141 7 19.8537 8.32305 17.5235 10.6781C15.1933 13.0332 13.8843 16.2273 13.8843 19.5578ZM36.0881 43.6757C36.0881 39.7502 37.9834 36.2728 40.8989 34.1252C40.9009 34.1237 40.9011 34.1206 40.899 34.119C39.3824 32.897 37.7128 31.8607 35.9232 31.0455C35.9219 31.0449 35.9203 31.0452 35.9192 31.0461C33.326 33.264 29.9726 34.6021 26.3095 34.6021C22.6463 34.6021 19.2929 33.264 16.6997 31.0461C16.6986 31.0451 16.697 31.0449 16.6957 31.0455C9.22329 34.4492 3.83508 41.6985 3.00002 50.2982C2.99978 50.3005 3.00162 50.3025 3.0039 50.3025H38.0927C38.0958 50.3025 38.0976 50.2991 38.0959 50.2965C36.8286 48.4081 36.0881 46.1294 36.0881 43.6757ZM47.7741 34.3513C42.6788 34.3513 38.5483 38.526 38.5483 43.6757C38.5483 48.8254 42.6788 53 47.7741 53C52.8695 53 57 48.8254 57 43.6757C57 38.526 52.8695 34.3513 47.7741 34.3513ZM52.537 45.0432H49.1311C49.129 45.0432 49.1273 45.045 49.1273 45.0471V48.4894C49.1273 49.2005 48.6043 49.8188 47.9039 49.8857C47.102 49.9623 46.421 49.3198 46.421 48.5244V45.0472C46.421 45.045 46.4193 45.0433 46.4171 45.0433H43.0113C42.3078 45.0433 41.6959 44.5147 41.6297 43.8068C41.5539 42.9964 42.1897 42.3082 42.9767 42.3082H46.4171C46.4193 42.3082 46.421 42.3064 46.421 42.3042V38.862C46.421 38.1509 46.944 37.5325 47.6444 37.4657C48.4463 37.3891 49.1273 38.0316 49.1273 38.827V42.3042C49.1273 42.3064 49.129 42.3081 49.1311 42.3081H52.5716C53.3586 42.3081 53.9943 42.9964 53.9186 43.8068C53.8524 44.5147 53.2405 45.0432 52.537 45.0432Z" fill="url(#paint0_linear_328_12584)"/>
<defs>
<linearGradient id="paint0_linear_328_12584" x1="14.5266" y1="49.9215" x2="55.8333" y2="6.87547" gradientUnits="userSpaceOnUse">
<stop stop-color="#C7A572"/>
<stop offset="0.714613" stop-color="#936D35"/>
</linearGradient>
</defs>
</svg>
