<svg width="60" height="60" viewBox="0 0 60 60" fill="none" xmlns="http://www.w3.org/2000/svg">
<path d="M30 57C15.1138 57 3 44.8862 3 30C3 15.1138 15.1138 3 30 3C44.8862 3 57 15.1138 57 30C57 44.8922 44.8862 57 30 57ZM30 6.17612C16.8616 6.17612 6.17612 16.8616 6.17612 30C6.17612 43.1384 16.8616 53.8239 30 53.8239C43.1384 53.8239 53.8239 43.1384 53.8239 30C53.8239 16.8676 43.1384 6.17612 30 6.17612Z" fill="url(#paint0_linear_328_12809)"/>
<path d="M30 8.90625C18.302 8.90625 8.82188 18.3864 8.82188 30.0844C8.82188 41.7824 18.302 51.2625 30 51.2625C41.698 51.2625 51.1781 41.7824 51.1781 30.0844C51.1781 18.3864 41.698 8.90625 30 8.90625ZM38.6846 31.9527C37.2562 33.4051 35.3036 34.2188 33.2665 34.2188C31.8623 34.2188 30.5002 33.821 29.319 33.1038L27.6496 34.7732L28.8609 35.9846L26.3417 38.5038L25.1304 37.2924L24.377 38.0458L25.6848 39.3536L23.1656 41.8728L21.8578 40.565L21.0321 41.3906L18.5129 38.8714L26.7757 30.6087C26.0103 29.3973 25.5824 27.9931 25.5824 26.5346C25.5824 24.4975 26.396 22.5449 27.8484 21.1165C29.2768 19.6641 31.2295 18.8504 33.2665 18.8504C35.3036 18.8504 37.2562 19.6641 38.6846 21.1165C40.1371 22.5449 40.9507 24.4975 40.9507 26.5346C40.9507 28.5717 40.131 30.5243 38.6846 31.9527Z" fill="url(#paint1_linear_328_12809)"/>
<path d="M33.2665 22.4062C32.1757 22.4062 31.127 22.8522 30.3676 23.6357C29.5842 24.3951 29.1382 25.4377 29.1382 26.5346C29.1382 27.6254 29.5842 28.6741 30.3676 29.4335C31.127 30.223 32.1757 30.6629 33.2665 30.6629C34.3574 30.6629 35.406 30.217 36.1654 29.4335C36.9549 28.6741 37.3949 27.6254 37.3949 26.5346C37.3949 25.4438 36.9489 24.3951 36.1654 23.6357C35.406 22.8522 34.3574 22.4062 33.2665 22.4062Z" fill="url(#paint2_linear_328_12809)"/>
<defs>
<linearGradient id="paint0_linear_328_12809" x1="14.5266" y1="53.3861" x2="62.7162" y2="10.6072" gradientUnits="userSpaceOnUse">
<stop stop-color="#C7A572"/>
<stop offset="0.714613" stop-color="#936D35"/>
</linearGradient>
<linearGradient id="paint1_linear_328_12809" x1="14.5266" y1="53.3861" x2="62.7162" y2="10.6072" gradientUnits="userSpaceOnUse">
<stop stop-color="#C7A572"/>
<stop offset="0.714613" stop-color="#936D35"/>
</linearGradient>
<linearGradient id="paint2_linear_328_12809" x1="14.5266" y1="53.3861" x2="62.7162" y2="10.6072" gradientUnits="userSpaceOnUse">
<stop stop-color="#C7A572"/>
<stop offset="0.714613" stop-color="#936D35"/>
</linearGradient>
</defs>
</svg>
