<svg width="90" height="88" viewBox="0 0 90 88" fill="none" xmlns="http://www.w3.org/2000/svg">
<ellipse cx="44.941" cy="44" rx="44.6471" ry="44" fill="black" fill-opacity="0.26"/>
<path d="M52.1255 34.0145C50.8511 31.2298 49.0461 28.7022 46.7939 26.5709V34.9539C48.6202 34.8413 50.4063 34.5236 52.1255 34.0145V34.0145ZM46.7939 42.5H54.2477C54.127 40.5486 53.7719 38.6453 53.2023 36.8233C51.1586 37.4484 49.0119 37.8376 46.7939 37.959V42.5ZM46.7939 45.5V50.041C49.0119 50.1624 51.1586 50.5516 53.2023 51.1767C53.7719 49.3547 54.127 47.4514 54.2477 45.5H46.7939ZM46.7939 61.4291C49.0461 59.2978 50.8511 56.7702 52.1255 53.9855C50.4063 53.4764 48.6202 53.1588 46.7939 53.0461V61.4291V61.4291ZM43.7939 34.9539V26.5709C41.5417 28.7022 39.7368 31.2298 38.4624 34.0145C40.1816 34.5236 41.9677 34.8412 43.7939 34.9539ZM36.3402 42.5H43.7939V37.959C41.576 37.8376 39.4293 37.4484 37.3856 36.8233C36.816 38.6453 36.4609 40.5486 36.3402 42.5ZM37.3856 51.1767C39.4293 50.5516 41.576 50.1624 43.7939 50.041V45.5H36.3402C36.4609 47.4514 36.816 49.3547 37.3856 51.1767ZM43.7939 61.4291V53.0461C41.9677 53.1588 40.1816 53.4764 38.4624 53.9855C39.7368 56.7702 41.5417 59.2978 43.7939 61.4291V61.4291ZM45.2939 23C52.3702 23 58.6289 26.5 62.4336 31.8632C64.8648 35.2903 66.2939 39.4783 66.2939 44C66.2939 48.5217 64.8648 52.7097 62.4336 56.1368L62.4225 56.1277L62.4336 56.1368C58.6289 61.5 52.3702 65 45.2939 65C38.2177 65 31.9589 61.5 28.1542 56.1368C25.7231 52.7097 24.2939 48.5217 24.2939 44C24.2939 39.4783 25.7231 35.2903 28.1542 31.8632C31.9589 26.5 38.2177 23 45.2939 23ZM39.2978 27.0232C36.7452 27.9237 34.4281 29.3919 32.5161 31.3204C33.5142 31.95 34.5577 32.5046 35.6379 32.9799C36.5999 30.8309 37.8345 28.8307 39.2978 27.0232ZM54.95 32.9799C56.0302 32.5046 57.0737 31.95 58.0718 31.3204C56.1598 29.3919 53.8427 27.9237 51.2901 27.0232C52.7534 28.8307 53.988 30.8309 54.95 32.9799ZM57.253 42.5H63.2323C62.9615 39.2173 61.8098 36.1844 60.0142 33.6381C58.746 34.4647 57.4103 35.1828 56.0214 35.7849C56.7027 37.9201 57.1254 40.1707 57.253 42.5ZM56.0214 52.2151C57.4103 52.8172 58.746 53.5353 60.0142 54.3619C61.8098 51.8156 62.9615 48.7827 63.2323 45.5H57.253C57.1255 47.8292 56.7027 50.0799 56.0214 52.2151ZM51.2901 60.9768C53.8427 60.0763 56.1598 58.6081 58.0718 56.6796C57.0737 56.05 56.0302 55.4954 54.95 55.0201C53.988 57.1691 52.7534 59.1693 51.2901 60.9768ZM35.6379 55.0201C34.5577 55.4954 33.5142 56.05 32.5161 56.6796C34.4281 58.6081 36.7452 60.0763 39.2978 60.9768C37.8345 59.1693 36.5999 57.1691 35.6379 55.0201ZM33.3349 45.5H27.3555C27.6264 48.7827 28.7781 51.8156 30.5737 54.3619C31.8419 53.5353 33.1776 52.8172 34.5665 52.2151C33.8852 50.0799 33.4625 47.8293 33.3349 45.5ZM30.5737 33.6381C28.7781 36.1844 27.6264 39.2173 27.3555 42.5H33.3408L34.5596 35.7969L30.5737 33.6381Z" fill="url(#paint0_linear_156_280)"/>
<defs>
<linearGradient id="paint0_linear_156_280" x1="45.2939" y1="23" x2="45.2939" y2="65" gradientUnits="userSpaceOnUse">
<stop stop-color="#936D35"/>
<stop offset="1" stop-color="#B3905B"/>
</linearGradient>
</defs>
</svg>
