<svg width="1494" height="802" viewBox="0 0 1494 802" fill="none" xmlns="http://www.w3.org/2000/svg">
<rect x="45.7285" y="23.2266" width="1440" height="680" transform="rotate(3.05657 45.7285 23.2266)" fill="#8A2626"/>
<rect y="124.322" width="1440" height="680" transform="rotate(-4.93414 0 124.322)" fill="#2B2C07"/>
<rect y="124.322" width="1440" height="680" transform="rotate(-4.93414 0 124.322)" fill="#2B2C08"/>
<g filter="url(#filter0_d_298_13408)">
<rect x="20.0469" y="75.3203" width="1440" height="680" transform="rotate(-1.12372 20.0469 75.3203)" fill="#2B2C07"/>
<rect x="20.0469" y="75.3203" width="1440" height="680" transform="rotate(-1.12372 20.0469 75.3203)" fill="#61631A"/>
</g>
<g filter="url(#filter1_d_298_13408)">
<rect x="31.0918" y="40" width="1440" height="680" transform="rotate(1.49158 31.0918 40)" fill="#701F1F"/>
</g>
<g filter="url(#filter2_d_298_13408)">
<rect x="13.3906" y="60.668" width="1440" height="680" transform="rotate(-0.822385 13.3906 60.668)" fill="#340909"/>
</g>
<g filter="url(#filter3_d_298_13408)">
<path d="M40.8831 104.96C40.6295 87.2883 54.7492 72.7573 72.4205 72.5036L1389.58 53.5967C1410.01 53.3034 1426.81 69.6294 1427.1 90.0619L1435.51 675.64C1435.76 693.311 1421.64 707.842 1403.97 708.096L81.8164 727.074C64.1452 727.328 49.6141 713.208 49.3604 695.537L40.8831 104.96Z" fill="#763F2E"/>
</g>
<g filter="url(#filter4_d_298_13408)">
<rect x="451.391" y="8" width="489" height="108" fill="#5E0303"/>
</g>
<g filter="url(#filter5_d_298_13408)">
<rect x="532.391" y="14" width="489" height="108" fill="#571010"/>
</g>
<g filter="url(#filter6_d_298_13408)">
<path d="M488.891 11.4165C488.891 11.4165 702.281 19.1037 733.391 11.4165C764.5 3.72936 855.641 11.4165 855.641 11.4165L977.891 21.3002C977.891 21.3002 961.5 53.1468 972 53.1468C982.5 53.1468 993 79.5027 993 79.5027L977.891 141C977.891 141 865.5 134.411 855.641 132.764C845.781 131.117 733.391 141 733.391 141H488.891L473 79.5027L493.5 53.1468L488.891 11.4165Z" fill="url(#paint0_linear_298_13408)"/>
<path d="M855.431 13.9077L855.439 13.9084L974.032 23.4965C973.781 24.0264 973.509 24.6079 973.222 25.232C971.833 28.2545 970.077 32.314 968.648 36.398C967.243 40.4136 966.06 44.7125 965.991 48.1205C965.957 49.8045 966.183 51.64 967.132 53.125C968.206 54.8042 969.947 55.6468 972 55.6468C973.603 55.6468 975.615 56.6948 977.94 59.0291C980.194 61.2923 982.369 64.3903 984.291 67.6072C986.202 70.8041 987.802 74.0162 988.928 76.4383C989.49 77.6466 989.93 78.6518 990.229 79.3517C990.283 79.4783 990.332 79.5948 990.377 79.7007L975.96 138.382C975.217 138.338 974.288 138.283 973.19 138.218C970.098 138.035 965.67 137.771 960.326 137.449C949.637 136.806 935.282 135.931 920.621 135.005C905.958 134.078 890.992 133.101 879.079 132.252C867.078 131.397 858.368 130.685 856.053 130.298C854.53 130.044 851.426 130.036 847.487 130.146C843.433 130.26 838.206 130.512 832.234 130.86C820.287 131.556 805.296 132.639 790.626 133.772C775.953 134.905 761.59 136.089 750.896 136.99C745.548 137.441 741.118 137.821 738.024 138.088C737.38 138.143 736.794 138.194 736.27 138.24C735.534 138.303 734.92 138.357 734.438 138.399L733.495 138.481L733.281 138.5H490.827L475.728 80.0674L495.473 54.6817L496.096 53.8808L495.985 52.8723L491.693 14.0162C493.24 14.0696 495.379 14.1424 498.038 14.2304C503.936 14.4257 512.396 14.6961 522.646 14.9964C543.144 15.5972 570.801 16.3182 599.433 16.7988C628.061 17.2795 657.681 17.5202 682.1 17.1593C694.308 16.9788 705.237 16.6478 714.102 16.1191C722.906 15.5941 729.853 14.8658 733.99 13.8435C741.49 11.9904 752.79 11.0322 765.686 10.6725C778.532 10.3142 792.783 10.5528 806.092 11.0322C819.396 11.5115 831.734 12.2306 840.748 12.83C845.254 13.1297 848.927 13.3993 851.473 13.5939C852.746 13.6913 853.737 13.7698 854.409 13.824C854.745 13.8511 855.001 13.872 855.173 13.8862L855.367 13.9023L855.415 13.9064L855.427 13.9074L855.43 13.9076C855.43 13.9077 855.431 13.9077 855.641 11.4165L855.431 13.9077Z" stroke="#621010" stroke-width="5"/>
</g>
<defs>
<filter id="filter0_d_298_13408" x="16.0469" y="47.0801" width="1461.06" height="716.109" filterUnits="userSpaceOnUse" color-interpolation-filters="sRGB">
<feFlood flood-opacity="0" result="BackgroundImageFix"/>
<feColorMatrix in="SourceAlpha" type="matrix" values="0 0 0 0 0 0 0 0 0 0 0 0 0 0 0 0 0 0 127 0" result="hardAlpha"/>
<feOffset dy="4"/>
<feGaussianBlur stdDeviation="2"/>
<feComposite in2="hardAlpha" operator="out"/>
<feColorMatrix type="matrix" values="0 0 0 0 0 0 0 0 0 0 0 0 0 0 0 0 0 0 0.25 0"/>
<feBlend mode="normal" in2="BackgroundImageFix" result="effect1_dropShadow_298_13408"/>
<feBlend mode="normal" in="SourceGraphic" in2="effect1_dropShadow_298_13408" result="shape"/>
</filter>
<filter id="filter1_d_298_13408" x="9.39062" y="40" width="1465.21" height="725.252" filterUnits="userSpaceOnUse" color-interpolation-filters="sRGB">
<feFlood flood-opacity="0" result="BackgroundImageFix"/>
<feColorMatrix in="SourceAlpha" type="matrix" values="0 0 0 0 0 0 0 0 0 0 0 0 0 0 0 0 0 0 127 0" result="hardAlpha"/>
<feOffset dy="4"/>
<feGaussianBlur stdDeviation="2"/>
<feComposite in2="hardAlpha" operator="out"/>
<feColorMatrix type="matrix" values="0 0 0 0 0 0 0 0 0 0 0 0 0 0 0 0 0 0 0.25 0"/>
<feBlend mode="normal" in2="BackgroundImageFix" result="effect1_dropShadow_298_13408"/>
<feBlend mode="normal" in="SourceGraphic" in2="effect1_dropShadow_298_13408" result="shape"/>
</filter>
<filter id="filter2_d_298_13408" x="9.39062" y="40" width="1457.61" height="708.598" filterUnits="userSpaceOnUse" color-interpolation-filters="sRGB">
<feFlood flood-opacity="0" result="BackgroundImageFix"/>
<feColorMatrix in="SourceAlpha" type="matrix" values="0 0 0 0 0 0 0 0 0 0 0 0 0 0 0 0 0 0 127 0" result="hardAlpha"/>
<feOffset dy="4"/>
<feGaussianBlur stdDeviation="2"/>
<feComposite in2="hardAlpha" operator="out"/>
<feColorMatrix type="matrix" values="0 0 0 0 0 0 0 0 0 0 0 0 0 0 0 0 0 0 0.25 0"/>
<feBlend mode="normal" in2="BackgroundImageFix" result="effect1_dropShadow_298_13408"/>
<feBlend mode="normal" in="SourceGraphic" in2="effect1_dropShadow_298_13408" result="shape"/>
</filter>
<filter id="filter3_d_298_13408" x="36.8789" y="53.5938" width="1402.63" height="681.484" filterUnits="userSpaceOnUse" color-interpolation-filters="sRGB">
<feFlood flood-opacity="0" result="BackgroundImageFix"/>
<feColorMatrix in="SourceAlpha" type="matrix" values="0 0 0 0 0 0 0 0 0 0 0 0 0 0 0 0 0 0 127 0" result="hardAlpha"/>
<feOffset dy="4"/>
<feGaussianBlur stdDeviation="2"/>
<feComposite in2="hardAlpha" operator="out"/>
<feColorMatrix type="matrix" values="0 0 0 0 0 0 0 0 0 0 0 0 0 0 0 0 0 0 0.25 0"/>
<feBlend mode="normal" in2="BackgroundImageFix" result="effect1_dropShadow_298_13408"/>
<feBlend mode="normal" in="SourceGraphic" in2="effect1_dropShadow_298_13408" result="shape"/>
</filter>
<filter id="filter4_d_298_13408" x="447.391" y="8" width="497" height="116" filterUnits="userSpaceOnUse" color-interpolation-filters="sRGB">
<feFlood flood-opacity="0" result="BackgroundImageFix"/>
<feColorMatrix in="SourceAlpha" type="matrix" values="0 0 0 0 0 0 0 0 0 0 0 0 0 0 0 0 0 0 127 0" result="hardAlpha"/>
<feOffset dy="4"/>
<feGaussianBlur stdDeviation="2"/>
<feComposite in2="hardAlpha" operator="out"/>
<feColorMatrix type="matrix" values="0 0 0 0 0 0 0 0 0 0 0 0 0 0 0 0 0 0 0.25 0"/>
<feBlend mode="normal" in2="BackgroundImageFix" result="effect1_dropShadow_298_13408"/>
<feBlend mode="normal" in="SourceGraphic" in2="effect1_dropShadow_298_13408" result="shape"/>
</filter>
<filter id="filter5_d_298_13408" x="528.391" y="14" width="497" height="116" filterUnits="userSpaceOnUse" color-interpolation-filters="sRGB">
<feFlood flood-opacity="0" result="BackgroundImageFix"/>
<feColorMatrix in="SourceAlpha" type="matrix" values="0 0 0 0 0 0 0 0 0 0 0 0 0 0 0 0 0 0 127 0" result="hardAlpha"/>
<feOffset dy="4"/>
<feGaussianBlur stdDeviation="2"/>
<feComposite in2="hardAlpha" operator="out"/>
<feColorMatrix type="matrix" values="0 0 0 0 0 0 0 0 0 0 0 0 0 0 0 0 0 0 0.25 0"/>
<feBlend mode="normal" in2="BackgroundImageFix" result="effect1_dropShadow_298_13408"/>
<feBlend mode="normal" in="SourceGraphic" in2="effect1_dropShadow_298_13408" result="shape"/>
</filter>
<filter id="filter6_d_298_13408" x="469" y="8" width="528" height="141" filterUnits="userSpaceOnUse" color-interpolation-filters="sRGB">
<feFlood flood-opacity="0" result="BackgroundImageFix"/>
<feColorMatrix in="SourceAlpha" type="matrix" values="0 0 0 0 0 0 0 0 0 0 0 0 0 0 0 0 0 0 127 0" result="hardAlpha"/>
<feOffset dy="4"/>
<feGaussianBlur stdDeviation="2"/>
<feComposite in2="hardAlpha" operator="out"/>
<feColorMatrix type="matrix" values="0 0 0 0 0 0 0 0 0 0 0 0 0 0 0 0 0 0 0.25 0"/>
<feBlend mode="normal" in2="BackgroundImageFix" result="effect1_dropShadow_298_13408"/>
<feBlend mode="normal" in="SourceGraphic" in2="effect1_dropShadow_298_13408" result="shape"/>
</filter>
<linearGradient id="paint0_linear_298_13408" x1="733" y1="8" x2="733" y2="141" gradientUnits="userSpaceOnUse">
<stop stop-color="#461834"/>
<stop offset="1" stop-color="#792512"/>
</linearGradient>
</defs>
</svg>
