<svg width="90" height="88" viewBox="0 0 90 88" fill="none" xmlns="http://www.w3.org/2000/svg">
<ellipse cx="44.6471" cy="44" rx="44.6471" ry="44" fill="black" fill-opacity="0.26"/>
<path d="M24 37.4994C24 36.7287 24.2752 36.0766 24.8257 35.543C25.3762 35.0095 26.0383 34.7427 26.8119 34.7427H29.6238V47.2371H26.8119C26.0383 47.2371 25.3762 46.9703 24.8257 46.4367C24.2752 45.9031 24 45.251 24 44.4803V37.4994ZM55.2434 26.0277C56.5228 24.8124 57.6833 24.1454 58.7248 24.0268C59.7662 23.9083 60.6886 24.1825 61.492 24.8494C62.2954 25.5164 62.9798 26.4946 63.5452 27.7841C64.1105 29.0735 64.5717 30.5112 64.9288 32.0971C65.2859 33.6829 65.5537 35.3429 65.7322 37.077C65.9107 38.8111 66 40.4637 66 42.0348C66 43.6058 65.8884 45.1769 65.6652 46.748C65.4421 48.319 65.1148 49.7937 64.6833 51.1721C64.2519 52.5505 63.746 53.7585 63.1658 54.7959C62.5855 55.8334 61.9384 56.6041 61.2242 57.1081C60.5101 57.612 59.7439 57.7899 58.9256 57.6416C58.1073 57.4934 57.2519 56.9154 56.3592 55.9075C55.4963 54.8997 54.3284 54.0623 52.8555 53.3953C51.3826 52.7284 49.7758 52.1652 48.0351 51.7057C46.2944 51.2462 44.5313 50.8757 42.746 50.5941C40.9607 50.3125 39.3241 50.0605 37.8363 49.8382C36.3486 49.6159 35.1063 49.401 34.1095 49.1935C33.1126 48.986 32.5547 48.734 32.4357 48.4376V34.5204C32.5547 34.1054 33.0234 33.7645 33.8417 33.4977C34.6599 33.2309 35.7014 32.9789 36.966 32.7418C38.2306 32.5047 39.6589 32.2453 41.2508 31.9637C42.8427 31.6821 44.4644 31.2967 46.1158 30.8076C47.7673 30.3185 49.3815 29.696 50.9586 28.9401C52.5356 28.1842 53.9639 27.2134 55.2434 26.0277ZM39.1753 53.2842C39.3241 53.6399 39.5027 54.0252 39.7109 54.4402C39.8895 54.8256 40.1275 55.2702 40.4251 55.7742C40.7226 56.2781 41.0797 56.8265 41.4963 57.4193C42.0021 58.1307 42.5154 58.8792 43.0361 59.6648C43.5569 60.4503 43.9511 61.1617 44.2189 61.799C44.4867 62.4363 44.5685 62.9625 44.4644 63.3775C44.3603 63.7925 43.9362 64 43.1923 64H40.6482C40.0531 64 39.5027 63.8888 38.9968 63.6665C38.491 63.4442 38.0074 63.1033 37.5462 62.6438C37.085 62.1844 36.6089 61.5989 36.118 60.8875C35.627 60.1761 35.0988 59.3313 34.5335 58.3531C33.8491 57.2266 33.373 56.241 33.1052 55.3962C32.8374 54.5514 32.6589 53.8474 32.5696 53.2842C32.4506 52.632 32.4506 52.0688 32.5696 51.5945C32.8077 51.6242 33.0903 51.6835 33.4176 51.7724C33.6854 51.8317 34.0128 51.9058 34.3996 51.9947C34.7864 52.0836 35.2327 52.1726 35.7386 52.2615C36.2444 52.3801 36.6982 52.4912 37.0999 52.595C37.5016 52.6987 37.8661 52.8099 38.1934 52.9285C38.5505 53.047 38.8778 53.1656 39.1753 53.2842Z" fill="url(#paint0_linear_156_277)"/>
<defs>
<linearGradient id="paint0_linear_156_277" x1="27.366" y1="64.0818" x2="63.2267" y2="30.6557" gradientUnits="userSpaceOnUse">
<stop stop-color="#C7A572"/>
<stop offset="0.714613" stop-color="#936D35"/>
</linearGradient>
</defs>
</svg>
