<svg width="50" height="50" viewBox="0 0 50 50" fill="none" xmlns="http://www.w3.org/2000/svg">
<path d="M28.8216 24.9994L43.7396 10.0839C44.7952 9.02977 44.7952 7.31849 43.741 6.26302C42.6855 5.20751 40.9742 5.20751 39.9187 6.26302L25.0007 21.1785L10.0852 6.26039C9.02973 5.20487 7.31986 5.20487 6.26434 6.26039C5.20887 7.31454 5.20887 9.02577 6.26303 10.0813L21.1798 24.9994L6.26039 39.9161C5.20487 40.9703 5.20487 42.6815 6.26039 43.7369C6.78812 44.2648 7.47948 44.5286 8.17079 44.5286C8.86215 44.5286 9.5535 44.2648 10.0812 43.7369L24.9993 28.8215L39.9161 43.7396C40.4439 44.2674 41.1352 44.5312 41.8266 44.5312C42.5179 44.5312 43.2092 44.2674 43.737 43.7396C44.7925 42.6854 44.7925 40.9742 43.7383 39.9187L28.8216 24.9994Z" fill="url(#paint0_linear_647_18662)"/>
<defs>
<linearGradient id="paint0_linear_647_18662" x1="25.0001" y1="5.46875" x2="25.0001" y2="44.5312" gradientUnits="userSpaceOnUse">
<stop stop-color="#936D35"/>
<stop offset="1" stop-color="#B3905B"/>
</linearGradient>
</defs>
</svg>
