<svg width="100" height="100" viewBox="0 0 100 100" fill="none" xmlns="http://www.w3.org/2000/svg">
<path d="M49.9993 8.33203C73.0105 8.33203 91.666 26.9876 91.666 49.9987C91.666 73.0098 73.0105 91.6654 49.9993 91.6654C26.9882 91.6654 8.33268 73.0098 8.33268 49.9987C8.33268 26.9876 26.9882 8.33203 49.9993 8.33203V8.33203ZM49.9993 16.6654C31.6202 16.6654 16.666 31.6195 16.666 49.9987C16.666 68.3792 31.6202 83.332 49.9993 83.332C68.3785 83.332 83.3327 68.3792 83.3327 49.9987C83.3327 31.6195 68.3785 16.6654 49.9993 16.6654" fill="#C59044"/>
<path d="M56.9436 68.0545C57.7681 68.0557 58.5745 67.812 59.2604 67.3544C59.9463 66.8967 60.4809 66.2458 60.7964 65.484C61.1119 64.7222 61.1941 63.8838 61.0327 63.0752C60.8712 62.2667 60.4733 61.5242 59.8894 60.942L46.0005 47.0531C45.6138 46.666 45.1546 46.3589 44.6491 46.1494C44.1437 45.9399 43.6019 45.832 43.0547 45.832C42.5075 45.832 41.9657 45.9399 41.4602 46.1494C40.9548 46.3589 40.4956 46.666 40.1088 47.0531C39.7217 47.4398 39.4146 47.899 39.2051 48.4045C38.9956 48.91 38.8878 49.4518 38.8878 49.999C38.8878 50.5461 38.9956 51.0879 39.2051 51.5934C39.4146 52.0989 39.7217 52.5581 40.1088 52.9448L53.9977 66.8337C54.3841 67.2212 54.8433 67.5286 55.3488 67.7381C55.8543 67.9476 56.3963 68.0552 56.9436 68.0545" fill="#C59044"/>
<path d="M43.0562 54.1658C43.6035 54.1663 44.1456 54.0586 44.6511 53.8488C45.1567 53.6391 45.6158 53.3314 46.002 52.9436L59.8909 39.0547C60.2778 38.6681 60.5847 38.2089 60.7941 37.7036C61.0035 37.1982 61.1113 36.6566 61.1113 36.1096C61.1113 35.5626 61.0035 35.0209 60.7941 34.5156C60.5847 34.0103 60.2778 33.5511 59.8909 33.1645C59.5042 32.7773 59.045 32.4703 58.5395 32.2607C58.0341 32.0512 57.4923 31.9434 56.9451 31.9434C56.3979 31.9434 55.8561 32.0512 55.3506 32.2607C54.8452 32.4703 54.386 32.7773 53.9993 33.1645L40.1104 47.0533C39.527 47.6356 39.1295 48.3779 38.9683 49.1863C38.8071 49.9946 38.8894 50.8327 39.2049 51.5942C39.5204 52.3557 40.0547 53.0064 40.7403 53.464C41.426 53.9216 42.2319 54.1653 43.0562 54.1645" fill="#C59044"/>
</svg>
