<svg width="100" height="100" viewBox="0 0 100 100" fill="none" xmlns="http://www.w3.org/2000/svg">
<path d="M50.0007 8.33203C26.9895 8.33203 8.33398 26.9876 8.33398 49.9987C8.33398 73.0098 26.9895 91.6654 50.0007 91.6654C73.0118 91.6654 91.6673 73.0098 91.6673 49.9987C91.6673 26.9876 73.0118 8.33203 50.0007 8.33203V8.33203ZM50.0007 16.6654C68.3798 16.6654 83.334 31.6195 83.334 49.9987C83.334 68.3792 68.3798 83.332 50.0007 83.332C31.6215 83.332 16.6673 68.3792 16.6673 49.9987C16.6673 31.6195 31.6215 16.6654 50.0007 16.6654" fill="#C59044"/>
<path d="M43.0564 68.0545C42.2319 68.0557 41.4255 67.812 40.7396 67.3544C40.0537 66.8967 39.5191 66.2458 39.2036 65.484C38.8881 64.7222 38.8059 63.8838 38.9673 63.0752C39.1288 62.2667 39.5267 61.5242 40.1106 60.942L53.9995 47.0531C54.3862 46.666 54.8454 46.3589 55.3509 46.1494C55.8563 45.9399 56.3981 45.832 56.9453 45.832C57.4925 45.832 58.0343 45.9399 58.5398 46.1494C59.0452 46.3589 59.5044 46.666 59.8912 47.0531C60.2783 47.4398 60.5854 47.899 60.7949 48.4045C61.0044 48.91 61.1122 49.4518 61.1122 49.999C61.1122 50.5461 61.0044 51.0879 60.7949 51.5934C60.5854 52.0989 60.2783 52.5581 59.8912 52.9448L46.0023 66.8337C45.6159 67.2212 45.1567 67.5286 44.6512 67.7381C44.1457 67.9476 43.6037 68.0552 43.0564 68.0545" fill="#C59044"/>
<path d="M56.9438 54.1658C56.3965 54.1663 55.8544 54.0586 55.3489 53.8488C54.8433 53.6391 54.3842 53.3314 53.998 52.9436L40.1091 39.0547C39.7222 38.6681 39.4153 38.2089 39.2059 37.7036C38.9965 37.1982 38.8887 36.6566 38.8887 36.1096C38.8887 35.5626 38.9965 35.0209 39.2059 34.5156C39.4153 34.0103 39.7222 33.5511 40.1091 33.1645C40.4958 32.7773 40.955 32.4703 41.4605 32.2607C41.9659 32.0512 42.5077 31.9434 43.0549 31.9434C43.6021 31.9434 44.1439 32.0512 44.6494 32.2607C45.1548 32.4703 45.614 32.7773 46.0007 33.1645L59.8896 47.0533C60.473 47.6356 60.8705 48.3779 61.0317 49.1863C61.1929 49.9946 61.1106 50.8327 60.7951 51.5942C60.4796 52.3557 59.9453 53.0064 59.2597 53.464C58.574 53.9216 57.7681 54.1653 56.9438 54.1645" fill="#C59044"/>
</svg>
